<?xml version="1.0" encoding="UTF-8"?><svg id="Layer_1" xmlns="http://www.w3.org/2000/svg" viewBox="0 0 300 300"><defs><style>.cls-1{fill:#00dba0;}.cls-2{fill:#fff;}</style></defs><path class="cls-2" d="M241.13,250.6h2.35v2.35c0,2.6,2.1,4.7,4.7,4.7s4.7-2.1,4.7-4.7v-2.35h2.35c2.6,0,4.7-2.1,4.7-4.7s-2.1-4.7-4.7-4.7h-2.35v-2.35c0-2.6-2.1-4.7-4.7-4.7s-4.7,2.1-4.7,4.7v2.35h-2.35c-2.6,0-4.7,2.1-4.7,4.7s2.1,4.7,4.7,4.7Z"/><g><path class="cls-2" d="M37.85,51.75h30.54c2.6,0,4.7-2.1,4.7-4.7s-2.1-4.7-4.7-4.7h-30.54c-2.6,0-4.7,2.1-4.7,4.7s2.1,4.7,4.7,4.7Z"/><path class="cls-2" d="M68.39,59.03H16.7c-2.6,0-4.7,2.1-4.7,4.7s2.1,4.7,4.7,4.7h51.69c2.6,0,4.7-2.1,4.7-4.7s-2.1-4.7-4.7-4.7Z"/></g><g><g><g><path class="cls-2" d="M218.01,163.53c-.01-18.15-7.07-35.21-19.88-48-12.83-12.84-29.92-19.9-48.12-19.86-18.11,.05-35.13,7.11-47.89,19.88-26.45,26.47-26.46,69.55,.03,96,12.84,12.85,29.96,19.89,48.15,19.86,18.11-.04,35.1-7.1,47.86-19.86,12.8-12.81,19.86-29.86,19.85-48.02Z"/><path class="cls-2" d="M150.18,236.72c-19.59,0-37.98-7.61-51.79-21.42-13.81-13.79-21.41-32.17-21.42-51.74,0-19.57,7.6-37.95,21.39-51.76,13.76-13.77,32.09-21.38,51.63-21.43,19.72,0,38.09,7.6,51.89,21.41,13.8,13.79,21.42,32.17,21.43,51.75,.02,19.56-7.59,37.95-21.4,51.77-13.77,13.77-32.1,21.38-51.6,21.42h-.13Zm-.02-135.74c-16.84,.05-32.52,6.55-44.28,18.32-11.79,11.8-18.29,27.52-18.29,44.26,0,16.74,6.51,32.45,18.31,44.24,11.8,11.81,27.53,18.31,44.28,18.31v5.31l.11-5.31c16.68-.04,32.35-6.54,44.12-18.31,11.81-11.81,18.3-27.53,18.29-44.26-.01-16.75-6.52-32.46-18.33-44.25-11.79-11.81-27.5-18.3-44.22-18.3Z"/></g><path class="cls-1" d="M183.54,190.61c-2.61,.95-5.33,1.64-8.06,2.09-9.06,1.49-18.7,.63-27.05,4.44-5.55,2.53-10.26,7.04-16.23,8.32-5.53,1.19-11.36-.65-16.06-3.79-12.49-8.35-18.33-23.39-18.33-38.1,0-13.92,5.42-27.03,15.27-36.92,9.91-9.95,23.06-15.42,37.03-15.42,13.97,0,27.1,5.43,37,15.34,13.04,13.02,23.92,41.15,8.84,56.33-3.47,3.49-7.77,6.01-12.42,7.7Z"/></g><path class="cls-2" d="M279.36,155.11c-34.55-48.47-80.19-75.16-128.52-75.16v-10.61c51.85,0,100.56,28.27,137.16,79.61l-8.64,6.16Z"/><path class="cls-2" d="M150.84,239.13c-46.6,0-90.62-25.76-123.96-72.53l-2.2-3.08,2.2-3.08c33.34-46.77,77.37-72.53,123.96-72.53s90.62,25.76,123.96,72.53l2.19,3.08-2.19,3.08c-33.34,46.77-77.36,72.53-123.96,72.53ZM37.75,163.52c31,41.96,71.03,65,113.08,65s82.09-23.05,113.08-65c-31-41.95-71.03-65-113.08-65s-82.09,23.05-113.08,65Z"/></g><path class="cls-2" d="M159.77,190.2h2.35v2.35c0,2.6,2.1,4.7,4.7,4.7s4.7-2.1,4.7-4.7v-2.35h2.35c2.6,0,4.7-2.1,4.7-4.7s-2.1-4.7-4.7-4.7h-2.35v-2.35c0-2.6-2.1-4.7-4.7-4.7s-4.7,2.1-4.7,4.7v2.35h-2.35c-2.6,0-4.7,2.1-4.7,4.7s2.1,4.7,4.7,4.7Z"/></svg>