<svg id="Layer_1" data-name="Layer 1" xmlns="http://www.w3.org/2000/svg" viewBox="0 0 300 300"><defs><style>.cls-1{fill:#58d8a5;}.cls-2{fill:#fff;}</style></defs><path class="cls-1" d="M79.16,74.79c2.34,1.07,5.12-.42,6.72-2.43s2.46-4.52,4-6.59c2.92-4,7.85-5.9,12.5-7.6l33.46-12.25c2.56-.94,5.53-2.36,5.87-5.07.44-3.59-4-5.64-7.6-6.05C122,33.38,109.92,37,98.41,41c-7.67,2.67-10.88,8.21-16.78,13.24A186,186,0,0,0,63.68,71.82a205,205,0,0,0-28.14,40.25C29.7,123,24.8,135.45,27.38,147.58c4.42,3,10-1.56,13.21-5.87C58.52,117.38,70.2,88.46,91,66.53"/><path class="cls-1" d="M136.81,104.91c3.15,2.71,7.05,4.9,11.2,4.82,7.4-.15,13-7.76,13.2-15.16s-3.62-14.3-8.08-20.2C150.34,70.69,142,62.44,137,62.89c-4.38.39-7.64,8.13-8.76,11.53C124.73,84.91,128.48,97.73,136.81,104.91Z"/><path class="cls-2" d="M141.75,49.89a89.18,89.18,0,1,0,89.18,89.18A89.29,89.29,0,0,0,141.75,49.89ZM109.61,215.74a83.65,83.65,0,0,1-40.67-36.62l.71-.14c3.28-.58,6.4-1.13,8.62-3a5.87,5.87,0,0,0,1.82-2.7,17.39,17.39,0,0,0,3.42.35,17.19,17.19,0,0,0,3.4-.35,6.08,6.08,0,0,0,1.84,2.7c2.22,1.88,5.33,2.43,8.62,3,2.77.49,5.64,1,7.7,2.3s4.54,3.63,4.54,10.2ZM73.68,158.47V152c0-5.19,4.22-9.1,9.83-9.1s9.83,3.91,9.83,9.1v6.47c0,5.19-4.22,9.1-9.83,9.1S73.68,163.66,73.68,158.47Zm38.95,22.1a14.68,14.68,0,0,0-4.34-4.4c-3.05-1.93-6.67-2.57-9.86-3.14-2.36-.42-4.79-.85-5.79-1.69-.07-.06-.11-.12-.14-.33a14.82,14.82,0,0,0,6.88-12.54V152a14.67,14.67,0,0,0-.92-5l.32-.07c3.28-.58,6.39-1.13,8.61-3a6,6,0,0,0,1.82-2.71,16.67,16.67,0,0,0,3.42.36,17.11,17.11,0,0,0,3.4-.35,6.13,6.13,0,0,0,1.84,2.7c2.22,1.88,5.34,2.43,8.62,3l.31.07a14.67,14.67,0,0,0-.92,5v6.47A14.85,14.85,0,0,0,132.76,171a.4.4,0,0,1-.14.32c-1,.84-3.43,1.27-5.79,1.69-3.18.57-6.8,1.21-9.86,3.15A14.76,14.76,0,0,0,112.63,180.57Zm15.05-65.27.4-.09c3.29-.58,6.39-1.13,8.62-3a6,6,0,0,0,1.82-2.71,17.39,17.39,0,0,0,3.42.36,17.19,17.19,0,0,0,3.4-.35,6.13,6.13,0,0,0,1.84,2.7c2.22,1.88,5.33,2.43,8.62,3l.22.05a14.7,14.7,0,0,0-.83,4.71v6.47A14.84,14.84,0,0,0,162.07,139c0,.2-.07.27-.15.33-1,.83-3.42,1.27-5.77,1.68-.93.17-1.88.38-2.83.58a16.54,16.54,0,0,0-23.1,0c-.89-.19-1.8-.38-2.67-.54-2.36-.41-4.8-.85-5.78-1.68-.08-.06-.12-.13-.15-.33a14.84,14.84,0,0,0,6.88-12.55V120A14.68,14.68,0,0,0,127.68,115.3Zm4.43-20.6V88.23c0-5.18,4.22-9.1,9.83-9.1s9.83,3.92,9.83,9.1V94.7c0,5.19-4.22,9.1-9.83,9.1S132.11,99.89,132.11,94.7Zm29.12,31.74V120c0-5.19,4.22-9.1,9.83-9.1s9.83,3.91,9.83,9.1v6.47c0,5.19-4.22,9.11-9.83,9.11S161.23,131.63,161.23,126.44ZM151.58,152v6.47c0,5.19-4.22,9.1-9.83,9.1s-9.83-3.91-9.83-9.1V152c0-5.19,4.23-9.1,9.83-9.1S151.58,146.81,151.58,152Zm-29.12-28.79v3.23c0,5.19-4.22,9.11-9.83,9.11s-9.83-3.92-9.83-9.11V120c0-5.19,4.22-9.1,9.83-9.1s9.83,3.91,9.83,9.1ZM167.85,218a82.08,82.08,0,0,1-52.2,0V191.48c0-6.56,2.6-9,4.55-10.2s4.92-1.81,7.7-2.3c3.28-.59,6.39-1.14,8.62-3a6,6,0,0,0,1.82-2.7,16.79,16.79,0,0,0,6.82,0A6,6,0,0,0,147,176c2.23,1.88,5.34,2.43,8.62,3,2.78.49,5.64,1,7.7,2.3s4.54,3.63,4.54,10.2Zm3-37.38a14.56,14.56,0,0,0-4.34-4.4c-3.05-1.93-6.67-2.57-9.86-3.14-2.36-.42-4.79-.85-5.78-1.69-.08-.06-.12-.12-.14-.33a14.83,14.83,0,0,0,6.87-12.54V152a14.78,14.78,0,0,0-.91-4.95c.17,0,.33-.07.5-.1,3.28-.58,6.39-1.13,8.61-3a6,6,0,0,0,1.82-2.71,16.67,16.67,0,0,0,3.42.36,17.11,17.11,0,0,0,3.4-.35,6.13,6.13,0,0,0,1.84,2.7c2.23,1.88,5.33,2.43,8.62,3l.13,0a14.86,14.86,0,0,0-.93,5v6.47A14.84,14.84,0,0,0,191,171c0,.2-.06.26-.14.32-1,.84-3.42,1.27-5.78,1.69-3.19.57-6.81,1.21-9.87,3.15A14.76,14.76,0,0,0,170.87,180.57Zm19.29-22.1V152c0-5.19,4.23-9.1,9.84-9.1s9.82,3.91,9.82,9.1v6.47c0,5.19-4.22,9.1-9.82,9.1S190.16,163.66,190.16,158.47Zm-16.27,57.27V191.48c0-6.56,2.6-9,4.55-10.2s4.92-1.81,7.7-2.3c3.28-.59,6.39-1.14,8.62-3a6,6,0,0,0,1.82-2.7,16.79,16.79,0,0,0,6.82,0,5.92,5.92,0,0,0,1.83,2.7c2.23,1.89,5.34,2.44,8.63,3l.7.14A83.61,83.61,0,0,1,173.89,215.74Zm41-42.71c-2.36-.42-4.8-.85-5.79-1.69-.08-.06-.12-.12-.14-.32a14.85,14.85,0,0,0,6.88-12.55V152c0-8.49-7-15.14-15.87-15.14a16.16,16.16,0,0,0-11.51,4.65c-.84-.17-1.69-.36-2.51-.51-2.36-.41-4.8-.85-5.79-1.68-.07-.06-.11-.13-.14-.33a14.84,14.84,0,0,0,6.88-12.55V120c0-8.49-7-15.14-15.87-15.14a16.08,16.08,0,0,0-11.74,4.93c-.83-.17-1.66-.35-2.46-.5-2.36-.42-4.8-.85-5.79-1.68a.44.44,0,0,1-.14-.33,14.84,14.84,0,0,0,6.88-12.55V88.23c0-8.49-7-15.14-15.87-15.14s-15.87,6.65-15.87,15.14V94.7a14.86,14.86,0,0,0,6.87,12.55.44.44,0,0,1-.13.33c-1,.83-3.43,1.26-5.78,1.68-.86.16-1.74.36-2.62.54a16.09,16.09,0,0,0-11.78-5c-8.9,0-15.87,6.65-15.87,15.14v6.47A14.84,14.84,0,0,0,103.64,139a.41.41,0,0,1-.15.33c-1,.83-3.42,1.27-5.77,1.68-.88.16-1.78.37-2.67.55a16.17,16.17,0,0,0-11.54-4.69c-8.9,0-15.87,6.65-15.87,15.14v6.47A14.82,14.82,0,0,0,74.52,171c0,.21-.07.27-.15.34-1,.83-3.42,1.26-5.78,1.68-.79.14-1.6.32-2.42.48a83.14,83.14,0,1,1,151.16,0C216.52,173.35,215.71,173.17,214.92,173Z"/><path class="cls-2" d="M272.19,246.19l-28.48-28.65a31.14,31.14,0,0,0-7.62-4.71L229,205.74c32.94-43.06,29.83-105-9.52-144.39A109.92,109.92,0,0,0,64,216.79a109.69,109.69,0,0,0,144.32,9.6l7.09,7.09a30.88,30.88,0,0,0,4.7,7.6l28.49,28.65a3.74,3.74,0,0,0,2.76,1.12c2.15,0,4.4-1.44,5.33-2a50.92,50.92,0,0,0,7.95-6.61,50,50,0,0,0,6.6-7.95C272.23,252.76,274.79,248.77,272.19,246.19ZM68.3,212.52a103.87,103.87,0,1,1,154.33-8.29c-.37.45-.73.85-1.1,1.29-2,2.4-4.08,4.75-6.33,7-2.06,2.07-4.24,4-6.44,5.85-.65.54-1.25,1.08-1.93,1.63A103.81,103.81,0,0,1,68.3,212.52Zm151.18,4.27c2-2,3.87-4,5.77-6.26l5,5c-.18.24-.37.47-.56.7a76.73,76.73,0,0,1-5.12,5.72c-1.78,1.78-3.69,3.45-5.7,5.1l-.73.59-5-5C215.4,220.7,217.5,218.77,219.48,216.79Zm40.91,41.15c-3.93,3.93-7,5.95-8.38,6.62l-27.58-27.73a28.07,28.07,0,0,1-2.74-4.19c.28-.22.51-.47.78-.7a83.51,83.51,0,0,0,6.39-5.69,84.52,84.52,0,0,0,5.71-6.41c.22-.27.46-.49.68-.76a30.24,30.24,0,0,1,4.18,2.72L267,249.55A36.46,36.46,0,0,1,260.39,257.94Z"/></svg>