<?xml version="1.0" encoding="UTF-8"?><svg id="Layer_1" xmlns="http://www.w3.org/2000/svg" viewBox="0 0 300 300"><defs><style>.cls-1,.cls-2{fill:#fff;}.cls-1,.cls-3,.cls-4{stroke:#fff;stroke-miterlimit:10;}.cls-1,.cls-4{stroke-width:3.25px;}.cls-5{fill:#00dba0;}.cls-3{stroke-width:3.29px;}.cls-3,.cls-4{fill:none;}</style></defs><path class="cls-5" d="M120.71,148.44c-1.54,0-3.06-.51-4.32-1.51l-30.3-24.24-30.3,24.24c-2.4,1.91-5.77,2.02-8.28,.27-2.52-1.76-3.58-4.96-2.61-7.87l12.32-36.96-30.85-24.68c-2.3-1.84-3.18-4.93-2.21-7.7,.97-2.77,3.59-4.63,6.54-4.63h36.55l12.27-36.81c.94-2.83,3.59-4.73,6.57-4.73s5.63,1.91,6.57,4.73l12.27,36.81h36.55c2.94,0,5.56,1.86,6.53,4.63,.97,2.77,.09,5.86-2.21,7.7l-30.85,24.68,12.32,36.96c.97,2.91-.09,6.11-2.61,7.87-1.19,.83-2.58,1.24-3.96,1.24Zm-34.62-41.54c1.53,0,3.06,.51,4.32,1.52l16.31,13.05-6.43-19.3c-.92-2.75-.02-5.79,2.24-7.6l19.21-15.36h-21.81c-2.98,0-5.63-1.91-6.57-4.73l-7.28-21.84-7.28,21.84c-.94,2.83-3.59,4.73-6.57,4.73h-21.81l19.21,15.36c2.27,1.81,3.16,4.85,2.24,7.6l-6.43,19.3,16.31-13.05c1.26-1.01,2.79-1.52,4.32-1.52Z"/><g><path class="cls-2" d="M127.56,190.87s28.14,13.02,61.56-1.63l3.25,22.78s-26.04,39.06-69.98,0l5.17-21.16Z"/><path class="cls-4" d="M212.5,116.82l5.93,.44c-1.28,29.87-10.52,63.05-37.83,75.18-6.88,3.06-14.92,4.78-24.26,4.78h1.87c-9.64,0-17.89-1.83-24.92-5.08-26.8-12.38-35.9-45.25-37.17-74.88l5.93-.44m174.18,159.29c-8.53-16.44-16.18-43.97-32.57-53.69-14.64-8.68-35.6-8.08-52.08-9.75l-2.49-25.45,3.05,25.45c-31.97,40.7-70.54,.02-70.54,.02l5.89-25.45m-5.89,25.45c-16.48,1.68-37.45,1.09-52.07,9.78-16.38,9.73-24.01,37.28-32.53,53.72h.65"/><g><circle class="cls-1" cx="129.72" cy="115.6" r="27.67"/><circle class="cls-1" cx="185.87" cy="115.6" r="27.67"/><line class="cls-3" x1="129.72" y1="116.01" x2="185.87" y2="116.01"/><path class="cls-2" d="M120.77,114.38c0,4.49,5.46,8.14,12.21,8.14s12.21-3.64,12.21-8.14h-24.41Z"/><path class="cls-2" d="M169.59,114.38c0,4.49,5.46,8.14,12.21,8.14s12.21-3.64,12.21-8.14h-24.41Z"/></g></g></svg>