<svg width="188" height="176" viewBox="0 0 188 176" fill="none" xmlns="http://www.w3.org/2000/svg">
<g opacity="0.8" filter="url(#filter0_d_1425_31180)">
<rect x="44" y="56" width="72" height="72" rx="8" fill="#EDF1FA" shape-rendering="crispEdges"/>
<g clip-path="url(#clip0_1425_31180)" filter="url(#filter1_d_1425_31180)">
<path d="M108.69 77.6551H97.6551C95.8269 77.6551 94.3447 76.173 94.3447 74.3448V63.3104C94.3449 61.4821 95.8269 60 97.6551 60H108.69C110.518 60 112 61.4821 112 63.3104V74.3449C112 76.1731 110.518 77.6551 108.69 77.6551Z" fill="#D8D4FF"/>
<path d="M102.069 73.2413C101.787 73.2413 101.504 73.1336 101.289 72.9182L97.9784 69.6078C97.5474 69.177 97.5474 68.4783 97.9784 68.0475C98.4093 67.6166 99.1079 67.6166 99.5388 68.0475L102.069 70.5776L107.909 64.7372C108.34 64.3063 109.039 64.3063 109.47 64.7372C109.901 65.1681 109.901 65.8667 109.47 66.2976L102.849 72.9183C102.634 73.1336 102.351 73.2413 102.069 73.2413Z" fill="#2D2573"/>
<path d="M108.69 100.827H97.6551C95.8269 100.827 94.3447 99.345 94.3447 97.5168V86.4823C94.3447 84.654 95.8269 83.1719 97.6551 83.1719H108.69C110.518 83.1719 112 84.654 112 86.4823V97.5168C112 99.345 110.518 100.827 108.69 100.827Z" fill="#D8D4FF"/>
<path d="M108.69 123.999H97.6551C95.8269 123.999 94.3447 122.517 94.3447 120.689V109.654C94.3447 107.826 95.8269 106.344 97.6551 106.344H108.69C110.518 106.344 112 107.826 112 109.654V120.689C112 122.517 110.518 123.999 108.69 123.999Z" fill="#D8D4FF"/>
<path d="M102.069 119.587C101.787 119.587 101.504 119.479 101.289 119.264L97.9784 115.954C97.5474 115.523 97.5474 114.824 97.9784 114.393C98.4093 113.962 99.1079 113.962 99.5388 114.393L102.069 116.923L107.909 111.083C108.34 110.652 109.039 110.652 109.47 111.083C109.901 111.514 109.901 112.212 109.47 112.643L102.849 119.264C102.634 119.479 102.351 119.587 102.069 119.587Z" fill="#2D2573"/>
<path d="M71.1724 66.6211H49.1035C48.4935 66.6211 48 66.1269 48 65.5176C48 64.9082 48.4935 64.4141 49.1035 64.4141H71.1725C71.7824 64.4141 72.276 64.9082 72.276 65.5176C72.276 66.1269 71.7824 66.6211 71.1724 66.6211Z" fill="#D8D4FF"/>
<path d="M87.7242 66.6211H75.5863C74.9764 66.6211 74.4828 66.1269 74.4828 65.5176C74.4828 64.9082 74.9763 64.4141 75.5863 64.4141H87.7242C88.334 64.4141 88.8277 64.9082 88.8277 65.5176C88.8277 66.1269 88.3342 66.6211 87.7242 66.6211Z" fill="#06E6AA"/>
<path d="M87.7242 73.2422H83.3104C82.7005 73.2422 82.2069 72.748 82.2069 72.1387C82.2069 71.5293 82.7004 71.0352 83.3104 71.0352H87.7242C88.334 71.0352 88.8277 71.5293 88.8277 72.1387C88.8277 72.748 88.3342 73.2422 87.7242 73.2422Z" fill="#06E6AA"/>
<path d="M57.931 73.2422H49.1035C48.4936 73.2422 48 72.748 48 72.1387C48 71.5293 48.4935 71.0352 49.1035 71.0352H57.9311C58.541 71.0352 59.0346 71.5293 59.0346 72.1387C59.0345 72.748 58.541 73.2422 57.931 73.2422Z" fill="#06E6AA"/>
<path d="M78.8965 73.2422H62.3448C61.735 73.2422 61.2413 72.748 61.2413 72.1387C61.2413 71.5293 61.7348 71.0352 62.3448 71.0352H78.8966C79.5065 71.0352 80.0001 71.5293 80.0001 72.1387C80 72.748 79.5065 73.2422 78.8965 73.2422Z" fill="#D8D4FF"/>
<path d="M71.1724 89.7929H49.1035C48.4936 89.7929 48 89.2988 48 88.6894C48 88.0801 48.4935 87.5859 49.1035 87.5859H71.1725C71.7824 87.5859 72.276 88.0801 72.276 88.6894C72.276 89.2988 71.7824 89.7929 71.1724 89.7929Z" fill="#D8D4FF"/>
<path d="M87.7242 89.7929H75.5863C74.9764 89.7929 74.4828 89.2988 74.4828 88.6894C74.4828 88.0801 74.9763 87.5859 75.5863 87.5859H87.7242C88.334 87.5859 88.8277 88.0801 88.8277 88.6894C88.8277 89.2988 88.3342 89.7929 87.7242 89.7929Z" fill="#06E6AA"/>
<path d="M87.7242 96.414H83.3104C82.7005 96.414 82.2069 95.9199 82.2069 95.3105C82.2069 94.7012 82.7004 94.207 83.3104 94.207H87.7242C88.334 94.207 88.8277 94.7012 88.8277 95.3105C88.8277 95.9199 88.3342 96.414 87.7242 96.414Z" fill="#06E6AA"/>
<path d="M57.931 96.414H49.1035C48.4936 96.414 48 95.9199 48 95.3105C48 94.7012 48.4935 94.207 49.1035 94.207H57.9311C58.541 94.207 59.0346 94.7012 59.0346 95.3105C59.0346 95.9199 58.541 96.414 57.931 96.414Z" fill="#06E6AA"/>
<path d="M78.8965 96.414H62.3448C61.735 96.414 61.2413 95.9199 61.2413 95.3105C61.2413 94.7012 61.7348 94.207 62.3448 94.207H78.8966C79.5065 94.207 80.0001 94.7012 80.0001 95.3105C80.0001 95.9199 79.5065 96.414 78.8965 96.414Z" fill="#D8D4FF"/>
<path d="M71.1724 112.965H49.1035C48.4936 112.965 48 112.471 48 111.861C48 111.252 48.4935 110.758 49.1035 110.758H71.1725C71.7824 110.758 72.276 111.252 72.276 111.861C72.276 112.471 71.7824 112.965 71.1724 112.965Z" fill="#D8D4FF"/>
<path d="M87.7242 112.965H75.5863C74.9764 112.965 74.4828 112.471 74.4828 111.861C74.4828 111.252 74.9763 110.758 75.5863 110.758H87.7242C88.334 110.758 88.8277 111.252 88.8277 111.861C88.8277 112.471 88.3342 112.965 87.7242 112.965Z" fill="#06E6AA"/>
<path d="M87.7242 119.586H83.3104C82.7005 119.586 82.2069 119.092 82.2069 118.482C82.2069 117.873 82.7004 117.379 83.3104 117.379H87.7242C88.334 117.379 88.8277 117.873 88.8277 118.482C88.8277 119.092 88.3342 119.586 87.7242 119.586Z" fill="#06E6AA"/>
<path d="M57.931 119.586H49.1035C48.4936 119.586 48 119.092 48 118.482C48 117.873 48.4935 117.379 49.1035 117.379H57.9311C58.541 117.379 59.0346 117.873 59.0346 118.482C59.0346 119.092 58.541 119.586 57.931 119.586Z" fill="#06E6AA"/>
<path d="M78.8965 119.586H62.3448C61.735 119.586 61.2413 119.092 61.2413 118.482C61.2413 117.873 61.7348 117.379 62.3448 117.379H78.8966C79.5065 117.379 80.0001 117.873 80.0001 118.482C80.0001 119.092 79.5065 119.586 78.8965 119.586Z" fill="#D8D4FF"/>
<path d="M104.733 91.9996L107.263 89.4695C107.694 89.0386 107.694 88.34 107.263 87.9091C106.832 87.4782 106.134 87.4782 105.703 87.9091L103.173 90.4392L100.642 87.9091C100.212 87.4782 99.5129 87.4782 99.082 87.9091C98.651 88.34 98.651 89.0386 99.082 89.4695L101.612 91.9996L99.0819 94.5297C98.6509 94.9606 98.6509 95.6592 99.0819 96.0901C99.2974 96.3056 99.5797 96.4132 99.8622 96.4132C100.145 96.4132 100.427 96.3055 100.642 96.0901L103.172 93.56L105.702 96.0901C105.918 96.3056 106.2 96.4132 106.483 96.4132C106.765 96.4132 107.048 96.3055 107.263 96.0901C107.694 95.6592 107.694 94.9606 107.263 94.5297L104.733 91.9996Z" fill="#2D2573"/>
</g>
</g>
<g filter="url(#filter2_d_1425_31180)">
<rect x="72" y="40" width="72" height="72" rx="8" fill="white" shape-rendering="crispEdges"/>
<g clip-path="url(#clip1_1425_31180)" filter="url(#filter3_d_1425_31180)">
<path d="M136.69 61.6551H125.655C123.827 61.6551 122.345 60.173 122.345 58.3448V47.3104C122.345 45.4821 123.827 44 125.655 44H136.69C138.518 44 140 45.4821 140 47.3104V58.3449C140 60.1731 138.518 61.6551 136.69 61.6551Z" fill="#D8D4FF"/>
<path d="M130.069 57.2413C129.787 57.2413 129.504 57.1336 129.289 56.9182L125.978 53.6078C125.547 53.177 125.547 52.4783 125.978 52.0475C126.409 51.6166 127.108 51.6166 127.539 52.0475L130.069 54.5776L135.909 48.7372C136.34 48.3063 137.039 48.3063 137.47 48.7372C137.901 49.1681 137.901 49.8667 137.47 50.2976L130.849 56.9183C130.634 57.1336 130.351 57.2413 130.069 57.2413Z" fill="#2D2573"/>
<path d="M136.69 84.8271H125.655C123.827 84.8271 122.345 83.345 122.345 81.5168V70.4823C122.345 68.654 123.827 67.1719 125.655 67.1719H136.69C138.518 67.1719 140 68.654 140 70.4823V81.5168C140 83.345 138.518 84.8271 136.69 84.8271Z" fill="#D8D4FF"/>
<path d="M136.69 107.999H125.655C123.827 107.999 122.345 106.517 122.345 104.689V93.6541C122.345 91.8259 123.827 90.3438 125.655 90.3438H136.69C138.518 90.3438 140 91.8259 140 93.6541V104.689C140 106.517 138.518 107.999 136.69 107.999Z" fill="#D8D4FF"/>
<path d="M130.069 103.587C129.787 103.587 129.504 103.479 129.289 103.264L125.978 99.9535C125.547 99.5227 125.547 98.824 125.978 98.3932C126.409 97.9623 127.108 97.9623 127.539 98.3932L130.069 100.923L135.909 95.0829C136.34 94.652 137.039 94.652 137.47 95.0829C137.901 95.5138 137.901 96.2124 137.47 96.6433L130.849 103.264C130.634 103.479 130.351 103.587 130.069 103.587Z" fill="#2D2573"/>
<path d="M99.1724 50.6211H77.1035C76.4935 50.6211 76 50.1269 76 49.5176C76 48.9082 76.4935 48.4141 77.1035 48.4141H99.1725C99.7824 48.4141 100.276 48.9082 100.276 49.5176C100.276 50.1269 99.7824 50.6211 99.1724 50.6211Z" fill="#D8D4FF"/>
<path d="M115.724 50.6211H103.586C102.976 50.6211 102.483 50.1269 102.483 49.5176C102.483 48.9082 102.976 48.4141 103.586 48.4141H115.724C116.334 48.4141 116.828 48.9082 116.828 49.5176C116.828 50.1269 116.334 50.6211 115.724 50.6211Z" fill="#06E6AA"/>
<path d="M115.724 57.2422H111.31C110.701 57.2422 110.207 56.748 110.207 56.1387C110.207 55.5293 110.7 55.0352 111.31 55.0352H115.724C116.334 55.0352 116.828 55.5293 116.828 56.1387C116.828 56.748 116.334 57.2422 115.724 57.2422Z" fill="#06E6AA"/>
<path d="M85.931 57.2422H77.1035C76.4936 57.2422 76 56.748 76 56.1387C76 55.5293 76.4935 55.0352 77.1035 55.0352H85.9311C86.541 55.0352 87.0346 55.5293 87.0346 56.1387C87.0345 56.748 86.541 57.2422 85.931 57.2422Z" fill="#06E6AA"/>
<path d="M106.896 57.2422H90.3448C89.735 57.2422 89.2413 56.748 89.2413 56.1387C89.2413 55.5293 89.7348 55.0352 90.3448 55.0352H106.897C107.506 55.0352 108 55.5293 108 56.1387C108 56.748 107.506 57.2422 106.896 57.2422Z" fill="#D8D4FF"/>
<path d="M99.1724 73.7929H77.1035C76.4936 73.7929 76 73.2988 76 72.6894C76 72.0801 76.4935 71.5859 77.1035 71.5859H99.1725C99.7824 71.5859 100.276 72.0801 100.276 72.6894C100.276 73.2988 99.7824 73.7929 99.1724 73.7929Z" fill="#D8D4FF"/>
<path d="M115.724 73.7929H103.586C102.976 73.7929 102.483 73.2988 102.483 72.6894C102.483 72.0801 102.976 71.5859 103.586 71.5859H115.724C116.334 71.5859 116.828 72.0801 116.828 72.6894C116.828 73.2988 116.334 73.7929 115.724 73.7929Z" fill="#06E6AA"/>
<path d="M115.724 80.414H111.31C110.701 80.414 110.207 79.9199 110.207 79.3105C110.207 78.7012 110.7 78.207 111.31 78.207H115.724C116.334 78.207 116.828 78.7012 116.828 79.3105C116.828 79.9199 116.334 80.414 115.724 80.414Z" fill="#06E6AA"/>
<path d="M85.931 80.414H77.1035C76.4936 80.414 76 79.9199 76 79.3105C76 78.7012 76.4935 78.207 77.1035 78.207H85.9311C86.541 78.207 87.0346 78.7012 87.0346 79.3105C87.0346 79.9199 86.541 80.414 85.931 80.414Z" fill="#06E6AA"/>
<path d="M106.896 80.414H90.3448C89.735 80.414 89.2413 79.9199 89.2413 79.3105C89.2413 78.7012 89.7348 78.207 90.3448 78.207H106.897C107.506 78.207 108 78.7012 108 79.3105C108 79.9199 107.506 80.414 106.896 80.414Z" fill="#D8D4FF"/>
<path d="M99.1724 96.9648H77.1035C76.4936 96.9648 76 96.4707 76 95.8613C76 95.2519 76.4935 94.7578 77.1035 94.7578H99.1725C99.7824 94.7578 100.276 95.2519 100.276 95.8613C100.276 96.4707 99.7824 96.9648 99.1724 96.9648Z" fill="#D8D4FF"/>
<path d="M115.724 96.9648H103.586C102.976 96.9648 102.483 96.4707 102.483 95.8613C102.483 95.2519 102.976 94.7578 103.586 94.7578H115.724C116.334 94.7578 116.828 95.2519 116.828 95.8613C116.828 96.4707 116.334 96.9648 115.724 96.9648Z" fill="#06E6AA"/>
<path d="M115.724 103.586H111.31C110.701 103.586 110.207 103.092 110.207 102.482C110.207 101.873 110.7 101.379 111.31 101.379H115.724C116.334 101.379 116.828 101.873 116.828 102.482C116.828 103.092 116.334 103.586 115.724 103.586Z" fill="#06E6AA"/>
<path d="M85.931 103.586H77.1035C76.4936 103.586 76 103.092 76 102.482C76 101.873 76.4935 101.379 77.1035 101.379H85.9311C86.541 101.379 87.0346 101.873 87.0346 102.482C87.0346 103.092 86.541 103.586 85.931 103.586Z" fill="#06E6AA"/>
<path d="M106.896 103.586H90.3448C89.735 103.586 89.2413 103.092 89.2413 102.482C89.2413 101.873 89.7348 101.379 90.3448 101.379H106.897C107.506 101.379 108 101.873 108 102.482C108 103.092 107.506 103.586 106.896 103.586Z" fill="#D8D4FF"/>
<path d="M132.733 75.9996L135.263 73.4695C135.694 73.0386 135.694 72.34 135.263 71.9091C134.832 71.4782 134.134 71.4782 133.703 71.9091L131.173 74.4392L128.642 71.9091C128.212 71.4782 127.513 71.4782 127.082 71.9091C126.651 72.34 126.651 73.0386 127.082 73.4695L129.612 75.9996L127.082 78.5297C126.651 78.9606 126.651 79.6592 127.082 80.0901C127.297 80.3056 127.58 80.4132 127.862 80.4132C128.145 80.4132 128.427 80.3055 128.642 80.0901L131.172 77.56L133.702 80.0901C133.918 80.3056 134.2 80.4132 134.483 80.4132C134.765 80.4132 135.048 80.3055 135.263 80.0901C135.694 79.6592 135.694 78.9606 135.263 78.5297L132.733 75.9996Z" fill="#2D2573"/>
</g>
</g>
<defs>
<filter id="filter0_d_1425_31180" x="0" y="16" width="160" height="160" filterUnits="userSpaceOnUse" color-interpolation-filters="sRGB">
<feFlood flood-opacity="0" result="BackgroundImageFix"/>
<feColorMatrix in="SourceAlpha" type="matrix" values="0 0 0 0 0 0 0 0 0 0 0 0 0 0 0 0 0 0 127 0" result="hardAlpha"/>
<feOffset dy="4"/>
<feGaussianBlur stdDeviation="22"/>
<feComposite in2="hardAlpha" operator="out"/>
<feColorMatrix type="matrix" values="0 0 0 0 0 0 0 0 0 0 0 0 0 0 0 0 0 0 0.12 0"/>
<feBlend mode="normal" in2="BackgroundImageFix" result="effect1_dropShadow_1425_31180"/>
<feBlend mode="normal" in="SourceGraphic" in2="effect1_dropShadow_1425_31180" result="shape"/>
</filter>
<filter id="filter1_d_1425_31180" x="4" y="20" width="152" height="152" filterUnits="userSpaceOnUse" color-interpolation-filters="sRGB">
<feFlood flood-opacity="0" result="BackgroundImageFix"/>
<feColorMatrix in="SourceAlpha" type="matrix" values="0 0 0 0 0 0 0 0 0 0 0 0 0 0 0 0 0 0 127 0" result="hardAlpha"/>
<feOffset dy="4"/>
<feGaussianBlur stdDeviation="22"/>
<feComposite in2="hardAlpha" operator="out"/>
<feColorMatrix type="matrix" values="0 0 0 0 0 0 0 0 0 0 0 0 0 0 0 0 0 0 0.12 0"/>
<feBlend mode="normal" in2="BackgroundImageFix" result="effect1_dropShadow_1425_31180"/>
<feBlend mode="normal" in="SourceGraphic" in2="effect1_dropShadow_1425_31180" result="shape"/>
</filter>
<filter id="filter2_d_1425_31180" x="28" y="0" width="160" height="160" filterUnits="userSpaceOnUse" color-interpolation-filters="sRGB">
<feFlood flood-opacity="0" result="BackgroundImageFix"/>
<feColorMatrix in="SourceAlpha" type="matrix" values="0 0 0 0 0 0 0 0 0 0 0 0 0 0 0 0 0 0 127 0" result="hardAlpha"/>
<feOffset dy="4"/>
<feGaussianBlur stdDeviation="22"/>
<feComposite in2="hardAlpha" operator="out"/>
<feColorMatrix type="matrix" values="0 0 0 0 0 0 0 0 0 0 0 0 0 0 0 0 0 0 0.12 0"/>
<feBlend mode="normal" in2="BackgroundImageFix" result="effect1_dropShadow_1425_31180"/>
<feBlend mode="normal" in="SourceGraphic" in2="effect1_dropShadow_1425_31180" result="shape"/>
</filter>
<filter id="filter3_d_1425_31180" x="32" y="4" width="152" height="152" filterUnits="userSpaceOnUse" color-interpolation-filters="sRGB">
<feFlood flood-opacity="0" result="BackgroundImageFix"/>
<feColorMatrix in="SourceAlpha" type="matrix" values="0 0 0 0 0 0 0 0 0 0 0 0 0 0 0 0 0 0 127 0" result="hardAlpha"/>
<feOffset dy="4"/>
<feGaussianBlur stdDeviation="22"/>
<feComposite in2="hardAlpha" operator="out"/>
<feColorMatrix type="matrix" values="0 0 0 0 0 0 0 0 0 0 0 0 0 0 0 0 0 0 0.12 0"/>
<feBlend mode="normal" in2="BackgroundImageFix" result="effect1_dropShadow_1425_31180"/>
<feBlend mode="normal" in="SourceGraphic" in2="effect1_dropShadow_1425_31180" result="shape"/>
</filter>
<clipPath id="clip0_1425_31180">
<rect width="64" height="64" fill="white" transform="translate(48 60)"/>
</clipPath>
<clipPath id="clip1_1425_31180">
<rect width="64" height="64" fill="white" transform="translate(76 44)"/>
</clipPath>
</defs>
</svg>
