<?xml version="1.0" encoding="UTF-8"?><svg id="Layer_1" xmlns="http://www.w3.org/2000/svg" viewBox="0 0 300 300"><defs><style>.cls-1{fill:#fff;}.cls-2{fill:#ff6b45;}.cls-3{fill:#34ca9d;}</style></defs><path class="cls-1" d="M189.43,258H56.35V40.64H189.43c7.34,0,13.31,5.97,13.31,13.31V244.69c0,7.34-5.97,13.31-13.31,13.31Zm-124.2-8.87h124.2c2.45,0,4.44-1.99,4.44-4.44V53.95c0-2.45-1.99-4.44-4.44-4.44H65.22V249.13Z"/><path class="cls-1" d="M89.62,258H56.35V40.64h33.27v217.36Zm-24.4-8.87h15.53V49.51h-15.53V249.13Z"/><g><rect class="cls-1" x="48.59" y="61.17" width="25.14" height="8.87"/><rect class="cls-1" x="48.59" y="79.78" width="25.14" height="8.87"/><rect class="cls-1" x="48.59" y="98.38" width="25.14" height="8.87"/><rect class="cls-1" x="48.59" y="116.98" width="25.14" height="8.87"/><rect class="cls-1" x="48.59" y="135.58" width="25.14" height="8.87"/><rect class="cls-1" x="48.59" y="154.19" width="25.14" height="8.87"/><rect class="cls-1" x="48.59" y="172.79" width="25.14" height="8.87"/><rect class="cls-1" x="48.59" y="191.39" width="25.14" height="8.87"/><rect class="cls-1" x="48.59" y="209.99" width="25.14" height="8.87"/><rect class="cls-1" x="48.59" y="228.6" width="25.14" height="8.87"/></g><rect class="cls-3" x="104.41" y="80.94" width="70.97" height="43.62"/><rect class="cls-1" x="115.5" y="98.31" width="49.53" height="8.87"/><g><g><path class="cls-1" d="M228.7,244.44v8.58c0,1.06,.87,1.91,1.95,1.91h13.84c1.09,0,1.96-.85,1.96-1.91v-8.58"/><path class="cls-1" d="M244.49,259.36h-13.84c-3.52,0-6.38-2.85-6.38-6.34v-8.58h8.87v6.05h8.87v-6.05h8.87v8.58c0,3.5-2.87,6.34-6.39,6.34Z"/></g><polygon class="cls-1" points="250.86 80.72 241.99 80.72 241.99 77.96 237.56 68.2 233.14 77.96 233.14 80.72 224.27 80.72 224.27 76.04 237.56 46.71 250.86 76.04 250.86 80.72"/><g><rect class="cls-1" x="228.18" y="81.99" width="18.79" height="131.58"/><path class="cls-1" d="M242.54,86.43v122.71h-9.92V86.43h9.92m8.87-8.87h-27.67V218.01h27.67V77.56h0Z"/></g><rect class="cls-2" x="223.74" y="224.81" width="27.67" height="19.65"/></g></svg>