<svg id="Layer_1" data-name="Layer 1" xmlns="http://www.w3.org/2000/svg" viewBox="0 0 300 300"><defs><style>.cls-1{fill:#58d8a5;}.cls-2,.cls-3{fill:#fff;}.cls-2{stroke:#fff;stroke-miterlimit:10;stroke-width:1.5px;}</style></defs><path class="cls-1" d="M272.19,167.1c-.26-3.46-2-6.58-3.72-9.53-5.19-8.78-11.61-17.76-21.05-20.77-13.43-4.27-27.27,5.17-37,15.76S192,175.86,178.79,181c-15.25,5.94-34.19.6-47.09,11-8.58,6.9-11.83,19.42-10,30.57s8.11,21,15.57,29.24c6.48,7.15,14.6,13.55,24,14.29,12.3,1,24.1-8,36.3-6S218,273.9,229.27,278.81c25,10.87,54-9.35,38.89-35.08-5.76-9.78-11.48-14.16-11.51-26.65C256.6,199.64,273.41,183.37,272.19,167.1Z"/><path class="cls-2" d="M126.76,151.09c-24.89-16-25.56-39.13-26.88-85.27l-.11-3.89a3.19,3.19,0,0,0-3.14-3,3,3,0,0,0-2.95,3.14L93.79,66c1.34,46.76,2.09,72.53,29.69,90.22a3,3,0,0,0,1.64.48,3,3,0,0,0,1.64-5.6Z"/><path class="cls-2" d="M270.36,43.89a3,3,0,0,0-2.29-1H234.84a3,3,0,0,0-3,3c0,6.77-5,10.43-10.55,11.48l1-11.21a3,3,0,0,0-.79-2.32,3,3,0,0,0-2.24-1H79.53a3,3,0,0,0-2.24,1,3,3,0,0,0-.79,2.32l1,11.21C72,56.33,67,52.67,67,45.9a3.06,3.06,0,0,0-3-3H30.7a3,3,0,0,0-3,3.43l7.19,56.52a3,3,0,0,0,3,2.66c2.7,0,5.31.1,7.86.28l.89.07c2.46.19,4.86.45,7.14.81h.13c22.62,3.55,28.65,14.55,30.09,21.61s-3.32,15.4-3.37,15.49a3,3,0,0,0,5.26,3.06,39.69,39.69,0,0,0,2.33-5.13Q97,161.86,121,172h-1c7.29,1.48,14.33,3.94,21.73,5.09a5.25,5.25,0,0,1,.57.13c6.49-.31,13-.79,19.35-.49a41.39,41.39,0,0,1,7.55-1.59c20.63-6.5,34.49-17.7,41.38-33.5a39.23,39.23,0,0,0,2.34,5.15,3,3,0,1,0,5.26-3.06c-1.35-2.31-4.58-9.57-3.37-15.49,1.44-7.06,7.46-18.06,30.09-21.61H245c2.28-.36,4.67-.62,7.13-.81l.91-.07c2.55-.18,5.16-.28,7.86-.28a3.05,3.05,0,0,0,3-2.66l7.19-56.52A3.06,3.06,0,0,0,270.36,43.89ZM50.3,100c-3-.33-6.22-.57-9.72-.64L34.15,48.94H44.23l6.5,51.12ZM57,101l-6.62-52H61.13c1.34,8,7.95,13.68,17,14.68l4.5,49.5C77.67,108,69.72,103.33,57,101Zm152.13,22.49c-2.92,25.34-20.3,41.66-51.65,48.51H141.3c-31.35-6.85-48.73-23.17-51.65-48.44L82.87,48.94h133ZM241.77,101c-12.73,2.35-20.68,7-25.59,12.13l4.5-49.5c9-1,15.62-6.71,16.95-14.68H248.4Zm16.42-1.59c-3.5.07-6.69.31-9.72.64l-.44,0,6.5-51.12h10.09Z"/><path class="cls-2" d="M219.24,280.23H162.09l-3.73-104.9c-2,.21-2.47-.16-4.5,0l2.07,104.9h-13.1l4-103.62c-1.6.06-3.2.11-4.79.14-.46,0-3.93,97.5-4.4,97.51l-1,6H79.53a3,3,0,0,0,0,6.09H219.24a3,3,0,0,0,0-6.09Z"/><path class="cls-3" d="M212.64,196.66h26a4,4,0,0,0,0-8h-26a4,4,0,0,0,0,8Z"/><path class="cls-3" d="M238.65,201.66h-44a4,4,0,0,0,0,8h44a4,4,0,0,0,0-8Z"/><path class="cls-3" d="M238.65,201.66h-44a4,4,0,0,0,0,8h44a4,4,0,0,0,0-8Z"/><path class="cls-3" d="M168.65,27.68h2v2a4,4,0,1,0,8,0v-2h2a4,4,0,0,0,0-8h-2v-2a4,4,0,0,0-8,0v2h-2a4,4,0,0,0,0,8Z"/></svg>