<svg id="Layer_1" data-name="Layer 1" xmlns="http://www.w3.org/2000/svg" viewBox="0 0 300 300"><defs><style>.cls-1{fill:#58d8a5;}.cls-2{fill:#fff;}</style></defs><path class="cls-1" d="M142.35,27.38c-7.59-3.68-15.3-9.38-23.55-7.61a21.83,21.83,0,0,0-8.22,4.12C94.47,35.83,87.21,60,97.64,77.15c4,6.6,10.14,11.66,16.53,16,14.1,9.57,31.35,16.38,48,12.93s31.18-20.18,27.37-36.78c-2-8.6-3.82-22.4-10.67-29.92C166.71,26,156.48,34.21,142.35,27.38Z"/><path class="cls-2" d="M164.83,153.74a3.66,3.66,0,0,0,0,7.32h35.95a3.66,3.66,0,0,0,0-7.32Z"/><path class="cls-2" d="M87.51,153.74a3.66,3.66,0,0,0,0,7.32h39a3.66,3.66,0,0,0,0-7.32Z"/><path class="cls-2" d="M254.9,201.54H203.45c-11,0-20.33,4.48-26.85,13-5,6.46-7.82,14.88-8.47,23.95H108.65A10.9,10.9,0,0,1,97.88,227.2a10.78,10.78,0,0,1,10.77-10.77h21.06a18.11,18.11,0,0,0,18.09-18.1V186.78a18.64,18.64,0,0,0,11-5.35,18.88,18.88,0,0,0,3.75-5.57H275.14a3.66,3.66,0,0,0,0-7.32H160a3.66,3.66,0,0,0-3.5,2.59,12.66,12.66,0,0,1-2.94,5.18c-2.25,2.29-5.42,3.46-9.41,3.46s-7.16-1.17-9.41-3.46a12.33,12.33,0,0,1-3-5.18,3.66,3.66,0,0,0-3.5-2.59H13.16a3.66,3.66,0,1,0,0,7.32h112.6a19,19,0,0,0,3.75,5.58,18.68,18.68,0,0,0,11,5.34v11.55a10.8,10.8,0,0,1-10.78,10.78H108.65a18.33,18.33,0,0,0,0,36.65H168c1.38,18.9,13.5,36.91,35.45,36.91H254.9c11,0,20.33-4.48,26.86-13,5.63-7.33,8.74-17.13,8.74-27.6C290.5,222,278.27,201.54,254.9,201.54Zm-58.05,37.33h15.37a3.24,3.24,0,0,1,0,6.48H196.85a3.24,3.24,0,1,1,0-6.48ZM182.4,219a25.59,25.59,0,0,1,21-10.1h12v23.25a10.49,10.49,0,0,0-3.24-.56H196.85a10.54,10.54,0,0,0-9.86,6.9H175.44C176.06,231,178.4,224.17,182.4,219Zm-7,26.8H187a10.53,10.53,0,0,0,9.86,6.9h15.38a10.19,10.19,0,0,0,3.23-.56v23.26h-12C185.5,275.36,176.68,260.63,175.43,245.76ZM276,265.25a25.57,25.57,0,0,1-21,10.11H222.78v-66.5H254.9c19.43,0,28.28,17.23,28.28,33.25C283.18,251,280.61,259.19,276,265.25Z"/><path class="cls-2" d="M132.84,88.54a3.7,3.7,0,0,0,1.82-.48l38.67-22a3.66,3.66,0,0,0,0-6.36l-38.67-22a3.65,3.65,0,0,0-5.47,3.18V84.88A3.64,3.64,0,0,0,131,88,3.59,3.59,0,0,0,132.84,88.54Zm3.66-41.42,27.63,15.73L136.5,78.59Z"/><path class="cls-2" d="M144.15,108.38A45.53,45.53,0,1,0,98.62,62.85,45.57,45.57,0,0,0,144.15,108.38Zm0-83.74a38.21,38.21,0,1,1-38.21,38.21A38.24,38.24,0,0,1,144.15,24.64Z"/><path class="cls-2" d="M239.05,118.52H102.92a13.6,13.6,0,0,0-26.24,0H49.25a3.66,3.66,0,1,0,0,7.32H76.68a13.6,13.6,0,0,0,26.24,0H239.05a3.66,3.66,0,0,0,0-7.32Zm-149.25,10a6.36,6.36,0,1,1,6.36-6.36A6.36,6.36,0,0,1,89.8,128.54Z"/></svg>