<svg id="Layer_1" data-name="Layer 1" xmlns="http://www.w3.org/2000/svg" viewBox="0 0 300 300"><defs><style>.cls-1{fill:#58d8a5;}.cls-2{fill:#fff;}</style></defs><path class="cls-1" d="M150.56,101.24c-23,9.66-47.89,26.4-49.51,52.4-1.07,17.13,9.14,33.43,22.7,43s30,13.29,46.18,15.39c10.22,1.32,20.84,2,30.58-1.5S219,198.38,220.07,187.6s-7.89-22.33-18.09-20.84c14.61-11.75,11.34-38-2.69-50.55S165,102.38,146.86,105.62"/><path class="cls-2" d="M155.27,198a46.37,46.37,0,1,1,46.37-46.37A46.42,46.42,0,0,1,155.27,198Zm0-73.5a27.13,27.13,0,1,0,27.12,27.13A27.16,27.16,0,0,0,155.27,124.52Z"/><path class="cls-2" d="M155.2,56.44a10.39,10.39,0,0,0,10.39-10.39V25.26a10.4,10.4,0,1,0-20.79,0V46.05A10.4,10.4,0,0,0,155.2,56.44Z"/><path class="cls-2" d="M155.2,285.14a10.4,10.4,0,0,0,10.39-10.4V259.15a10.4,10.4,0,1,0-20.79,0v15.59A10.4,10.4,0,0,0,155.2,285.14Z"/><path class="cls-2" d="M25.26,160.4H46.05a10.4,10.4,0,0,0,0-20.8H25.26a10.4,10.4,0,1,0,0,20.8Z"/><path class="cls-2" d="M248.75,150a10.4,10.4,0,0,0,10.4,10.4h15.59a10.4,10.4,0,0,0,0-20.8H259.15A10.4,10.4,0,0,0,248.75,150Z"/><path class="cls-2" d="M232,90.79A9.59,9.59,0,0,0,238.76,88l13.83-13.84A9.62,9.62,0,0,0,239,60.52L225.14,74.36A9.63,9.63,0,0,0,232,90.79Z"/><path class="cls-2" d="M77.54,222,63.7,235.8a9.63,9.63,0,0,0,13.62,13.61l13.83-13.84A9.62,9.62,0,1,0,77.54,222Z"/><path class="cls-2" d="M72.93,88A9.62,9.62,0,0,0,86.54,74.36L72.7,60.52A9.62,9.62,0,0,0,59.09,74.13Z"/><path class="cls-2" d="M234.37,249.41A9.62,9.62,0,1,0,248,235.8L234.14,222a9.62,9.62,0,1,0-13.61,13.61Z"/></svg>