<?xml version="1.0" encoding="UTF-8"?>
<svg id="Layer_1" data-name="Layer 1" xmlns="http://www.w3.org/2000/svg" viewBox="0 0 300 300">
  <defs>
    <style>
      .cls-1 {
        fill: #00d99e;
      }

      .cls-2 {
        fill: #ff571e;
      }

      .cls-3 {
        fill: #8000ff;
      }

      .cls-4 {
        fill: none;
        stroke: #fff;
        stroke-miterlimit: 10;
        stroke-width: 8px;
      }
    </style>
  </defs>
  <path class="cls-1" d="m262.69,98.98c-1.13-1.16-3.25-.12-3.86,1.38s-.3,3.2-.39,4.82c-.17,3.35-2.02,6.78-.76,9.88.61,1.49,1.86,2.63,3.24,3.46,4.03,2.44,9.4,2.47,13.46.07s6.62-7.12,6.42-11.83c-.07-1.75-.56-3.58-1.83-4.78-1.35-1.28-3.32-1.62-5.16-1.9-4.86-.74-9.72-1.49-14.58-2.23"/>
  <path class="cls-3" d="m184.75,33.03c-.74,4.8,1.23,9.93,5,12.99,1.14.93,2.46,1.69,3.9,1.95,2.54.46,5.3-.81,6.62-3.03s1.08-5.26-.55-7.26c-1.06-1.3-2.63-2.17-3.55-3.58-.77-1.19-1.01-2.65-1.66-3.91-1.58-3.08-5.81-4.47-8.9-2.91-1.69,4.09-1.88,8.78-.52,12.99"/>
  <g>
    <g>
      <path class="cls-4" d="m196.41,29.47c3.55-6.11,7.66-9.6,12.04-9.6,13.5,0,24.44,33.16,24.44,74.07s-10.94,74.07-24.44,74.07-24.44-33.16-24.44-74.07c0-18.07,2.13-34.63,5.68-47.48"/>
      <path class="cls-4" d="m270.95,116.91c2.98,5.64,3.7,10.51,1.65,14.06-6.75,11.69-40.94,4.59-76.36-15.87-35.42-20.45-58.67-46.51-51.92-58.2,6.74-11.69,40.93-4.59,76.36,15.87,16.41,9.47,30.2,20.15,39.61,30.04"/>
      <path class="cls-4" d="m172.08,135.01c13.76-2.91,31.03-9.78,48.59-19.92,35.43-20.45,58.67-46.51,51.92-58.2-6.75-11.69-40.94-4.58-76.36,15.87-35.42,20.46-58.67,46.51-51.92,58.2,1.67,2.9,5.03,4.64,9.68,5.31"/>
      <circle class="cls-4" cx="265.98" cy="109.35" r="9.02"/>
      <circle class="cls-4" cx="193.04" cy="37.91" r="9.02"/>
      <circle class="cls-4" cx="163.71" cy="136.42" r="9.02"/>
    </g>
    <path class="cls-4" d="m219.98,93.93c0,6.02-4.88,10.9-10.9,10.9s-10.9-4.88-10.9-10.9,4.88-10.9,10.9-10.9,10.9,4.88,10.9,10.9Z"/>
  </g>
  <g>
    <g>
      <line class="cls-4" x1="252.74" y1="222.05" x2="252.74" y2="143.49"/>
      <path class="cls-4" d="m138.62,79.14H25.76c-3.53,0-6.39,2.87-6.39,6.39v136.51"/>
      <polyline class="cls-4" points="139.83 92.69 33.34 92.69 33.34 208.36 238.76 208.36 238.76 142.89"/>
      <path class="cls-4" d="m19.19,221.91v19.69c0,3.78,3.87,7.98,7.65,7.98h220.05c3.77,0,6.04-3.88,6.04-7.65v-20.01H19.19Z"/>
      <path class="cls-4" d="m172.68,280.13c-2.08-.9-4.58-2.03-6.05-2.84-2.58-1.43-3.09-1.59-4.05-6.46-1.05-5.32-.19-15.93-.59-20.83l-51.78-.26c-.41,4.89.47,15.78-.59,21.09-.96,4.87-1.64,5.03-4.22,6.46-1.46.81-3.92,1.92-5.98,2.81h0"/>
      <line class="cls-4" x1="92.88" y1="280.12" x2="179.22" y2="280.12"/>
    </g>
    <g>
      <path class="cls-4" d="m79.89,177.71c-8.81.74-17.86,2.01-27.46,3.82-4.62.89-8.35,4.15-8.34,7.11-.45,2.73-.08,19.98,0,22.24"/>
      <path class="cls-4" d="m151.45,210.89c.08-1.86.45-19.51,0-22.24,0-2.96-3.72-6.22-8.34-7.11-10.51-1.98-20.35-3.32-29.95-4.01"/>
      <g>
        <path class="cls-4" d="m112.5,190.41c.46-3.27.93-13.18,1.4-16.45,3.06-1.96,5.26-4.85,5.45-7.26.36-3.03.72-6.06,1.07-9.11.43.45,1,.77,1.65.84,1.46.14,2.76-.92,2.9-2.37l1.45-14.02c.15-1.45-.91-2.75-2.36-2.89-.55-.06-1.08.06-1.54.31.31-2.68.62-5.33.92-8,.25-3.66,2.05-13.41-4.99-19.7-10.19-10-32.6-10-42.79,0-7.04,6.29-5.23,16.04-4.99,19.7.31,2.67.62,5.33.92,8-.44-.25-.99-.37-1.54-.31-1.44.15-2.51,1.44-2.35,2.89l1.45,14.02c.14,1.45,1.44,2.51,2.9,2.37.65-.07,1.22-.39,1.64-.84.35,3.05.7,6.08,1.06,9.11.21,2.41,2.41,5.3,5.48,7.26.46,3.27.93,13.17,1.38,16.45l14.15,12.55,16.71-12.55Z"/>
        <path class="cls-4" d="m112.5,190.41c.46-3.27.93-13.18,1.4-16.45,3.06-1.96,5.26-4.85,5.45-7.26.36-3.03.72-6.06,1.07-9.11.43.45,1,.77,1.65.84,1.46.14,2.76-.92,2.9-2.37l1.45-14.02c.15-1.45-.91-2.75-2.36-2.89-.55-.06-1.08.06-1.54.31.31-2.68.62-5.33.92-8,.25-3.66,2.05-13.41-4.99-19.7-10.19-10-32.6-10-42.79,0-7.04,6.29-5.23,16.04-4.99,19.7.31,2.67.62,5.33.92,8-.44-.25-.99-.37-1.54-.31-1.44.15-2.51,1.44-2.35,2.89l1.45,14.02c.14,1.45,1.44,2.51,2.9,2.37.65-.07,1.22-.39,1.64-.84.35,3.05.7,6.08,1.06,9.11.21,2.41,2.41,5.3,5.48,7.26.46,3.27.93,13.17,1.38,16.45l14.15,12.55,16.71-12.55Z"/>
        <polyline class="cls-4" points="103.72 179.23 91.04 179.23 79.87 173.65"/>
      </g>
    </g>
  </g>
  <path class="cls-1" d="m105.89,231.41c-.76-.07-1.52-.1-2.27-.1-3.58,0-7.11.72-10.64,1.3-8.86,1.46-17.84,2.13-26.82,1.99-3.06-.05-6.16-.19-9.09-1.1-2.14-.66-4.13-1.72-6.17-2.64-7.64-3.43-15.98-4.92-24.28-6.06-1.29-.18-2.66-.33-3.83.24-2.41,1.18-.94,4.47-.69,6.46.43,3.39.86,6.79,1.28,10.18.13,1.05.28,2.12.82,3.03,1.76,2.94,10.46,1.98,13.4,1.92,7.46-.15,14.91-.3,22.37-.45,16.66-.34,33.21-.93,49.87-.77,3.01.03,8.94.84,8.85-3.55-.06-2.84-2.71-6.15-4.91-7.73-2.29-1.64-5.07-2.46-7.9-2.72Z"/>
  <path class="cls-2" d="m234.56,194.68c0,2.54-.1,5.32-1.8,7.21-1.75,1.93-4.62,2.28-7.22,2.38-7.87.32-15.71-.24-23.58.49-2.76.25-5.54.61-8.31.42-4.03-.27-7.88-1.68-11.66-3.07-.43-.16-.89-.34-1.15-.71-.21-.31-.25-.69-.26-1.07-.05-4,3.55-7.05,7.11-8.89,5.29-2.73,11.13-4.13,16.96-5.14,5.21-.89,10.33-1.04,14.64-4.5,2.93-2.35,11.2-15.14,15.28-9.09,1.34,1.98.14,6.69.06,8.85-.16,4.37-.07,8.75-.08,13.12Z"/>
</svg>
