<svg id="Layer_1" data-name="Layer 1" xmlns="http://www.w3.org/2000/svg" viewBox="0 0 300 300"><defs><style>.cls-1{fill:#58d8a5;}.cls-2{fill:#fff;}</style></defs><path class="cls-1" d="M145.46,237.23c7.09,7.29,17.51,10.43,27.65,11.26,25.94,2.13,52.61-10,68.08-30.91,50.73-68.6-23.64-94.64-61.7-131.12-31.27-30-47.61-45-91.65-17.54C64.8,83.27,35.1,112.86,55,140.24c15.31,21,51.66,10.16,69,31.29C139.07,189.93,128.08,219.38,145.46,237.23Z"/><path class="cls-2" d="M42.91,51.47h2.21v2.21a4.42,4.42,0,1,0,8.83,0V51.47h2.21a4.42,4.42,0,1,0,0-8.83H54V40.43a4.42,4.42,0,0,0-8.83,0v2.21H42.91a4.42,4.42,0,0,0,0,8.83Z"/><path class="cls-2" d="M254.88,116.92h28.7a4.42,4.42,0,1,0,0-8.83h-28.7a4.42,4.42,0,1,0,0,8.83Z"/><path class="cls-2" d="M36.29,150.83H56.16a4.42,4.42,0,1,0,0-8.83H36.29a4.42,4.42,0,1,0,0,8.83Z"/><path class="cls-2" d="M283.58,122.13H235a4.42,4.42,0,1,0,0,8.83h48.57a4.42,4.42,0,1,0,0-8.83Z"/><path class="cls-2" d="M283.58,122.13H235a4.42,4.42,0,1,0,0,8.83h48.57a4.42,4.42,0,1,0,0-8.83Z"/><path class="cls-2" d="M86.38,82.54a13.13,13.13,0,0,0,5.53,4.76,54.28,54.28,0,0,1-5-4.14,6.55,6.55,0,0,1-.65-.76Z"/><path class="cls-2" d="M277.6,271.56h-6.18l-44.19-83.67a4.22,4.22,0,0,0-1-1.26,13.23,13.23,0,0,0-12.8-10H212V85.32a4.07,4.07,0,0,0-2.13-3.57,6.29,6.29,0,0,1-.63.5l-10.73,7.16h5.31v87.25H182V139.19c0-15-15.74-26.25-29.81-26.25s-29.81,11.23-29.81,26.25v37.47H102.12V92.86A37.63,37.63,0,0,1,94,88.72v87.94H92.49a13.22,13.22,0,0,0-13.21,13.21v1.32a13.18,13.18,0,0,0,1.22,5.51,4,4,0,0,0,0,.5v17.67H67.2a4.41,4.41,0,0,0-4.42,4.41v13.25H45.12A4.42,4.42,0,0,0,40.7,237v13.24H25.25a4.42,4.42,0,0,0,0,8.84H45.12a4.42,4.42,0,0,0,4.42-4.42V241.36H67.2A4.41,4.41,0,0,0,71.62,237V223.7H84.86a4.42,4.42,0,0,0,4.42-4.42V204a13.07,13.07,0,0,0,3.21.41h6.8v67.16H24.56a4.09,4.09,0,1,0,0,8.18h253a4.09,4.09,0,0,0,0-8.18ZM131.23,139.19c0-9.65,11.48-17.42,21-17.42s21,7.77,21,17.42v35.93h-42Zm-38.74,57a5,5,0,0,1-5-5v-1.32a5,5,0,0,1,5-5H213.4a5,5,0,0,1,5,4.3,4.42,4.42,0,0,0-.3,1.34,4.8,4.8,0,0,1-3.24,4.27,4.4,4.4,0,0,0-1.83,1.47ZM118,270H107.47V204.4H118Zm61.74,1.56H126.17V204.4h53.56Zm18.7-1.56H187.91V204.4h10.52Zm8.17,1.56V204.4h6.8c.36,0,.72,0,1.07-.05l35.46,67.21Zm52.53-1.49-36.59-69.36a12.87,12.87,0,0,0,1-1l37.16,70.36Z"/><path class="cls-2" d="M60.58,161.87a4.42,4.42,0,0,0-4.42-4.41H16.42a4.42,4.42,0,1,0,0,8.83H56.16A4.42,4.42,0,0,0,60.58,161.87Z"/><path class="cls-2" d="M196.7,42.76a26.69,26.69,0,0,0-16.56,2.39A36.8,36.8,0,0,0,110.59,45,24.89,24.89,0,0,0,81,65c-5.49,31.27,34.5,31.44,55,32q24.69.63,49.38-.36c16.82-.67,29.85-4,33.13-22.68A26.89,26.89,0,0,0,196.7,42.76Zm-4.87,42.08-1.24.11a431.83,431.83,0,0,1-79-.27c-4.91-.47-9.95-1.06-14.29-3.38C82,73.11,92.36,50.93,108.19,53.7a16.16,16.16,0,0,1,3.69,1.15,4.52,4.52,0,0,0,6.26-3.24,27.73,27.73,0,0,1,54.65,1.52,4.55,4.55,0,0,0,2.92,3.6,5,5,0,0,0,.78.21,4.56,4.56,0,0,0,3.77-1.06c19-16.79,45.8,15.5,23.44,26.24C200,83.88,195.91,84.46,191.83,84.84Z"/></svg>