<svg id="Layer_1" data-name="Layer 1" xmlns="http://www.w3.org/2000/svg" viewBox="0 0 300 300"><defs><style>.cls-1{fill:#ff571e;}.cls-2{fill:none;stroke:#14008f;stroke-miterlimit:10;stroke-width:4.32px;}.cls-3{fill:#14008f;}</style></defs><path class="cls-1" d="M133.53,227.06c8.69-1.6,19.4.41,27.31-1.25,11.37-2.39,24.47-3,34.29-10,4.91-3.5,8.81-8.46,14.26-11,9.55-4.54,21.46-.26,28.69,7.45s13.62,18,10,28.24C244.43,251,232.88,258.93,222,259.34c-7.62.29-15-2.37-22.51-3.71-19.31-3.47-39,1.77-58.65,2.15-4.8.09-9.84-.17-14-2.58-8.92-5.18-9-20.38-.19-25.69A20.66,20.66,0,0,1,133.53,227.06Z"/><path class="cls-2" d="M204.32,115.05c-2.95,29.82-14.33,69.08-52.91,69.09-45.94,0-56-58-54.94-90.53A54.37,54.37,0,0,1,98.2,80.79c5.43-19.29,32.62-34.73,53.17-34.74,26.89,0,49.8,16.89,53.4,42.47.89,6.31.52,12.72.14,19.08C204.77,110,204.58,112.49,204.32,115.05Zm-85.27,82.77c-14.57,1.48-33.09,1-46,8.65-14.48,8.6-21.22,32.94-28.76,47.48h.58l210.88-.08c-7.55-14.52-14.31-38.86-28.79-47.46-12.94-7.67-31.46-7.14-46-8.61l-2.2-22.49,2.69,22.49c-28.26,36-62.35,0-62.35,0l5.21-22.5"/><circle class="cls-2" cx="126.23" cy="104.81" r="24.45"/><circle class="cls-2" cx="175.86" cy="104.81" r="24.45"/><line class="cls-2" x1="126.23" y1="105.17" x2="175.86" y2="105.17"/><path class="cls-3" d="M118.32,103.73a10.79,10.79,0,1,0,21.58,0Z"/><path class="cls-3" d="M161.47,103.73a10.79,10.79,0,0,0,21.58,0Z"/></svg>