<?xml version="1.0" encoding="UTF-8"?><svg id="Layer_1" xmlns="http://www.w3.org/2000/svg" viewBox="0 0 300 300"><defs><style>.cls-1{fill:#00dba0;}.cls-2{fill:#fff;}.cls-3{fill:#ff6b45;}.cls-4{fill:#8100ff;}.cls-5{fill:#74829c;}</style></defs><g id="_1550_Data_Document_Page_Report"><g><rect class="cls-5" x="181.95" y="128.18" width="43.2" height="19.11"/><rect class="cls-1" x="181.95" y="89.95" width="43.2" height="19.12"/><rect class="cls-1" x="181.95" y="51.71" width="43.2" height="19.12"/><path class="cls-4" d="M162.84,89.95h-38.23V51.71c21.03,0,38.23,17.2,38.23,38.23Z"/><path class="cls-3" d="M110.07,104.47h38.23c0,21.03-17.2,38.23-38.23,38.23s-38.23-17.2-38.23-38.23,17.2-38.23,38.23-38.23v38.23Z"/><path class="cls-2" d="M205.65,266.97H52.72c-2.67,0-4.97-2.3-4.97-4.97V32.6c0-2.68,2.3-4.97,4.97-4.97H243.89c2.68,0,4.97,2.29,4.97,4.97V223.76c0,2.68-2.3,4.97-4.97,4.97h-33.64v33.64c.38,2.29-1.91,4.59-4.59,4.59Zm-147.96-9.56H201.07v-33.65c0-2.67,2.29-4.97,4.97-4.97h33.64V37.57H57.69v219.84Z"/><path class="cls-2" d="M205.65,266.97c-1.15,0-2.29-.38-3.44-1.53-1.91-1.91-1.91-4.97,0-6.88l38.23-38.23c1.91-1.91,4.97-1.91,6.88,0s1.91,4.97,0,6.88l-38.23,38.23c-1.15,.77-2.29,1.53-3.44,1.53Z"/><path class="cls-2" d="M110.07,147.29c-23.7,0-43.2-19.11-43.2-43.2s19.5-42.82,43.2-42.82c2.68,0,4.97,2.29,4.97,4.97v33.26h33.64c2.68,0,4.97,2.29,4.97,4.97-.38,23.71-19.88,42.82-43.59,42.82Zm-4.58-76.08c-16.06,2.29-28.67,16.44-28.67,33.26,0,18.35,14.91,33.65,33.64,33.65,16.82,0,30.97-12.62,33.26-28.67h-33.26c-2.68,0-4.97-2.29-4.97-4.97v-33.26Z"/><path class="cls-2" d="M162.84,94.92h-38.23c-2.68,0-4.97-2.29-4.97-4.97V51.71c0-2.68,2.3-4.97,4.97-4.97,23.7,0,43.2,19.12,43.2,43.2-.38,2.68-2.68,4.97-4.97,4.97Zm-33.65-9.56h28.29c-1.91-14.53-13.76-26.38-28.29-28.29v28.29Z"/><path class="cls-1" d="M224.77,152.27h-42.82c-2.68,0-4.97-2.3-4.97-4.97v-19.11c0-2.68,2.3-4.97,4.97-4.97h43.2c2.68,0,4.97,2.29,4.97,4.97v19.11c-.38,2.68-2.68,4.97-5.35,4.97Zm-38.23-9.56h33.65v-9.56h-33.65v9.56Z"/><path class="cls-2" d="M81.4,204.64c-1.15,0-2.29-.38-3.44-1.53l-9.56-9.56c-1.91-1.91-1.91-4.97,0-6.88s4.97-1.91,6.88,0l6.12,6.12,30.21-30.21c1.91-1.91,4.97-1.91,6.88,0,1.91,1.91,1.91,4.97,0,6.89l-33.64,33.64c-1.15,1.15-2.29,1.53-3.44,1.53Z"/><path class="cls-2" d="M81.4,247.85c-1.15,0-2.29-.38-3.44-1.53l-9.56-9.56c-1.91-1.91-1.91-4.97,0-6.88s4.97-1.91,6.88,0l6.12,6.12,30.21-30.2c1.91-1.91,4.97-1.91,6.88,0s1.91,4.97,0,6.88l-33.64,33.64c-1.15,.77-2.29,1.53-3.44,1.53Z"/><path class="cls-2" d="M224.77,171.38h-95.58c-2.67,0-4.97-2.3-4.97-4.97s2.3-4.97,4.97-4.97h95.58c2.68,0,4.97,2.3,4.97,4.97s-2.3,4.97-4.97,4.97Z"/><path class="cls-2" d="M224.77,190.5h-95.58c-2.67,0-4.97-2.3-4.97-4.97s2.3-4.97,4.97-4.97h95.58c2.68,0,4.97,2.3,4.97,4.97s-2.3,4.97-4.97,4.97Z"/><path class="cls-2" d="M224.77,209.62h-95.58c-2.67,0-4.97-2.3-4.97-4.97s2.3-4.97,4.97-4.97h95.58c2.68,0,4.97,2.3,4.97,4.97s-2.3,4.97-4.97,4.97Z"/><path class="cls-2" d="M186.54,228.73h-57.35c-2.67,0-4.97-2.3-4.97-4.97s2.3-4.97,4.97-4.97h57.35c2.68,0,4.97,2.3,4.97,4.97s-2.3,4.97-4.97,4.97Z"/><path class="cls-2" d="M186.54,247.85h-57.35c-2.67,0-4.97-2.3-4.97-4.97s2.3-4.97,4.97-4.97h57.35c2.68,0,4.97,2.3,4.97,4.97s-2.3,4.97-4.97,4.97Z"/></g></g></svg>