<svg id="Layer_1" data-name="Layer 1" xmlns="http://www.w3.org/2000/svg" viewBox="0 0 300 300"><defs><style>.cls-1{fill:#58d8a5;}.cls-2{fill:#fff;}</style></defs><path class="cls-1" d="M261.74,114.79c2.9-8.54-5.26-16.4-11.14-21.28-7.92-6.57-16.14-13.17-24.89-18.61-4.42-2.76-17.16-6.68-20.29.15a9.62,9.62,0,0,0-.51,4.34,99.52,99.52,0,0,1-1.86,22.25,4.37,4.37,0,0,1-.82,2.08,4.48,4.48,0,0,1-3.25,1.06q-55.71,2.77-111.18,9c-9.06,1-18.4,2.19-26.28,6.77-5.45,3.16-10,7.86-15.85,10.24-2.73,1.11-5.68,1.68-8.35,3s-5.14,3.49-5.6,6.41l38,1.24a20.88,20.88,0,0,0,6.88-.53c5.13-1.57,8.26-6.68,12.76-9.58,6.07-3.91,13.85-3.42,21-2.85q46.69,3.75,93.56,4.72c-2.72,3.39-5.47,8.3-2.75,11.68,3.6,4.48,19.16.9,23.55-1.11a23.67,23.67,0,0,1,3.54-1.48c1.24-.33,2.54-.36,3.8-.59,5.83-1,12.81-8.17,17.34-11.89C254.17,125.81,259.69,120.84,261.74,114.79Z"/><rect class="cls-2" x="130.79" y="136.99" width="9.6" height="67.23"/><rect class="cls-2" x="130.79" y="50.55" width="9.6" height="38.42"/><rect class="cls-2" x="150" y="50.55" width="9.6" height="38.42"/><rect class="cls-2" x="150" y="136.99" width="9.6" height="67.23"/><rect class="cls-2" x="130.79" y="225.3" width="9.6" height="67.23"/><rect class="cls-2" x="150" y="225.3" width="9.6" height="67.23"/><rect class="cls-2" x="111.45" y="283.07" width="67.23" height="9.6"/><path class="cls-2" d="M145.2,55.35a24,24,0,1,1,24-24A24,24,0,0,1,145.2,55.35Zm0-38.42a14.41,14.41,0,1,0,14.4,14.41A14.42,14.42,0,0,0,145.2,16.93Z"/><path class="cls-2" d="M212.43,161a4.79,4.79,0,0,1-4.8-4.8V141.79H104L95.77,150a4.81,4.81,0,0,1-3.4,1.41H34.74a4.8,4.8,0,0,1-3.64-7.93L57.23,113,31.1,82.48a4.79,4.79,0,0,1,3.64-7.92H92.37a4.8,4.8,0,0,1,3.4,1.4l8.19,8.2H207.63V69.75A4.8,4.8,0,0,1,215.47,66l52.83,43.22a4.81,4.81,0,0,1,0,7.44l-52.83,43.22A4.81,4.81,0,0,1,212.43,161ZM102,132.19H212.43a4.79,4.79,0,0,1,4.8,4.8v9.07L257.67,113,217.23,79.89V89a4.8,4.8,0,0,1-4.8,4.81H102a4.81,4.81,0,0,1-3.4-1.41l-8.2-8.2H45.18l22,25.69a4.81,4.81,0,0,1,0,6.25l-22,25.69h45.2l8.2-8.2A4.8,4.8,0,0,1,102,132.19Z"/><rect class="cls-2" x="140.39" y="108.17" width="9.6" height="9.6"/><rect class="cls-2" x="159.6" y="108.17" width="9.6" height="9.6"/><rect class="cls-2" x="121.19" y="108.17" width="9.6" height="9.6"/><path class="cls-2" d="M123.84,208.52,82.77,188v11.44H73.16V180.21a4.81,4.81,0,0,1,7-4.3l48,24Z"/><path class="cls-2" d="M212.43,252.25a4.79,4.79,0,0,1-2.15-.51l-48-24,4.29-8.59,41.07,20.52V228.23h9.6v19.21a4.8,4.8,0,0,1-2.28,4.09A4.75,4.75,0,0,1,212.43,252.25Z"/><path class="cls-2" d="M78,252.25a4.81,4.81,0,0,1-4.8-4.81V228.23h9.61v11.44l41.07-20.53,4.3,8.59-48,24A4.79,4.79,0,0,1,78,252.25Z"/><path class="cls-2" d="M166.55,208.52l-4.29-8.59,48-24a4.81,4.81,0,0,1,6.95,4.3v19.21h-9.6V188Z"/><path class="cls-2" d="M164.41,228.23H126a4.79,4.79,0,0,1-4.8-4.8V204.22a4.79,4.79,0,0,1,4.8-4.8h38.42a4.8,4.8,0,0,1,4.8,4.8v19.21A4.79,4.79,0,0,1,164.41,228.23Zm-33.62-9.6H159.6V209H130.79Z"/></svg>