<?xml version="1.0" encoding="UTF-8"?>
<svg id="Layer_1" data-name="Layer 1" xmlns="http://www.w3.org/2000/svg" viewBox="0 0 300 300">
  <defs>
    <style>
      .cls-1 {
        fill: #00d99e;
      }

      .cls-2 {
        fill: #ff6b45;
      }

      .cls-3 {
        fill: none;
        stroke: #fff;
        stroke-miterlimit: 10;
        stroke-width: 4px;
      }
    </style>
  </defs>
  <path class="cls-1" d="m120.83,231.07c-2.6.04-5.21.07-7.81.11-2.25.03-4.51.06-6.76.09-2.26.03-4.52.06-6.77.09-1.36.02-2.77.05-4,.63-1.23.58-2.15,1.66-2.83,2.84-1.66,2.84-2.08,6.21-2.39,9.48-1.16,12.08-1.38,24.34.81,36.28.25,1.36.61,2.84,1.72,3.67.72.54,1.65.71,2.54.87,3.58.62,7.47,1.2,10.69-.48,3.81-1.98,5.5-6.48,6.39-10.67.75-3.53,1.16-7.16.83-10.76-.24-2.6-.87-5.19-.67-7.8.47-6.21,5.38-11.03,9.97-15.24,1.15-1.05,2.33-2.12,3.75-2.75,1.05-.46,2.2-.67,3.35-.8,5.43-.62,10.9.28,16.36.67,2.29.16,7.81-.97,5.42-4.5-1.34-1.99-5.05-2.49-7.21-2.36-7.79.45-15.58.51-23.38.62Z"/>
  <g>
    <rect class="cls-3" x="89.68" y="230" width="122" height="124" rx="11.98" ry="11.98"/>
    <path class="cls-3" d="m242.87,86.09c16.67,0,30.3,13.65,30.3,30.32,0,8.34-3.42,15.91-8.9,21.41-5.5,5.5-13.07,8.9-21.41,8.9H57.15c-16.67,0-30.32-13.63-30.32-30.3,0-8.34,3.42-15.91,8.92-21.41,5.5-5.5,13.07-8.92,21.41-8.92h185.72Zm-121.4,33.94c.28-1.04.46-2.14.46-3.28,0-6.62-5.36-11.97-11.97-11.97s-11.95,5.36-11.95,11.97c0,1.14.16,2.24.46,3.28h23.01Zm80,.47c.28-1.04.46-2.14.46-3.28,0-6.62-5.36-11.97-11.97-11.97s-11.95,5.36-11.95,11.97c0,1.14.16,2.24.46,3.28h23.01Z"/>
    <g>
      <path class="cls-3" d="m97.85,153.16v3.36c0,23.77,16.53,43.86,38.66,49.35,3.9.96,7.98,1.48,12.17,1.48h2.64c4.2,0,8.3-.52,12.19-1.5,22.13-5.5,38.64-25.57,38.64-49.33v-9.79h-104.31v6.44Z"/>
      <path class="cls-3" d="m151.32,25.46h-2.64c-27.95,0-50.83,22.87-50.83,50.83v9.79h104.31v-9.79c0-27.97-22.87-50.83-50.83-50.83Z"/>
    </g>
    <path class="cls-3" d="m136.49,175.83c.24-.61,1.07-2.82,1.81-2.83.61,0,1.71,1.78,2.03,2.23,1.16,1.62,2.1,3.47,3.71,4.71.87.67,1.88,1.11,2.9,1.5,1.4.54,2.85.98,4.34,1.18,1.48.2,2.99.15,4.46-.13.97-.19,2.85-1.29,3.72-1.05-.02,1.08-.37,2.24-.77,3.25-2.45,6.14-9.39,9.14-15.54,6.69s-9.12-9.4-6.67-15.55Z"/>
    <rect class="cls-3" x="136.51" y="224" width="27.01" height="5.48"/>
    <path class="cls-3" d="m163.51,212.37v11.63h-27.01v-11.63c3.88.84,7.88,1.26,11.99,1.26h3.02c4.1,0,8.12-.42,11.99-1.26Z"/>
    <path class="cls-3" d="m163.51,205.85v6.52c-3.88.84-7.9,1.26-11.99,1.26h-3.02c-4.12,0-8.12-.42-11.99-1.26v-6.5c3.9.96,7.98,1.48,12.17,1.48h2.64c4.2,0,8.3-.52,12.19-1.5Z"/>
    <path class="cls-3" d="m151.78,269.34c-.16,1.66-.34,3.1-.54,4.2h-2.18c-.2-1.1-.38-2.54-.54-4.2-1.74-.26-3.36-.94-4.72-1.96-1.28,1.08-2.42,1.96-3.36,2.6l-1.54-1.54c.64-.94,1.52-2.08,2.6-3.36-1.02-1.36-1.7-2.98-1.96-4.72-1.66-.16-3.1-.34-4.2-.54v-2.18c1.1-.2,2.54-.38,4.2-.54.26-1.74.94-3.36,1.96-4.72-1.08-1.28-1.96-2.42-2.6-3.36l1.54-1.54c.94.64,2.08,1.52,3.36,2.6,1.36-1.02,2.98-1.7,4.72-1.96.16-1.66.34-3.1.54-4.2h2.18c.2,1.1.38,2.54.54,4.2,1.74.26,3.36.94,4.72,1.96,1.28-1.08,2.42-1.96,3.36-2.6l1.54,1.54c-.64.94-1.52,2.08-2.6,3.36,1.02,1.36,1.7,2.98,1.96,4.72,1.66.16,3.1.34,4.2.54v2.18c-1.1.2-2.54.38-4.2.54-.26,1.74-.94,3.36-1.96,4.72,1.08,1.28,1.96,2.42,2.6,3.36l-1.54,1.54c-.94-.64-2.08-1.52-3.36-2.6-1.36,1.02-2.98,1.7-4.72,1.96Zm2.12-10.59c0-2.08-1.68-3.76-3.74-3.76s-3.76,1.68-3.76,3.76,1.68,3.74,3.76,3.74,3.74-1.68,3.74-3.74Z"/>
    <g>
      <circle class="cls-3" cx="107.55" cy="119.8" r="41.8"/>
      <circle class="cls-3" cx="192.38" cy="119.8" r="41.8"/>
      <line class="cls-3" x1="98.68" y1="120.5" x2="201.68" y2="120.5"/>
    </g>
    <path class="cls-3" d="m178.57,120.05c-.39-1.01-.49-2.21-.49-3.3,0-6.61,5.34-11.97,11.95-11.97s11.95,5.36,11.95,11.97c0,.66.05,3.01-.63,3.3"/>
    <path class="cls-3" d="m121.93,116.76c0,1.14-.18,2.24-.46,3.28h-23.01c-.3-1.04-.46-2.14-.46-3.28,0-6.62,5.36-11.97,11.95-11.97s11.97,5.36,11.97,11.97Z"/>
  </g>
  <path class="cls-2" d="m110.81,50.65c-1.21,1.63-2.35,3.37-2.83,5.34s-.17,4.24,1.23,5.7c1.88,1.97,5.22,1.89,7.52.45s3.75-3.93,4.79-6.44,1.79-5.16,3.16-7.51c1.27-2.18,3.06-4.04,5.14-5.46,1.64-1.12,5.83-1.9,6.85-3.48,1.62-2.51-.76-3.12-3.35-3.54-9.47-1.55-17.49,8.18-22.52,14.96Z"/>
</svg>