<svg id="Layer_1" data-name="Layer 1" xmlns="http://www.w3.org/2000/svg" viewBox="0 0 300 300"><defs><style>.cls-1{fill:#58d8a5;}.cls-2{fill:#fff;stroke:#fff;stroke-miterlimit:10;stroke-width:1.61px;}</style></defs><path class="cls-1" d="M83.53,267.19c12.17,1.46,25,1.42,36-4,13.91-6.81,22-21.83,10.17-34.81-5.31-5.8-12.81-9.07-20.29-11.47-23-7.4-47.54-8.09-71.7-8.71-2.81-.08-6,0-7.82,2.21a8.19,8.19,0,0,0-1.41,3.14A39.22,39.22,0,0,0,34.92,247C45.6,261.17,66.87,265.19,83.53,267.19Z"/><path class="cls-2" d="M280.52,234.26c-7.09-13.52-60-119.1-67.58-134.23V55.86a15.57,15.57,0,0,0,15.34-15.25v-.42a15.58,15.58,0,0,0-15.56-15.27H155a15.59,15.59,0,0,0-15.56,15.27v.42a15.57,15.57,0,0,0,15.34,15.25V100c-2.37,4.73-9.17,18.3-17.62,35.14a76.91,76.91,0,0,0-23.1-11.55c0-.07,0-.12,0-.19V90.89a12.32,12.32,0,0,0,11.37-12v-.35a12.35,12.35,0,0,0-12.34-12.1H70.4a12.34,12.34,0,0,0-12.33,12.1.49.49,0,0,0,0,.12v.11a.49.49,0,0,0,0,.12,12.31,12.31,0,0,0,11.36,12v32.54a1.29,1.29,0,0,0,0,.19A77.37,77.37,0,0,0,91.78,275.08c2.3,0,4.57-.15,6.83-.35a25,25,0,0,0,4.12.35H265c10.45,0,15.43-5.65,17.48-9C287.28,258.15,286.5,245.67,280.52,234.26ZM145.72,40.4A9.33,9.33,0,0,1,155,31.17h57.69a9.23,9.23,0,1,1,0,18.46H155A9.33,9.33,0,0,1,145.72,40.4Zm15,61.77a3.1,3.1,0,0,0,.33-1.4V55.88h45.63v44.89a3.1,3.1,0,0,0,.33,1.4c4.19,8.37,30.53,60.92,49.35,98.3h-87.2V183.08h16a3.13,3.13,0,1,0,0-6.26h-16V159.44H188a3.13,3.13,0,1,0,0-6.26H166a3.13,3.13,0,0,0-3.13,3.13v10.95a77.65,77.65,0,0,0-20.7-28.14C151.36,120.88,158.69,106.25,160.73,102.17ZM99,268.46a12,12,0,0,1-8.35-5.64c-3.61-6-2.73-16.29,2.18-25.65,2-3.93,7.94-15.55,15.45-30.45h54A71.21,71.21,0,0,1,99,268.46Zm64-70.77c0,.94-.1,1.85-.14,2.78H111.38c8.69-17.24,19-37.68,27.92-55.56A70.93,70.93,0,0,1,162.91,197.69ZM64.32,78.7a6.09,6.09,0,0,1,6.08-6h42.75a6,6,0,1,1,0,12H70.4A6.09,6.09,0,0,1,64.32,78.7ZM75.68,91h32.19v31a77,77,0,0,0-32.19,0Zm16.1,35.58a70.71,70.71,0,0,1,42.57,14.28c-9.61,19.14-20.81,41.45-30,59.63H20.78c0-.93-.14-1.84-.14-2.78A71.22,71.22,0,0,1,91.78,126.56Zm-70.5,80.16h80c-6.81,13.49-12.08,23.89-14,27.54-6,11.41-6.77,23.89-2,31.79a18.23,18.23,0,0,0,1.88,2.54A71.16,71.16,0,0,1,21.28,206.72Zm255.87,56.1c-2.41,4-6.49,6-12.12,6H122.21a77.84,77.84,0,0,0,40.7-40.7v22.75A3.13,3.13,0,0,0,166,254h22a3.13,3.13,0,1,0,0-6.25H169.17V230.37h16a3.13,3.13,0,1,0,0-6.26h-16V206.72h90.35c7.52,14.9,13.4,26.52,15.46,30.45C279.89,246.53,280.76,256.84,277.15,262.82Z"/><path class="cls-2" d="M155.8,137a3.18,3.18,0,0,0,1.4.32,3.1,3.1,0,0,0,2.79-1.72l12.53-25a3.1,3.1,0,0,0,.33-1.4v-44a3.13,3.13,0,1,0-6.25,0v43.26l-12.19,24.33A3.12,3.12,0,0,0,155.8,137Z"/><path class="cls-2" d="M31.74,189a3.81,3.81,0,0,0,.74.08,3.13,3.13,0,0,0,3-2.39,60,60,0,0,1,32.88-40A3.13,3.13,0,1,0,65.78,141a66.3,66.3,0,0,0-36.34,44.18A3.13,3.13,0,0,0,31.74,189Z"/></svg>