<svg id="Layer_1" data-name="Layer 1" xmlns="http://www.w3.org/2000/svg" viewBox="0 0 300 300"><defs><style>.cls-1{fill:#8000ff;}.cls-2{fill:none;}.cls-3{fill:#14008f;}.cls-4{fill:#00d99e;}.cls-5{fill:#ff571e;}</style></defs><g id="_1540_Data_File_Page_Paper_Report" data-name="1540, Data, File, Page, Paper, Report"><path class="cls-1" d="M130.79,128.76c-6.31-1.27-12.73-2.44-18.41-6.8-8.49-6.52-13.61-18.09-10.39-28.3,2.42-7.68,9.06-13.46,16.42-16.72s15.48-4.33,23.48-5.29c3.58-.43,7.28-.87,10.43-2.64,2.81-1.58,5-4.08,7.32-6.29a43.5,43.5,0,0,1,36.44-11c2.7.46,5.61,1.34,7.11,3.64a11.31,11.31,0,0,1,1.4,4.87l4.73,36.46c1,7.72-4.82,14.68-8.36,21.25-2.16,4-5.46,7.27-8.73,10.45-5.31,5.15-10.9,10.4-17.91,12.78-12.46,4.25-20.95-3.44-31.09-8.65C139.32,130.54,135.08,129.62,130.79,128.76Z"/><polygon class="cls-2" points="72.58 43.6 72.58 241.71 204.65 241.71 237.67 208.69 237.67 43.6 72.58 43.6"/><path class="cls-3" d="M204.65,246H72.58a4.37,4.37,0,0,1-4.29-4.29V43.6a4.37,4.37,0,0,1,4.29-4.29H237.67A4.37,4.37,0,0,1,242,43.6V208.69a4.37,4.37,0,0,1-4.29,4.29H208.61V242C209,244,207,246,204.65,246ZM76.88,237.75H200.69V208.69A4.37,4.37,0,0,1,205,204.4H234V47.89H76.88Z"/><path class="cls-3" d="M204.65,246a4,4,0,0,1-3-1.32,4.18,4.18,0,0,1,0-5.94l33-33a4.2,4.2,0,0,1,5.94,5.94l-33,33A5.93,5.93,0,0,1,204.65,246Z"/><path class="cls-4" d="M97.34,192.18a4,4,0,0,1-3-1.32l-8.25-8.25a4.2,4.2,0,1,1,5.94-6l5.28,5.28,26.09-26.08a4.2,4.2,0,0,1,5.94,5.94l-29.05,29.06A4,4,0,0,1,97.34,192.18Z"/><path class="cls-4" d="M97.34,229.49a4,4,0,0,1-3-1.32l-8.25-8.26A4.2,4.2,0,0,1,92.06,214l5.28,5.28,26.09-26.08a4.2,4.2,0,1,1,5.94,5.94l-29.05,29.06A5.92,5.92,0,0,1,97.34,229.49Z"/><path class="cls-5" d="M221.16,163.46H142.91a4.3,4.3,0,0,1,0-8.59h78.58a4.37,4.37,0,0,1,4.29,4.29A4.68,4.68,0,0,1,221.16,163.46Z"/><path class="cls-5" d="M221.16,180H142.91a4.29,4.29,0,1,1,0-8.58h78.58a4.37,4.37,0,0,1,4.29,4.29A4.67,4.67,0,0,1,221.16,180Z"/><path class="cls-5" d="M221.16,196.47H142.91a4.29,4.29,0,0,1,0-8.58h78.58a4.37,4.37,0,0,1,4.29,4.29A4.92,4.92,0,0,1,221.16,196.47Z"/><path class="cls-5" d="M188.14,213H142.91a4.29,4.29,0,1,1,0-8.58h45.56a4.37,4.37,0,0,1,4.3,4.29A4.94,4.94,0,0,1,188.14,213Z"/><path class="cls-5" d="M188.14,229.49H142.91a4.3,4.3,0,0,1,0-8.59h45.56a4.38,4.38,0,0,1,4.3,4.3A4.94,4.94,0,0,1,188.14,229.49Z"/><path class="cls-3" d="M221.16,90H89.09a4.38,4.38,0,0,1-4.29-4.3V69.14a4.37,4.37,0,0,1,4.29-4.29H221.16a4.38,4.38,0,0,1,4.3,4.29V85.65A4.39,4.39,0,0,1,221.16,90ZM93.38,81.69H217.2V73.44H93.38Z"/></g></svg>