<?xml version="1.0" encoding="UTF-8"?><svg id="Layer_1" xmlns="http://www.w3.org/2000/svg" viewBox="0 0 300 300"><defs><style>.cls-1{fill:#00dba0;}.cls-2{fill:#ff571e;}.cls-3{fill:#fff;}</style></defs><path class="cls-1" d="M46.14,238.02c-2.44-.81-4.79-1.84-7.05-3.12-2.68-1.52-5.23-3.43-6.86-6.04-1.63-2.61-2.21-6.02-.91-8.81,1.28-2.74,4.13-4.52,5.33-7.29,3.13-7.19-7.67-16.5-1.96-23.03,4.8-5.49,24.16-2.09,30.77-2.13,24.57-.17,49.13-.54,73.7-.54,0,0,0,52.03,0,52.03-12.6,0-25.2,0-37.8,0-17.28,0-38.15,4.66-55.23-1.05Z"/><g><path class="cls-2" d="M55.9,44.45c1.36-4.75,3.26-7.48,5.85-7.2,3.23,.35,5.14,4.01,8.24,4.99,3.58,1.14,7.24-1.67,9.34-4.79,2.1-3.12,3.56-6.83,6.57-9.07,3.02-2.24,8.43-1.77,9.35,1.88,3.29-1.6,3.28-7.9,6.94-7.84,2.85,.05,3.52,3.99,3.27,6.84-.85,9.77,2.67,112.27,1.18,112.27,0,0-52.03,0-52.03,0,0-9.94-5.03-75.1,1.28-97.07Z"/><g><path class="cls-3" d="M57.87,235.82h6.5c0,3.59,2.91,6.49,6.5,6.49h6.5c0,3.6,2.91,6.51,6.5,6.51s6.5-2.91,6.5-6.5c0,3.95,3.52,7.08,7.6,6.41,3.2-.52,5.41-3.52,5.41-6.76v-58.18h19.51v-7.06c0-1.72-.69-3.38-1.9-4.6l-17.61-17.61v-9.76H57.87l-6.5,42.27v42.27c0,3.59,2.91,6.5,6.5,6.5Z"/><path class="cls-3" d="M83.89,252.08c-5.38,0-9.76-4.38-9.76-9.76h6.5c0,1.79,1.46,3.25,3.25,3.25s3.25-1.46,3.25-3.25h6.5c0,5.38-4.38,9.76-9.76,9.76Z"/><path class="cls-3" d="M77.38,245.56h-6.5c-5.38,0-9.76-4.37-9.76-9.75v-16.26h6.5v16.26c0,1.79,1.46,3.24,3.25,3.24h6.5v6.5Z"/><rect class="cls-3" x="74.13" y="226.06" width="6.5" height="16.26"/><path class="cls-3" d="M96.88,252.07c-.53,0-1.07-.04-1.6-.13-4.64-.76-8.14-5.04-8.14-9.97v-15.91h6.5v15.91c0,1.75,1.18,3.31,2.68,3.55,.99,.15,1.94-.1,2.68-.73,.73-.62,1.15-1.52,1.15-2.48v-61.78h19.51v-3.81c0-.87-.34-1.69-.95-2.3l-18.56-18.56v-7.85H60.66l-6.04,39.27v42.02c0,1.79,1.46,3.25,3.25,3.25h6.5v6.5h-6.5c-5.38,0-9.76-4.38-9.76-9.76l.04-42.77,6.93-45.03h51.56v11.66l16.65,16.65c1.84,1.84,2.86,4.29,2.86,6.9v10.31h-19.51v55.28c0,2.87-1.25,5.57-3.44,7.43-1.78,1.51-4.02,2.32-6.33,2.32Z"/></g></g><g><path class="cls-1" d="M249.69,58.93c2.48,.04,4.97,.07,7.45,.07,2.91,0,5.95-.1,8.55,1.18,2.61,1.28,4.54,4.49,3.34,7.13-1.22,2.69-4.7,3.3-7.63,3.65-2.94,.35-6.43,1.26-7.29,4.09-1.5,4.97,6.86,8.74,5.71,13.8-.65,2.87-3.97,4.13-6.84,4.79-2.87,.66-6.2,1.54-7.32,4.26-.88,2.15,.01,4.68-.68,6.9-1.14,3.66-5.76,4.73-9.59,4.84-6.63,.2-83.23-1.43-83.23-.65,0,0,0-52.03,0-52.03h38.37c19.76,0,39.48,1.61,59.15,1.96Z"/><g><path class="cls-3" d="M57.87,60.23v6.5c-3.59,0-6.49,2.91-6.49,6.5v6.5c-3.6,0-6.51,2.91-6.51,6.5s2.91,6.5,6.5,6.5c-3.95,0-7.08,3.52-6.41,7.6,.52,3.2,3.52,5.41,6.76,5.41h58.18v19.51h7.06c1.72,0,3.38-.69,4.6-1.9l17.61-17.61h9.76V60.23l-42.27-6.5h-42.27c-3.59,0-6.5,2.91-6.5,6.5Z"/><path class="cls-3" d="M51.37,96c-5.38,0-9.76-4.38-9.76-9.76s4.38-9.76,9.76-9.76v6.5c-1.79,0-3.25,1.46-3.25,3.25s1.46,3.25,3.25,3.25v6.5Z"/><path class="cls-3" d="M54.63,79.74h-6.5v-6.5c0-5.38,4.37-9.76,9.75-9.76h16.26v6.5h-16.26c-1.79,0-3.24,1.46-3.24,3.25v6.5Z"/><rect class="cls-3" x="51.37" y="76.48" width="16.26" height="6.5"/><path class="cls-3" d="M116.96,128.51h-10.31v-19.51H51.37c-2.87,0-5.57-1.25-7.43-3.44-1.86-2.18-2.66-5.07-2.19-7.93,.76-4.64,5.04-8.14,9.97-8.14h15.91v6.5h-15.91c-1.75,0-3.31,1.18-3.55,2.68-.16,.99,.1,1.94,.73,2.68,.62,.73,1.52,1.15,2.48,1.15h61.78v19.51h3.81c.87,0,1.69-.34,2.3-.95l18.56-18.56h7.85V63.02l-39.27-6.04h-42.02c-1.79,0-3.25,1.46-3.25,3.25v6.5h-6.5v-6.5c0-5.38,4.38-9.76,9.76-9.76l42.77,.04,45.03,6.93v51.56h-11.66l-16.65,16.65c-1.84,1.84-4.29,2.86-6.9,2.86Z"/></g></g><g><path class="cls-2" d="M234.53,249.59c-5.05,4.9-13.85,2.35-20.07,5.71-3.59,1.93-5.87,5.6-7.76,9.2-1.9,3.61-3.65,7.43-6.69,10.15-3.03,2.72-7.8,4.03-11.22,1.82-4.06-2.62-4.24-8.39-3.96-13.22,2.05-35.81-.13-72.67-.13-108.72h52.03c-.86,0,.78,77.21,1.1,83.78,.19,4-.37,8.37-3.2,11.2-.03,.03-.06,.06-.09,.09Z"/><g><path class="cls-3" d="M233.46,60.23h-6.5c0-3.59-2.91-6.49-6.5-6.49h-6.5c0-3.6-2.91-6.51-6.5-6.51s-6.5,2.91-6.5,6.5c0-3.95-3.52-7.08-7.6-6.41-3.2,.52-5.41,3.52-5.41,6.76v58.18h-19.51v7.06c0,1.72,.69,3.38,1.9,4.6l17.61,17.61v9.76h45.52l6.5-42.27v-42.27c0-3.59-2.91-6.5-6.5-6.5Z"/><path class="cls-3" d="M217.2,53.72h-6.5c0-1.79-1.46-3.25-3.25-3.25s-3.25,1.46-3.25,3.25h-6.5c0-5.38,4.38-9.76,9.76-9.76s9.76,4.38,9.76,9.76Z"/><path class="cls-3" d="M230.21,76.48h-6.5v-16.26c0-1.79-1.46-3.24-3.25-3.24h-6.5v-6.5h6.5c5.38,0,9.76,4.37,9.76,9.75v16.26Z"/><rect class="cls-3" x="210.7" y="53.72" width="6.5" height="16.26"/><path class="cls-3" d="M236.25,154.53h-51.56v-11.66l-16.65-16.65c-1.84-1.84-2.86-4.29-2.86-6.9v-10.31h19.51V53.72c0-2.87,1.25-5.57,3.44-7.43,2.18-1.86,5.07-2.65,7.93-2.19,4.64,.76,8.14,5.04,8.14,9.97v15.91h-6.5v-15.91c0-1.75-1.18-3.31-2.68-3.55-.99-.16-1.94,.1-2.68,.73-.73,.62-1.15,1.52-1.15,2.48v61.78h-19.51v3.81c0,.87,.34,1.69,.95,2.3l18.56,18.56v7.85h39.48l6.04-39.27v-42.02c0-1.79-1.46-3.25-3.25-3.25h-6.5v-6.5h6.5c5.38,0,9.76,4.38,9.76,9.76l-.04,42.77-6.93,45.03Z"/></g></g><g><path class="cls-3" d="M233.46,235.82v-6.5c3.59,0,6.49-2.91,6.49-6.5v-6.5c3.6,0,6.51-2.91,6.51-6.5s-2.91-6.5-6.5-6.5c3.95,0,7.08-3.52,6.41-7.6-.52-3.2-3.52-5.41-6.76-5.41h-58.18v-19.51h-7.06c-1.72,0-3.38,.69-4.6,1.9l-17.61,17.61h-9.76v45.52l42.27,6.5h42.27c3.59,0,6.5-2.91,6.5-6.5Z"/><path class="cls-3" d="M239.97,219.56v-6.5c1.79,0,3.25-1.46,3.25-3.25s-1.46-3.25-3.25-3.25v-6.5c5.38,0,9.76,4.38,9.76,9.76s-4.38,9.76-9.76,9.76Z"/><path class="cls-3" d="M233.46,232.57h-16.26v-6.5h16.26c1.79,0,3.24-1.46,3.24-3.25v-6.5h6.5v6.5c0,5.38-4.37,9.76-9.75,9.76Z"/><rect class="cls-3" x="223.71" y="213.06" width="16.26" height="6.5"/><path class="cls-3" d="M226.96,245.57l-42.77-.04-45.03-6.93v-51.56h11.66l16.65-16.65c1.84-1.84,4.29-2.86,6.9-2.86h10.31v19.51h55.28c2.87,0,5.57,1.25,7.43,3.44,1.86,2.18,2.66,5.07,2.19,7.93-.76,4.64-5.04,8.14-9.97,8.14h-15.91v-6.5h15.91c1.75,0,3.31-1.18,3.55-2.68,.16-.99-.1-1.94-.73-2.68-.62-.73-1.52-1.15-2.48-1.15h-61.78v-19.51h-3.81c-.87,0-1.69,.34-2.3,.95l-18.56,18.56h-7.85v39.48l39.27,6.04h42.02c1.79,0,3.25-1.46,3.25-3.25v-6.5h6.5v6.5c0,5.38-4.38,9.76-9.76,9.76Z"/></g><rect class="cls-3" x="191.19" y="161.03" width="6.5" height="6.5"/><rect class="cls-3" x="126.16" y="193.55" width="6.5" height="6.5"/><rect class="cls-3" x="93.64" y="128.51" width="6.5" height="6.5"/><rect class="cls-3" x="158.67" y="96" width="6.5" height="6.5"/></svg>