<?xml version="1.0" encoding="UTF-8"?><svg id="Layer_1" xmlns="http://www.w3.org/2000/svg" viewBox="0 0 300 300"><defs><style>.cls-1{fill:#fff;}.cls-2{fill:#ff6b45;}</style></defs><g><rect class="cls-1" x="70.02" y="124.33" width="58.75" height="6.53"/><path class="cls-2" d="M128.77,222.25c-12.83,0-26.36-1.33-39.09,0-18.43,1.91-35.78,4.61-54.7,2.67-5.66-.58-12.54-2.5-13.73-8.06-1.33-6.24,5.58-10.82,11.4-13.43,8.99-4.02,17.98-8.05,26.96-12.07,5.27-2.36,11.12-5.38,12.63-10.95,1.8-6.65-3.6-12.98-8.96-17.31s-11.62-8.94-12.47-15.78c-1.03-8.32,7.01-15.36,15.21-17.12,12.18-2.62,25.9,.68,38.31,.67,8.15,0,16.29,0,24.44,0,0,0,0,91.39,0,91.39Z"/><path class="cls-1" d="M236.48,134.13c0,7.21-2.58,13.06-9.79,13.06s-13.06-5.85-13.06-13.06,5.85-13.06,13.06-13.06,9.79,5.85,9.79,13.06Z"/><path class="cls-1" d="M229.95,160.24c0,7.21-2.58,13.06-9.79,13.06s-13.06-5.85-13.06-13.06,5.85-13.06,13.06-13.06,9.79,5.85,9.79,13.06Z"/><path class="cls-1" d="M233.22,186.35c0,7.21-2.58,13.06-9.79,13.06s-13.06-5.85-13.06-13.06,5.85-13.06,13.06-13.06,9.79,5.85,9.79,13.06Z"/><path class="cls-1" d="M239.75,212.46c0,7.21-2.58,13.06-9.79,13.06s-13.06-5.85-13.06-13.06,5.85-13.06,13.06-13.06,9.79,5.85,9.79,13.06Z"/><polygon class="cls-1" points="135.3 228.78 70.02 228.78 70.02 222.25 128.77 222.25 128.77 124.33 70.02 124.33 70.02 117.81 135.3 117.81 135.3 228.78"/><path class="cls-1" d="M249.54,228.78h-85.63l-13.06-6.53h-9.02v-6.53h10.56l13.06,6.53h84.09c5.4,0,9.79-4.39,9.79-9.79s-4.39-9.79-9.79-9.79v-6.53h6.53c5.4,0,9.79-4.39,9.79-9.79s-4.39-9.79-9.79-9.79v-6.53h6.53c5.4,0,9.79-4.39,9.79-9.79s-4.39-9.79-9.79-9.79h-6.53v-6.53c5.4,0,9.79-4.39,9.79-9.79s-4.39-9.79-9.79-9.79h-53.57l-5.82-5.82,17.26-37.96h0s2.97-8.49,2.97-14.97c0-4.15-1.73-11.69-8.01-12.89l-22.43,38.16-36.84,33.49h-17.58v-6.53h15.06l34.6-31.45,23.54-40.35h1.87c10.71,0,16.32,9.85,16.32,19.58,0,7.69-3.31,17.03-3.46,17.42l-15.49,34.09,.71,.71h50.87c9,0,16.32,7.32,16.32,16.32,0,4.14-1.55,7.93-4.11,10.81,6.2,2.31,10.63,8.3,10.63,15.3s-4.43,12.99-10.63,15.3c2.55,2.88,4.11,6.67,4.11,10.81,0,7-4.43,12.99-10.63,15.3,2.55,2.88,4.11,6.67,4.11,10.81,0,9-7.32,16.32-16.32,16.32Z"/><rect class="cls-1" x="115.72" y="202.67" width="6.53" height="6.53"/><rect class="cls-1" x="102.66" y="202.67" width="6.53" height="6.53"/><rect class="cls-1" x="83.08" y="124.33" width="6.53" height="101.18"/><rect class="cls-1" x="220.16" y="143.92" width="35.9" height="6.53"/><rect class="cls-1" x="220.16" y="170.03" width="35.9" height="6.53"/><rect class="cls-1" x="223.43" y="196.14" width="26.11" height="6.53"/><path class="cls-1" d="M226.69,150.45c-9,0-16.32-7.32-16.32-16.32s7.32-16.32,16.32-16.32v6.53c-5.4,0-9.79,4.39-9.79,9.79s4.39,9.79,9.79,9.79v6.53Z"/><path class="cls-1" d="M220.16,176.56c-9,0-16.32-7.32-16.32-16.32s7.32-16.32,16.32-16.32v6.53c-5.4,0-9.79,4.39-9.79,9.79s4.39,9.79,9.79,9.79v6.53Z"/><path class="cls-1" d="M223.43,202.67c-9,0-16.32-7.32-16.32-16.32s7.32-16.32,16.32-16.32v6.53c-5.4,0-9.79,4.39-9.79,9.79s4.39,9.79,9.79,9.79v6.53Z"/><path class="cls-1" d="M229.95,228.78c-9,0-16.32-7.32-16.32-16.32s7.32-16.32,16.32-16.32v6.53c-5.4,0-9.79,4.39-9.79,9.79s4.39,9.79,9.79,9.79v6.53Z"/></g><path class="cls-1" d="M229.08,256.6h2.35v2.35c0,2.6,2.1,4.7,4.7,4.7s4.7-2.1,4.7-4.7v-2.35h2.35c2.6,0,4.7-2.1,4.7-4.7s-2.1-4.7-4.7-4.7h-2.35v-2.35c0-2.6-2.1-4.7-4.7-4.7s-4.7,2.1-4.7,4.7v2.35h-2.35c-2.6,0-4.7,2.1-4.7,4.7s2.1,4.7,4.7,4.7Z"/><g><path class="cls-1" d="M136.8,45.75h30.54c2.6,0,4.7-2.1,4.7-4.7s-2.1-4.7-4.7-4.7h-30.54c-2.6,0-4.7,2.1-4.7,4.7s2.1,4.7,4.7,4.7Z"/><path class="cls-1" d="M167.34,53.03h-51.69c-2.6,0-4.7,2.1-4.7,4.7s2.1,4.7,4.7,4.7h51.69c2.6,0,4.7-2.1,4.7-4.7s-2.1-4.7-4.7-4.7Z"/></g></svg>