<?xml version="1.0" encoding="utf-8"?>
<svg viewBox="299 330.119 237.43 366.641" xmlns="http://www.w3.org/2000/svg" xmlns:xlink="http://www.w3.org/1999/xlink">
  <defs>
    <clipPath id="clip-path">
      <rect class="cls-1" x="250.35" y="308.35" width="285.08" height="388.41"/>
    </clipPath>
    <linearGradient id="linear-gradient" x1="-878.29" y1="1008.16" x2="-826.16" y2="984.74" gradientTransform="matrix(-0.16, -0.99, -0.99, 0.16, 1244.51, -615.51)" gradientUnits="userSpaceOnUse">
      <stop offset="0" stop-color="#0041ff"/>
      <stop offset="0.22" stop-color="#3b2cf6"/>
      <stop offset="0.44" stop-color="#7119ed"/>
      <stop offset="0.64" stop-color="#980ce7"/>
      <stop offset="0.79" stop-color="#b003e3"/>
      <stop offset="0.89" stop-color="#b900e2"/>
    </linearGradient>
    <linearGradient id="linear-gradient-2" x1="-87.71" y1="1019.92" x2="-63.54" y2="1019.92" gradientTransform="matrix(0.16, -0.99, -0.99, -0.16, 1469.4, 434.75)" xlink:href="#linear-gradient"/>
    <style>.cls-1,.cls-4,.cls-7{fill:none;}.cls-2{fill:#4651d5;}.cls-3{fill:#121e5a;}.cls-4{stroke:#fff;stroke-width:1.11px;}.cls-14,.cls-4,.cls-7{stroke-miterlimit:10;}.cls-5{fill:#fff;}.cls-6{fill:#df643a;}.cls-7{stroke:#4651d5;stroke-width:2px;}.cls-8{clip-path:url(#clip-path);}.cls-9{fill:#cddde9;}.cls-10{fill:url(#linear-gradient);}.cls-11{fill:url(#linear-gradient-2);}.cls-12{fill:#00ff8d;}.cls-13{fill:#d600ff;}.cls-14{font-size:24px;fill:#6ae2af;stroke:#6ae2af;font-family:Raleway-Medium, Raleway;font-weight:500;letter-spacing:0.18em;}.cls-15{letter-spacing:0.2em;}</style>
  </defs>
  <g class="cls-8" transform="matrix(1, 0, 0, 1, 1, 0)">
    <path class="cls-9" d="M603.6,440.23c1.18,1,2.33,2,3.43,3.08L336.3,788q-1.67-1.61-3.26-3.3Z"/>
    <path class="cls-9" d="M630.07,488.76q.51,3.12.85,6.36L382.22,811.75c-1.68-.32-3.34-.68-5-1.08Z"/>
    <path class="cls-9" d="M617.38,455.57c.92,1.35,1.78,2.74,2.6,4.15L352.38,800.4q-2-1.2-3.89-2.49Z"/>
    <path class="cls-9" d="M610.94,447.33q1.59,1.76,3,3.58L344,794.65q-1.83-1.41-3.57-2.91Z"/>
    <path class="cls-9" d="M627.1,476.09q.84,2.7,1.52,5.52L371.43,809q-2.31-.74-4.59-1.6Z"/>
    <path class="cls-9" d="M628.64,539.91c-.57,3.26-1.22,6.58-1.95,9.94L421.3,811.33c-2.24.43-4.48.79-6.7,1.08Z"/>
    <path class="cls-9" d="M631.5,503.38q.13,3.62.08,7.35L394,813.19q-2.75-.16-5.46-.48Z"/>
    <path class="cls-9" d="M585.34,660.81l-.24.52q-5.51,11.35-11.61,22L512.11,761.5q-8.52,7.82-17.3,14.58Z"/>
    <path class="cls-9" d="M623.55,562.84q-1.53,5.74-3.32,11.67L437.45,807.21c-2.53.81-5.06,1.55-7.58,2.2Z"/>
    <path class="cls-9" d="M550,417.24,304.34,730c-.49-1.87-1-3.76-1.39-5.68L544.77,416.46C546.53,416.7,548.28,417,550,417.24Z"/>
    <path class="cls-9" d="M624.91,469.88,361.51,805.22l-1.92-.89-2.31-1.17L622.82,465.1C623.56,466.66,624.26,468.26,624.91,469.88Z"/>
    <path class="cls-9" d="M615.26,589.84q-2.35,6.82-5,13.84L456.15,799.86q-4.44,2.05-8.86,3.82Z"/>
    <path class="cls-9" d="M602.92,622q-3.43,8.22-7.22,16.65L479,787.22q-5.5,3.53-11.05,6.61Z"/>
    <path class="cls-9" d="M631.14,520.28q-.32,4.2-.84,8.53L407,813.16q-3,.2-6,.21Z"/>
    <path class="cls-9" d="M506.51,415.83c2.08-.18,4.15-.34,6.21-.46L298.22,688.46q-.17-3.56-.22-7.17Z"/>
    <path class="cls-9" d="M460,425.66q3.87-1.29,7.76-2.43L301.39,635.09q.75-4.76,1.66-9.55Z"/>
    <path class="cls-9" d="M492.15,417.67c2.21-.37,4.42-.69,6.62-1L298,672.26c.06-2.58.15-5.19.28-7.81Z"/>
    <path class="cls-9" d="M595.45,434.16c1.3.85,2.57,1.73,3.79,2.63L329.29,780.47q-1.52-1.8-3-3.69Z"/>
    <path class="cls-9" d="M392,463q6.9-5.57,14.08-10.47L323.74,557.3q3.64-8.7,7.82-17.4Z"/>
    <path class="cls-9" d="M441.5,432.82q4.32-1.9,8.68-3.59l-144.55,184q1.25-5.43,2.7-10.9Z"/>
    <path class="cls-9" d="M420,443.7q5.07-2.93,10.21-5.55L312.48,588.08q2-6.5,4.37-13Z"/>
    <path class="cls-9" d="M476.75,420.83q3.57-.87,7.12-1.62L299,654.58q.38-4.26.89-8.58Z"/>
    <path class="cls-9" d="M577.06,424.68q2.24.88,4.4,1.86L317.28,762.87q-1.21-2.19-2.35-4.46Z"/>
    <path class="cls-9" d="M566.92,421.15c1.58.47,3.13,1,4.67,1.5L312.28,752.8c-.71-1.6-1.39-3.21-2-4.85Z"/>
    <path class="cls-9" d="M586.59,429q2.1,1.08,4.1,2.23L323,772.09q-1.36-2-2.65-4.07Z"/>
    <path class="cls-9" d="M520,415.1c2,0,3.92,0,5.86,0L299.4,703.4c-.25-2.18-.46-4.39-.65-6.62Z"/>
    <path class="cls-9" d="M556.16,418.41q2.49.52,5,1.14L308,741.85q-.9-2.58-1.72-5.25Z"/>
    <path class="cls-9" d="M532.73,415.34c1.86.11,3.7.24,5.54.4L301.47,717.22q-.56-3-1-6.13Z"/>
    <path class="cls-10" d="M422.1,364c11.6,9.19,7.75,34.37,2.61,45.34-2,4.27-4.7,8.67-9.1,10.38-11.62,4.52-16.34-15.75-22.46-20.38-5.33-4-13.77-.95-19.09-5-3.6-2.75-4.43-8.1-2.94-12.38s4.85-7.64,8.4-10.45c7.07-5.59,11.44-8.54,20.22-10.57a34.08,34.08,0,0,1,13.7-.74A19.76,19.76,0,0,1,422.1,364Z"/>
    <circle class="cls-11" cx="450.54" cy="346.03" r="12.08" transform="translate(-99.7 204.75) rotate(-23.13)"/>
    <path class="cls-12" d="M488.88,330.35a8.17,8.17,0,1,1-6,9.9A8.18,8.18,0,0,1,488.88,330.35Zm.62,2.51a5.59,5.59,0,1,0,6.76,4.08A5.6,5.6,0,0,0,489.5,332.86Z"/>
    <path class="cls-13" d="M409.44,778.9c4.33-3,9-4.3,13.89-5.69l1.72-.49a51.13,51.13,0,0,1,5.57-1.35h0c3.13-.53,7.74-.86,11.52,2.42,4.67,4.05,5.68,9.81,2.62,15a42.48,42.48,0,0,1-6.22,7.53c-.65.67-1.29,1.34-1.92,2-.46.49-.91,1-1.36,1.49-2.6,2.87-5.3,5.85-9.18,7.83-9.66,4.93-17.06,0-20.46-5.67a19.31,19.31,0,0,1-2.16-5.29C401.88,790.34,403.41,783.07,409.44,778.9Zm31-3.16c-2.24-1.94-5.23-2.52-9.39-1.82h0a48.59,48.59,0,0,0-5.28,1.29l-1.74.49c-4.7,1.33-9.14,2.59-13.12,5.33-6.56,4.53-6.71,13.55-3.07,19.65,3,5,9,8.81,17.06,4.7,3.46-1.77,6-4.56,8.44-7.27l1.38-1.51c.64-.69,1.3-1.37,1.95-2.05a40.45,40.45,0,0,0,5.86-7,8.91,8.91,0,0,0,1.15-6.75A9.82,9.82,0,0,0,440.44,775.74Z"/>
    <circle class="cls-13" cx="367.99" cy="764.71" r="12.5"/>
    <circle class="cls-13" cx="341.7" cy="724.12" r="7.47" transform="translate(-256.17 191.51) rotate(-23.04)"/>
  </g>
</svg>
