<svg width="53" height="27" viewBox="0 0 53 27" fill="none" xmlns="http://www.w3.org/2000/svg">
<path d="M40.0417 0.860107C33.9918 0.860107 28.6654 5.15908 27.3788 11.0793C27.2996 11.4401 27.3895 11.8094 27.625 12.0971C28.0403 12.6061 28.5049 12.7693 32.2984 12.7048C33.5186 14.3433 35.9806 15.4642 38.8214 15.4642C42.8761 15.4642 46.1623 13.1815 46.1623 10.3664H31.4806C31.4806 10.3814 31.4806 10.3964 31.4806 10.4115C30.8105 10.4158 30.3117 10.4115 29.9456 10.4007C31.4014 6.14257 35.4689 3.16206 40.0395 3.16206C45.9203 3.16206 50.7029 7.96136 50.7029 13.858C50.7029 19.7546 45.9182 24.5539 40.0395 24.5539C33.6728 24.5539 31.061 19.237 30.5686 16.424H30.5536C30.4594 16.1062 30.2346 15.4384 29.8086 14.7577C28.9694 13.4135 27.8005 12.7048 26.4261 12.7048C23.8208 12.7048 22.6754 15.127 22.4335 16.424C21.9433 19.2349 19.3315 24.5539 12.9626 24.5539C7.08179 24.5539 2.29923 19.7546 2.29923 13.858C2.29923 7.96136 7.08393 3.16206 12.9626 3.16206C17.5332 3.16206 21.6029 6.14257 23.0565 10.4007C22.6904 10.4115 22.1916 10.4158 21.5215 10.4115C21.5215 10.3964 21.5215 10.3814 21.5215 10.3664H6.83988C6.83988 13.1815 10.126 15.4642 14.1807 15.4642C17.0216 15.4642 19.4835 14.3433 20.7038 12.7048C24.4973 12.7693 24.9618 12.6061 25.3771 12.0971C25.6126 11.8115 25.7004 11.4401 25.6233 11.0793C24.3367 5.15694 19.0125 0.860107 12.9605 0.860107C5.81443 0.860107 0 6.69228 0 13.8601C0 21.0279 5.81443 26.8601 12.9605 26.8601C20.1065 26.8601 23.84 21.67 24.6899 16.8406C24.7199 16.701 25.101 15.0111 26.4261 15.0111C27.8262 15.0111 28.3678 17.1369 28.3721 17.1541C29.3376 21.8912 33.3388 26.8601 40.0395 26.8601C47.1856 26.8601 53 21.0279 53 13.8601C53 6.69228 47.1856 0.860107 40.0395 0.860107H40.0417Z" fill="black"/>
</svg>
