<?xml version="1.0" encoding="utf-8"?>
<svg viewBox="0 0 268 85" xmlns="http://www.w3.org/2000/svg">
  <defs>
    <style>.cls-1,.cls-4,.cls-7{fill:none;}.cls-2{fill:#4651d5;}.cls-3{fill:#121e5a;}.cls-4{stroke:#fff;stroke-width:1.11px;}.cls-14,.cls-4,.cls-7{stroke-miterlimit:10;}.cls-5{fill:#fff;}.cls-6{fill:#df643a;}.cls-7{stroke:#4651d5;stroke-width:2px;}.cls-8{clip-path:url(#clip-path);}.cls-9{fill:#cddde9;}.cls-10{fill:url(#linear-gradient);}.cls-11{fill:url(#linear-gradient-2);}.cls-12{fill:#00ff8d;}.cls-13{fill:#d600ff;}.cls-14{font-size:24px;fill:#6ae2af;stroke:#6ae2af;font-family:Raleway-Medium, Raleway;font-weight:500;letter-spacing:0.18em;}.cls-15{letter-spacing:0.2em;}</style>
  </defs>
  <path class="cls-5" d="M 61.196 26.584 L 58.305 26.584 L 69.513 0.653 L 72.117 0.653 L 83.245 26.574 L 80.314 26.574 L 77.455 19.768 L 64.018 19.768 L 61.196 26.584 Z M 65.002 17.363 L 76.43 17.363 L 70.716 3.599 L 65.002 17.363 Z"/>
  <path class="cls-5" d="M 87.009 0.653 L 94.332 0.653 C 95.541 0.64 96.748 0.784 97.92 1.083 C 98.913 1.321 99.852 1.757 100.676 2.361 C 101.446 2.935 102.054 3.693 102.453 4.567 C 103.293 6.519 103.293 8.73 102.453 10.678 C 102.039 11.546 101.421 12.305 100.653 12.885 C 99.815 13.483 98.871 13.921 97.874 14.177 C 96.697 14.482 95.485 14.631 94.268 14.617 L 89.656 14.617 L 89.656 26.584 L 87.009 26.584 L 87.009 0.653 Z M 89.646 12.299 L 94.112 12.299 C 95.777 12.41 97.428 11.986 98.834 11.087 C 99.917 10.256 100.522 8.941 100.445 7.578 C 100.546 6.188 99.915 4.846 98.777 4.038 C 97.364 3.224 95.742 2.841 94.112 2.936 L 89.646 2.936 L 89.646 12.299 Z"/>
  <path class="cls-5" d="M 108.243 0.653 L 115.557 0.653 C 116.77 0.639 117.977 0.783 119.152 1.083 C 120.146 1.326 121.083 1.76 121.91 2.361 C 122.677 2.938 123.287 3.695 123.686 4.567 C 124.124 5.526 124.335 6.57 124.303 7.625 C 124.33 8.678 124.11 9.725 123.665 10.678 C 123.255 11.545 122.642 12.305 121.875 12.885 C 121.036 13.483 120.095 13.921 119.097 14.177 C 117.92 14.482 116.706 14.631 115.488 14.617 L 110.878 14.617 L 110.878 26.584 L 108.243 26.584 L 108.243 0.653 Z M 110.878 12.299 L 115.291 12.299 C 116.958 12.409 118.617 11.985 120.023 11.087 C 121.107 10.256 121.71 8.941 121.635 7.578 C 121.737 6.188 121.105 4.846 119.97 4.038 C 118.55 3.223 116.921 2.841 115.291 2.936 L 110.878 2.936 L 110.878 12.299 Z"/>
  <path class="cls-6" d="M 142.028 4.844 C 141.449 4.055 140.693 3.409 139.825 2.957 C 138.836 2.454 137.741 2.21 136.637 2.24 C 135.977 2.244 135.325 2.346 134.694 2.537 C 134.046 2.719 133.441 3.023 132.908 3.433 C 132.394 3.842 131.977 4.363 131.684 4.954 C 131.329 5.633 131.158 6.393 131.186 7.159 C 131.155 7.874 131.319 8.584 131.661 9.212 C 131.977 9.745 132.393 10.208 132.886 10.58 C 133.437 10.968 134.038 11.279 134.673 11.507 C 135.345 11.76 136.04 12.004 136.78 12.246 C 137.521 12.488 138.577 12.852 139.494 13.193 C 140.379 13.519 141.209 13.969 141.965 14.529 C 143.629 15.763 144.564 17.753 144.446 19.824 C 144.465 20.97 144.212 22.104 143.705 23.131 C 143.243 24.041 142.584 24.837 141.774 25.46 C 140.969 26.075 140.053 26.54 139.074 26.818 C 138.079 27.105 137.053 27.253 136.018 27.257 C 135.231 27.249 134.451 27.172 133.68 27.016 C 132.92 26.863 132.18 26.623 131.475 26.298 C 130.762 25.986 130.094 25.581 129.488 25.098 C 128.877 24.609 128.334 24.041 127.878 23.409 L 130.149 21.732 C 130.736 22.685 131.548 23.479 132.51 24.049 C 133.588 24.694 134.829 25.021 136.085 24.983 C 136.767 24.982 137.443 24.879 138.094 24.678 C 138.766 24.474 139.392 24.148 139.946 23.717 C 140.497 23.29 140.959 22.758 141.304 22.151 C 142 20.763 142 19.126 141.304 17.737 C 140.941 17.144 140.462 16.633 139.89 16.239 C 139.262 15.818 138.583 15.48 137.872 15.235 C 137.121 14.969 136.326 14.695 135.501 14.431 C 134.673 14.165 133.8 13.856 132.975 13.515 C 132.174 13.186 131.431 12.736 130.767 12.179 C 130.099 11.623 129.559 10.929 129.178 10.151 C 128.323 8.164 128.375 5.905 129.324 3.96 C 129.806 3.091 130.477 2.337 131.284 1.756 C 132.067 1.154 132.948 0.699 133.887 0.41 C 134.831 0.151 135.803 0.015 136.78 0.011 C 138.33 -0.031 139.873 0.286 141.278 0.937 C 142.379 1.447 143.344 2.202 144.104 3.144 L 142.028 4.844 Z"/>
  <path class="cls-6" d="M 152.752 24.247 L 166.628 24.247 L 166.628 26.584 L 150.083 26.584 L 150.083 0.653 L 166.156 0.653 L 166.156 3.001 L 152.752 3.001 L 152.752 11.903 L 165.305 11.903 L 165.305 14.253 L 152.752 14.253 L 152.752 24.247 Z"/>
  <path class="cls-6" d="M 193.598 22.372 C 193.144 23.056 192.613 23.687 192.011 24.247 C 191.348 24.858 190.608 25.376 189.803 25.791 C 188.954 26.273 188.045 26.641 187.102 26.893 C 186.042 27.165 184.951 27.3 183.857 27.293 C 182.003 27.309 180.161 26.962 178.444 26.266 C 176.84 25.619 175.381 24.655 174.163 23.431 C 172.953 22.198 171.998 20.736 171.363 19.128 C 170.665 17.375 170.321 15.5 170.346 13.613 C 170.325 11.748 170.672 9.896 171.374 8.163 C 172.68 4.918 175.253 2.342 178.499 1.026 C 180.2 0.332 182.022 -0.016 183.857 0.001 C 184.803 0 185.741 0.1 186.663 0.3 C 187.546 0.488 188.412 0.765 189.243 1.126 C 190.026 1.474 190.766 1.909 191.45 2.429 C 192.082 2.908 192.638 3.483 193.091 4.138 L 190.885 5.747 C 190.576 5.285 190.205 4.865 189.783 4.502 C 189.303 4.065 188.77 3.695 188.194 3.397 C 187.557 3.075 186.888 2.82 186.196 2.637 C 185.437 2.435 184.657 2.335 183.87 2.341 C 182.315 2.317 180.773 2.629 179.35 3.254 C 178.06 3.834 176.911 4.672 175.96 5.715 C 175.024 6.759 174.309 7.985 173.843 9.313 C 173.352 10.693 173.106 12.149 173.116 13.613 C 173.104 15.086 173.357 16.546 173.863 17.925 C 174.34 19.247 175.069 20.466 176.006 21.511 C 176.951 22.56 178.105 23.401 179.391 23.981 C 180.801 24.605 182.328 24.912 183.87 24.887 C 185.335 24.895 186.784 24.584 188.116 23.971 C 189.497 23.339 190.666 22.325 191.491 21.048 L 193.598 22.372 Z"/>
  <path class="cls-4" d="M 7.863 57.129 C 10.213 57.129 44.803 57.714 44.627 56.887 C 41.047 40.286 20.835 33.79 8.249 45.193 C -4.335 56.597 0.144 77.348 16.31 82.542 C 30.53 87.114 45.087 76.532 45.122 61.595"/>
  <path class="cls-5" d="M 72.248 83.382 L 71.08 83.382 L 71.08 61.419 C 71.095 58.686 70.553 55.976 69.491 53.456 C 67.463 48.543 63.625 44.594 58.771 42.425 C 56.279 41.306 53.59 40.696 50.86 40.64 L 50.86 83.382 L 49.693 83.382 L 49.693 39.447 L 50.86 39.447 C 53.745 39.507 56.588 40.156 59.21 41.355 C 61.749 42.502 64.056 44.109 66.006 46.1 C 67.958 48.092 69.511 50.439 70.583 53.015 C 71.702 55.678 72.267 58.537 72.248 61.419 L 72.248 83.382 Z"/>
  <path class="cls-5" d="M 88.078 60.835 L 98.923 60.835 L 98.923 83.382 L 97.742 83.382 C 94.856 83.324 92.014 82.672 89.391 81.476 C 86.851 80.324 84.55 78.717 82.595 76.731 C 80.651 74.743 79.099 72.404 78.019 69.837 C 76.899 67.165 76.335 64.296 76.351 61.4 C 76.331 58.461 76.921 55.548 78.085 52.85 C 80.32 47.593 84.506 43.412 89.768 41.179 C 92.465 40.013 95.375 39.423 98.314 39.447 L 98.314 40.616 C 95.528 40.597 92.766 41.158 90.206 42.26 C 85.244 44.375 81.291 48.326 79.177 53.291 C 77.021 58.427 77.021 64.214 79.177 69.351 C 80.181 71.811 81.639 74.054 83.479 75.971 C 87.259 79.85 92.402 82.103 97.819 82.245 L 97.819 62.004 L 88.154 62.004 L 88.078 60.835 Z"/>
  <path class="cls-5" d="M 113.096 50.698 C 113.105 49.349 112.838 48.013 112.315 46.773 C 111.787 45.579 111.037 44.498 110.107 43.586 C 109.19 42.65 108.105 41.903 106.91 41.378 C 105.669 40.841 104.33 40.571 102.978 40.583 L 102.978 39.447 C 105.974 39.442 108.845 40.635 110.954 42.757 C 111.981 43.783 112.796 44.995 113.361 46.33 C 113.957 47.724 114.257 49.227 114.244 50.743 L 114.244 83.382 L 113.062 83.382 L 113.096 50.698 Z M 113.096 38.564 C 113.096 38.33 113.191 38.109 113.361 37.949 C 113.706 37.611 114.255 37.611 114.596 37.949 C 114.766 38.109 114.861 38.33 114.861 38.564 C 114.863 38.8 114.767 39.022 114.596 39.183 C 114.261 39.538 113.697 39.538 113.361 39.183 C 113.19 39.022 113.094 38.8 113.096 38.564 Z"/>
  <path class="cls-5" d="M 141.521 83.382 L 140.352 83.382 L 140.352 61.419 C 140.371 58.686 139.829 55.976 138.767 53.456 C 137.761 50.998 136.301 48.754 134.462 46.837 C 132.625 44.949 130.446 43.427 128.043 42.347 C 125.553 41.229 122.864 40.619 120.136 40.563 L 120.136 83.382 L 118.955 83.382 L 118.955 39.447 L 120.136 39.447 C 123.018 39.507 125.86 40.156 128.485 41.355 C 131.022 42.505 133.326 44.111 135.279 46.1 C 137.228 48.095 138.782 50.441 139.859 53.015 C 140.974 55.678 141.542 58.537 141.521 61.419 L 141.521 83.382 Z"/>
  <path class="cls-4" d="M 174.892 57.704 C 177.254 57.704 189.089 58.056 188.898 57.218 C 185.278 40.625 165.054 34.177 152.496 45.609 C 139.934 57.04 144.461 77.783 160.643 82.941 C 174.87 87.48 189.402 76.863 189.408 61.928"/>
  <path class="cls-4" d="M 215.661 57.704 C 213.301 57.704 198.608 58.056 198.793 57.218 C 202.416 40.625 222.64 34.177 235.202 45.609 C 247.758 57.04 243.232 77.783 227.054 82.941 C 212.822 87.48 198.289 76.863 198.286 61.928"/>
  <path class="cls-5" d="M 266.857 51.548 C 267.23 51.427 267.616 51.318 267.96 51.218 C 266.983 49.361 265.742 47.657 264.274 46.164 C 262.331 44.199 260.042 42.607 257.523 41.466 C 254.893 40.268 252.047 39.624 249.161 39.569 L 247.993 39.569 L 247.993 83.513 L 249.161 83.513 L 249.161 40.682 C 251.895 40.741 254.591 41.35 257.08 42.469 C 261.255 44.33 264.693 47.525 266.857 51.548 Z"/>
</svg>
