<svg xmlns="http://www.w3.org/2000/svg" width="17" height="16" viewBox="0 0 17 16" fill="none"
id="about"
>
  <path d="M13.36 13.3617H13.4854V13.487C13.4854 13.6257 13.5974 13.7377 13.736 13.7377C13.8747 13.7377 13.9867 13.6257 13.9867 13.487V13.3617H14.112C14.2507 13.3617 14.3627 13.2497 14.3627 13.111C14.3627 12.9724 14.2507 12.8604 14.112 12.8604H13.9867V12.735C13.9867 12.5964 13.8747 12.4844 13.736 12.4844C13.5974 12.4844 13.4854 12.5964 13.4854 12.735V12.8604H13.36C13.2214 12.8604 13.1094 12.9724 13.1094 13.111C13.1094 13.2497 13.2214 13.3617 13.36 13.3617Z" fill="#141428"/>
  <path d="M2.5202 2.75915H4.149C4.28766 2.75915 4.39966 2.64715 4.39966 2.50848C4.39966 2.36981 4.28766 2.25781 4.149 2.25781H2.5202C2.38153 2.25781 2.26953 2.36981 2.26953 2.50848C2.26953 2.64715 2.38153 2.75915 2.5202 2.75915Z" fill="#141428"/>
  <path d="M4.14809 3.14844H1.39129C1.25263 3.14844 1.14062 3.26044 1.14062 3.3991C1.14062 3.53777 1.25263 3.64977 1.39129 3.64977H4.14809C4.28676 3.64977 4.39876 3.53777 4.39876 3.3991C4.39876 3.26044 4.28676 3.14844 4.14809 3.14844Z" fill="#141428"/>
  <path d="M12.1275 8.72077C12.1269 7.75277 11.7504 6.8429 11.0672 6.16077C10.3829 5.47597 9.47147 5.09944 8.50081 5.10157C7.53494 5.10424 6.62721 5.48077 5.94667 6.16184C4.53601 7.57357 4.53547 9.87117 5.94827 11.2818C6.63307 11.9672 7.54614 12.3426 8.51627 12.341C9.48214 12.3389 10.3883 11.9624 11.0688 11.2818C11.7515 10.5986 12.128 9.6893 12.1275 8.72077Z" fill="#141428"/>
  <path d="M8.51 12.6256C7.4652 12.6256 6.4844 12.2198 5.74787 11.4832C5.01134 10.7478 4.606 9.76751 4.60547 8.72378C4.60547 7.68005 5.0108 6.69978 5.74627 5.96325C6.48014 5.22885 7.45774 4.82298 8.49987 4.82031C9.5516 4.82031 10.5313 5.22565 11.2673 5.96218C12.0033 6.69765 12.4097 7.67791 12.4103 8.72218C12.4113 9.76538 12.0055 10.7462 11.2689 11.4832C10.5345 12.2176 9.55693 12.6235 8.51694 12.6256H8.51ZM8.50894 5.38618C7.6108 5.38885 6.77454 5.73551 6.14734 6.36325C5.51854 6.99258 5.17187 7.83098 5.17187 8.72378C5.17187 9.61658 5.51907 10.4544 6.1484 11.0832C6.77774 11.7131 7.61667 12.0598 8.51 12.0598V12.343L8.51587 12.0598C9.40547 12.0576 10.2412 11.711 10.8689 11.0832C11.4988 10.4534 11.8449 9.61498 11.8444 8.72271C11.8439 7.82938 11.4967 6.99151 10.8668 6.36271C10.238 5.73285 9.40013 5.38671 8.5084 5.38671L8.50894 5.38618Z" fill="#141428"/>
  <path d="M10.2891 10.1633C10.1499 10.214 10.0048 10.2508 9.8592 10.2748C9.376 10.3542 8.86186 10.3084 8.41653 10.5116C8.12053 10.6465 7.86933 10.887 7.55093 10.9553C7.256 11.0188 6.94506 10.9206 6.6944 10.7532C6.02826 10.3078 5.7168 9.50569 5.7168 8.72115C5.7168 7.97875 6.00586 7.27955 6.5312 6.75209C7.05973 6.22142 7.76106 5.92969 8.50613 5.92969C9.2512 5.92969 9.95146 6.21929 10.4795 6.74782C11.1749 7.44222 11.7552 8.94249 10.9509 9.75209C10.7659 9.93822 10.5365 10.0726 10.2885 10.1628L10.2891 10.1633Z" fill="#00DBA0"/>
  <path d="M15.3993 8.26971C13.5567 5.68465 11.1225 4.26118 8.54492 4.26118V3.69531C11.3103 3.69531 13.9081 5.20305 15.8601 7.94118L15.3993 8.26971Z" fill="#141428"/>
  <path d="M8.54494 12.7526C6.05961 12.7526 3.71187 11.3787 1.93374 8.8843L1.81641 8.72003L1.93374 8.55577C3.71187 6.06137 6.06014 4.6875 8.54494 4.6875C11.0297 4.6875 13.378 6.06137 15.1561 8.55577L15.2729 8.72003L15.1561 8.8843C13.378 11.3787 11.0303 12.7526 8.54494 12.7526ZM2.51347 8.72003C4.16681 10.9579 6.30174 12.1867 8.54441 12.1867C10.7871 12.1867 12.9225 10.9574 14.5753 8.72003C12.922 6.4827 10.7871 5.25337 8.54441 5.25337C6.30174 5.25337 4.16627 6.4827 2.51347 8.72003Z" fill="#141428"/>
  <path d="M9.0202 10.143H9.14553V10.2683C9.14553 10.407 9.25753 10.519 9.3962 10.519C9.53486 10.519 9.64686 10.407 9.64686 10.2683V10.143H9.7722C9.91086 10.143 10.0229 10.031 10.0229 9.89229C10.0229 9.75363 9.91086 9.64163 9.7722 9.64163H9.64686V9.51629C9.64686 9.37762 9.53486 9.26562 9.3962 9.26562C9.25753 9.26562 9.14553 9.37762 9.14553 9.51629V9.64163H9.0202C8.88153 9.64163 8.76953 9.75363 8.76953 9.89229C8.76953 10.031 8.88153 10.143 9.0202 10.143Z" fill="#141428"/>
</svg>
