<svg xmlns="http://www.w3.org/2000/svg" width="19" height="18" viewBox="0 0 19 18" fill="none" id="administrators">
  <path d="M7.74216 8.90689C7.64976 8.90689 7.55856 8.87629 7.48296 8.81629L5.66496 7.36189L3.84696 8.81629C3.70296 8.93089 3.50076 8.93749 3.35016 8.83249C3.19896 8.72689 3.13536 8.53489 3.19356 8.36029L3.93276 6.14269L2.08176 4.66189C1.94376 4.55149 1.89096 4.36609 1.94916 4.19989C2.00736 4.03369 2.16456 3.92209 2.34156 3.92209H4.53456L5.27076 1.71349C5.32716 1.54369 5.48616 1.42969 5.66496 1.42969C5.84376 1.42969 6.00276 1.54429 6.05916 1.71349L6.79536 3.92209H8.98836C9.16476 3.92209 9.32196 4.03369 9.38016 4.19989C9.43836 4.36609 9.38556 4.55149 9.24756 4.66189L7.39656 6.14269L8.13576 8.36029C8.19396 8.53489 8.13036 8.72689 7.97916 8.83249C7.90776 8.88229 7.82436 8.90689 7.74156 8.90689H7.74216ZM5.66496 6.41449C5.75676 6.41449 5.84856 6.44509 5.92416 6.50569L6.90276 7.28869L6.51696 6.13069C6.46176 5.96569 6.51576 5.78329 6.65136 5.67469L7.80396 4.75309H6.49536C6.31656 4.75309 6.15756 4.63849 6.10116 4.46929L5.66436 3.15889L5.22756 4.46929C5.17116 4.63909 5.01216 4.75309 4.83336 4.75309H3.52476L4.67736 5.67469C4.81356 5.78329 4.86696 5.96569 4.81176 6.13069L4.42596 7.28869L5.40456 6.50569C5.48016 6.44509 5.57196 6.41449 5.66376 6.41449H5.66496Z" fill="#00DBA0"/>
  <path d="M8.15395 11.4494C8.15395 11.4494 9.84235 12.2306 11.8475 11.3516L12.0425 12.7184C12.0425 12.7184 10.4801 15.062 7.84375 12.7184L8.15395 11.4488V11.4494Z" fill="#141428"/>
  <path d="M13.2507 7.00781L13.6065 7.03421C13.5297 8.82641 12.9753 10.8172 11.3367 11.545C10.9239 11.7286 10.4415 11.8318 9.8811 11.8318H9.9933C9.4149 11.8318 8.9199 11.722 8.4981 11.527C6.8901 10.7842 6.3441 8.81201 6.2679 7.03421L6.6237 7.00781M17.0745 16.5652C16.5627 15.5788 16.1037 13.927 15.1203 13.3438C14.2419 12.823 12.9843 12.859 11.9955 12.7588L11.8461 11.2318L12.0291 12.7588C10.1109 15.2008 7.7967 12.76 7.7967 12.76M7.7967 12.76L8.1501 11.233M7.7967 12.76C6.8079 12.8608 5.5497 12.8254 4.6725 13.3468C3.6897 13.9306 3.2319 15.5836 2.7207 16.57H2.7597" stroke="#141428" stroke-width="0.195" stroke-miterlimit="10"/>
  <path d="M8.28325 8.59384C9.20015 8.59384 9.94345 7.85054 9.94345 6.93364C9.94345 6.01673 9.20015 5.27344 8.28325 5.27344C7.36634 5.27344 6.62305 6.01673 6.62305 6.93364C6.62305 7.85054 7.36634 8.59384 8.28325 8.59384Z" fill="#141428" stroke="#141428" stroke-width="0.195" stroke-miterlimit="10"/>
  <path d="M11.6524 8.59384C12.5693 8.59384 13.3126 7.85054 13.3126 6.93364C13.3126 6.01673 12.5693 5.27344 11.6524 5.27344C10.7355 5.27344 9.99219 6.01673 9.99219 6.93364C9.99219 7.85054 10.7355 8.59384 11.6524 8.59384Z" fill="#141428" stroke="#141428" stroke-width="0.195" stroke-miterlimit="10"/>
  <path d="M8.2832 6.96094H11.6522" stroke="#141428" stroke-width="0.1974" stroke-miterlimit="10"/>
  <path d="M7.74609 6.85938C7.74609 7.12877 8.07369 7.34777 8.47869 7.34777C8.88369 7.34777 9.21129 7.12937 9.21129 6.85938H7.74669H7.74609Z" fill="#141428"/>
  <path d="M10.6758 6.85938C10.6758 7.12877 11.0034 7.34777 11.4084 7.34777C11.8134 7.34777 12.141 7.12937 12.141 6.85938H10.6764H10.6758Z" fill="#141428"/>
</svg>
