<svg width="27" height="26" viewBox="0 0 27 26" fill="none" xmlns="http://www.w3.org/2000/svg"
id="admin"
>
<path d="M7.36124 6.48525C7.56404 6.57798 7.80497 6.44885 7.94364 6.27465C8.08231 6.10045 8.15684 5.88292 8.29031 5.70352C8.54337 5.35685 8.97064 5.19218 9.37364 5.04485L12.2735 3.98318C12.4954 3.90172 12.7528 3.77865 12.7822 3.54378C12.8204 3.23265 12.4356 3.05498 12.1236 3.01945C11.074 2.89638 10.0271 3.21012 9.02957 3.55678C8.36484 3.78818 8.08664 4.26832 7.57531 4.70425C7.023 5.17647 6.50326 5.6855 6.01964 6.22785C5.06986 7.2887 4.25105 8.45988 3.58084 9.71618C3.07471 10.6634 2.65004 11.7424 2.87364 12.7937C3.25671 13.0537 3.74031 12.6585 4.01851 12.285C5.57244 10.1764 6.58471 7.66998 8.38737 5.76938" fill="#58D8A5"/>
<path d="M12.3566 9.08858C12.6296 9.32345 12.9676 9.51325 13.3272 9.50631C13.9686 9.49331 14.4539 8.83378 14.4712 8.19245C14.4886 7.55111 14.1575 6.95311 13.771 6.44178C13.5292 6.12285 12.8064 5.40785 12.373 5.44685C11.9934 5.48065 11.7109 6.15145 11.6138 6.44611C11.3096 7.35525 11.6346 8.46631 12.3566 9.08858Z" fill="#58D8A5"/>
<path d="M12.7856 4.32031C11.2569 4.32031 9.76263 4.77361 8.49161 5.62287C7.2206 6.47214 6.22996 7.67923 5.64497 9.09151C5.05999 10.5038 4.90693 12.0578 5.20515 13.5571C5.50338 15.0564 6.23949 16.4335 7.3204 17.5144C8.40131 18.5953 9.77847 19.3314 11.2777 19.6297C12.777 19.9279 14.331 19.7748 15.7433 19.1898C17.1556 18.6049 18.3627 17.6142 19.212 16.3432C20.0612 15.0722 20.5145 13.5779 20.5145 12.0492C20.512 10.0002 19.6969 8.03576 18.248 6.58685C16.7991 5.13794 14.8346 4.32284 12.7856 4.32031ZM10.0001 18.694C8.50258 18.0612 7.2612 16.9434 6.47538 15.5202L6.53691 15.5081C6.82118 15.4578 7.09158 15.4102 7.28398 15.2481C7.35757 15.1865 7.41225 15.1054 7.44171 15.0141C7.53927 15.034 7.63855 15.0441 7.73811 15.0444C7.8371 15.0441 7.93581 15.034 8.03278 15.0141C8.06359 15.1052 8.11873 15.1861 8.19224 15.2481C8.38464 15.411 8.65418 15.4587 8.93931 15.5081C9.17938 15.5506 9.42811 15.5948 9.60664 15.7074C9.78518 15.8201 10.0001 16.022 10.0001 16.5914V18.694ZM6.88618 13.7306V13.1698C6.88618 12.72 7.25191 12.3812 7.73811 12.3812C8.22431 12.3812 8.59004 12.72 8.59004 13.1698V13.7306C8.59004 14.1804 8.22431 14.5192 7.73811 14.5192C7.25191 14.5192 6.88618 14.1804 6.88618 13.7306ZM10.2618 15.6459C10.1649 15.4936 10.0367 15.3636 9.88571 15.2646C9.62138 15.0973 9.30764 15.0418 9.03118 14.9924C8.82664 14.956 8.61604 14.9188 8.52938 14.846C8.52331 14.8408 8.51984 14.8356 8.51724 14.8174C8.70026 14.7013 8.85091 14.5407 8.95517 14.3507C9.05943 14.1606 9.1139 13.9473 9.11351 13.7306V13.1698C9.11235 13.0219 9.08537 12.8752 9.03378 12.7365L9.06151 12.7304C9.34578 12.6802 9.61531 12.6325 9.80771 12.4704C9.88098 12.4082 9.93558 12.3269 9.96544 12.2356C10.0629 12.2562 10.1622 12.2666 10.2618 12.2668C10.3608 12.2665 10.4595 12.2564 10.5565 12.2364C10.5875 12.3274 10.6426 12.4083 10.716 12.4704C10.9084 12.6334 11.1788 12.681 11.463 12.7304L11.4899 12.7365C11.4383 12.8752 11.4113 13.0219 11.4102 13.1698V13.7306C11.4102 13.9471 11.4648 14.1602 11.5691 14.35C11.6733 14.5398 11.8237 14.7003 12.0064 14.8165C12.0066 14.8218 12.0057 14.827 12.0036 14.8318C12.0015 14.8366 11.9983 14.8408 11.9943 14.8442C11.9076 14.917 11.697 14.9543 11.4925 14.9907C11.2169 15.0401 10.9032 15.0956 10.638 15.2637C10.487 15.3631 10.3588 15.4934 10.2618 15.6459ZM11.5662 9.98918L11.6008 9.98138C11.886 9.93111 12.1546 9.88345 12.3479 9.72138C12.4212 9.65917 12.4758 9.57787 12.5056 9.48651C12.6032 9.50668 12.7025 9.51713 12.802 9.51771C12.901 9.51742 12.9997 9.50725 13.0967 9.48738C13.1277 9.57837 13.1828 9.65924 13.2562 9.72138C13.4486 9.88431 13.7181 9.93198 14.0032 9.98138L14.0223 9.98571C13.9762 10.1169 13.9519 10.2548 13.9504 10.3939V10.9546C13.9499 11.1717 14.0043 11.3853 14.1085 11.5756C14.2128 11.7659 14.3635 11.9268 14.5466 12.0432C14.5466 12.0605 14.5406 12.0666 14.5336 12.0718C14.447 12.1437 14.2372 12.1818 14.0336 12.2174C13.953 12.2321 13.8706 12.2503 13.7883 12.2676C13.5206 12.0065 13.1614 11.8603 12.7873 11.8603C12.4133 11.8603 12.054 12.0065 11.7863 12.2676C11.7092 12.2512 11.6303 12.2347 11.5549 12.2208C11.3504 12.1853 11.1389 12.1472 11.054 12.0752C11.047 12.07 11.0436 12.064 11.041 12.0466C11.224 11.9303 11.3746 11.7696 11.4789 11.5794C11.5831 11.3893 11.6376 11.1758 11.6372 10.959V10.3965C11.6359 10.2578 11.6119 10.1202 11.5662 9.98918ZM11.9501 8.20385V7.64311C11.9501 7.19418 12.3158 6.85445 12.802 6.85445C13.2882 6.85445 13.654 7.19418 13.654 7.64311V8.20385C13.654 8.65365 13.2882 8.99251 12.802 8.99251C12.3158 8.99251 11.9501 8.65365 11.9501 8.20385ZM14.4738 10.9546V10.3965C14.4738 9.94671 14.8396 9.60785 15.3258 9.60785C15.812 9.60785 16.1777 9.94671 16.1777 10.3965V10.9572C16.1777 11.407 15.812 11.7468 15.3258 11.7468C14.8396 11.7468 14.4738 11.4044 14.4738 10.9546ZM13.6375 13.1698V13.7306C13.6375 14.1804 13.2718 14.5192 12.7856 14.5192C12.2994 14.5192 11.9336 14.1804 11.9336 13.7306V13.1698C11.9336 12.72 12.3002 12.3812 12.7856 12.3812C13.2709 12.3812 13.6375 12.72 13.6375 13.1698ZM11.1138 10.6747V10.9546C11.1138 11.4044 10.748 11.7442 10.2618 11.7442C9.77564 11.7442 9.40991 11.4044 9.40991 10.9546V10.3965C9.40991 9.94671 9.77564 9.60785 10.2618 9.60785C10.748 9.60785 11.1138 9.94671 11.1138 10.3965V10.6747ZM15.0476 18.8898C13.5798 19.3821 11.9914 19.3821 10.5236 18.8898V16.5914C10.5236 16.0229 10.7489 15.8114 10.9179 15.7074C11.0869 15.6034 11.3443 15.5506 11.5852 15.5081C11.8695 15.457 12.139 15.4093 12.3323 15.2481C12.4055 15.1861 12.46 15.1052 12.49 15.0141C12.685 15.0545 12.8862 15.0545 13.0811 15.0141C13.1113 15.106 13.1665 15.1876 13.2406 15.2498C13.4338 15.4128 13.7034 15.4604 13.9876 15.5098C14.2286 15.5523 14.4764 15.5965 14.655 15.7092C14.8335 15.8218 15.0484 16.0238 15.0484 16.5932L15.0476 18.8898ZM15.3076 15.6502C15.2109 15.4977 15.0827 15.3676 14.9314 15.2689C14.6671 15.1016 14.3534 15.0462 14.0769 14.9968C13.8724 14.9604 13.6618 14.9231 13.576 14.8503C13.569 14.8451 13.5656 14.8399 13.5638 14.8217C13.7466 14.7054 13.8971 14.5448 14.0012 14.3548C14.1053 14.1648 14.1596 13.9516 14.1592 13.7349V13.1698C14.1577 13.0234 14.131 12.8783 14.0804 12.7408C14.0951 12.7408 14.109 12.7348 14.1237 12.7322C14.408 12.6819 14.6775 12.6342 14.8699 12.4722C14.9432 12.41 14.9978 12.3287 15.0276 12.2373C15.1251 12.2579 15.2244 12.2684 15.324 12.2685C15.423 12.2683 15.5217 12.2581 15.6187 12.2382C15.6497 12.3292 15.7048 12.41 15.7782 12.4722C15.9714 12.6351 16.2401 12.6828 16.5252 12.7322H16.5365C16.4849 12.8709 16.4577 13.0175 16.4559 13.1655V13.7262C16.4553 13.9437 16.5098 14.1578 16.6144 14.3485C16.719 14.5391 16.8702 14.7002 17.0539 14.8165C17.0539 14.8338 17.0487 14.839 17.0418 14.8442C16.9551 14.917 16.7454 14.9543 16.5408 14.9907C16.2644 15.0401 15.9506 15.0956 15.6854 15.2637C15.5345 15.3631 15.4063 15.4934 15.3093 15.6459L15.3076 15.6502ZM16.9794 13.7349V13.1698C16.9794 12.72 17.346 12.3812 17.8322 12.3812C18.3184 12.3812 18.6832 12.72 18.6832 13.1698V13.7306C18.6832 14.1804 18.3175 14.5192 17.8322 14.5192C17.3468 14.5192 16.9811 14.1804 16.9811 13.7306L16.9794 13.7349ZM15.5693 18.6983V16.5914C15.5693 16.0229 15.7946 15.8114 15.9636 15.7074C16.1326 15.6034 16.39 15.5506 16.631 15.5081C16.9152 15.457 17.1848 15.4093 17.378 15.2481C17.4512 15.1861 17.5058 15.1052 17.5358 15.0141C17.7307 15.0545 17.9319 15.0545 18.1268 15.0141C18.1568 15.1054 18.2117 15.1865 18.2854 15.2481C18.4787 15.4119 18.7482 15.4596 19.0334 15.5081L19.094 15.5202C18.3089 16.9433 17.0681 18.0611 15.571 18.694L15.5693 18.6983ZM19.1226 14.9968C18.9181 14.9604 18.7066 14.9231 18.6208 14.8503C18.6139 14.8451 18.6104 14.8399 18.6087 14.8226C18.7917 14.7062 18.9423 14.5455 19.0465 14.3553C19.1508 14.1652 19.2053 13.9518 19.205 13.7349V13.1698C19.205 12.434 18.5983 11.8577 17.8296 11.8577C17.6449 11.8558 17.4618 11.8904 17.2906 11.9596C17.1194 12.0288 16.9635 12.1311 16.832 12.2607C16.7592 12.246 16.6856 12.2295 16.6145 12.2165C16.41 12.181 16.1985 12.1428 16.1127 12.0709C16.1066 12.0657 16.1032 12.0596 16.1006 12.0423C16.2836 11.926 16.4342 11.7653 16.5385 11.5751C16.6427 11.3849 16.6972 11.1715 16.6968 10.9546V10.3965C16.6968 9.66071 16.0902 9.08438 15.3214 9.08438C15.1317 9.08257 14.9436 9.11954 14.7686 9.19301C14.5937 9.26648 14.4355 9.37491 14.304 9.51165C14.232 9.49691 14.1601 9.48131 14.0908 9.46831C13.8862 9.43191 13.6748 9.39465 13.589 9.32271C13.5851 9.31906 13.582 9.31463 13.5799 9.3097C13.5778 9.30478 13.5767 9.29946 13.5768 9.29411C13.7599 9.17779 13.9105 9.01707 14.0148 8.82691C14.119 8.63675 14.1735 8.42331 14.1731 8.20645V7.64311C14.1731 6.90731 13.5664 6.33098 12.7977 6.33098C12.029 6.33098 11.4223 6.90731 11.4223 7.64311V8.20385C11.422 8.4206 11.4764 8.63392 11.5805 8.82405C11.6846 9.01418 11.835 9.17497 12.0177 9.29151C12.0179 9.2968 12.017 9.30207 12.0151 9.307C12.0131 9.31192 12.0102 9.31639 12.0064 9.32011C11.9198 9.39205 11.7092 9.42931 11.5055 9.46571C11.431 9.47958 11.3547 9.49691 11.2784 9.51251C11.147 9.37429 10.9885 9.26452 10.8129 9.18998C10.6373 9.11544 10.4483 9.07773 10.2575 9.07918C9.48618 9.07918 8.88211 9.65551 8.88211 10.3913V10.952C8.88161 11.1699 8.93647 11.3843 9.04152 11.5752C9.14657 11.766 9.29838 11.9271 9.48271 12.0432C9.48288 12.0486 9.4818 12.054 9.47954 12.059C9.47729 12.064 9.47392 12.0683 9.46971 12.0718C9.38304 12.1437 9.17331 12.1818 8.96964 12.2174C8.89338 12.2312 8.81538 12.2494 8.73824 12.265C8.60669 12.1345 8.45056 12.0314 8.27889 11.9616C8.10722 11.8919 7.92341 11.8568 7.73811 11.8586C6.96678 11.8586 6.36271 12.4349 6.36271 13.1707V13.7314C6.36262 13.9479 6.41723 14.1609 6.52147 14.3506C6.62572 14.5403 6.77621 14.7005 6.95898 14.8165C6.95898 14.8347 6.95291 14.8399 6.94598 14.846C6.85931 14.9179 6.64958 14.9552 6.44504 14.9916C6.37658 15.0037 6.30638 15.0193 6.23531 15.0332C5.73219 13.9354 5.51303 12.7289 5.59795 11.5243C5.68287 10.3198 6.06916 9.15587 6.72132 8.13959C7.37348 7.1233 8.27059 6.28721 9.33023 5.70814C10.3899 5.12906 11.578 4.82559 12.7856 4.82559C13.9931 4.82559 15.1813 5.12906 16.2409 5.70814C17.3006 6.28721 18.1977 7.1233 18.8498 8.13959C19.502 9.15587 19.8883 10.3198 19.9732 11.5243C20.0581 12.7289 19.839 13.9354 19.3358 15.0332C19.2656 15.0202 19.1954 15.0046 19.127 14.9898L19.1226 14.9968Z" fill="#141428"/>
<path d="M24.0905 21.3342L21.6222 18.8512C21.4229 18.684 21.2005 18.5465 20.9618 18.443L20.3473 17.8285C23.2021 14.0966 22.9326 8.7285 19.5223 5.3147C17.7358 3.52781 15.3127 2.52376 12.786 2.52344C10.2593 2.52311 7.83596 3.52653 6.04907 5.31296C4.26218 7.09939 3.25814 9.52249 3.25781 12.0492C3.25749 14.5759 4.26091 16.9993 6.04734 18.7862C7.67655 20.4184 9.84355 21.4027 12.1446 21.5558C14.4457 21.7088 16.724 21.0202 18.5551 19.6182L19.1695 20.2326C19.2727 20.4708 19.4099 20.6927 19.5769 20.8913L22.046 23.3743C22.0771 23.406 22.1144 23.431 22.1555 23.4477C22.1967 23.4644 22.2408 23.4724 22.2852 23.4714C22.4715 23.4714 22.6665 23.3466 22.7471 23.298C22.9956 23.1309 23.2265 22.939 23.4361 22.7252C23.6501 22.5159 23.8418 22.285 24.0081 22.0362C24.0939 21.9036 24.3158 21.5578 24.0905 21.3342ZM6.42 18.4161C5.19 17.1863 4.34262 15.6264 3.98034 13.9252C3.61806 12.224 3.7564 10.4542 4.37862 8.82995C5.00084 7.20568 6.08029 5.79646 7.48645 4.77268C8.89261 3.7489 10.5653 3.15442 12.3021 3.06112C14.039 2.96783 15.7657 3.37971 17.2734 4.24696C18.7812 5.11421 20.0054 6.3997 20.798 7.94797C21.5907 9.49624 21.9178 11.241 21.7398 12.9712C21.5619 14.7015 20.8865 16.3431 19.7953 17.6976C19.7632 17.7366 19.732 17.7713 19.6999 17.8094C19.5266 18.0174 19.3463 18.2211 19.1513 18.4161C18.9728 18.5955 18.7839 18.7628 18.5932 18.9231C18.5369 18.9699 18.4849 19.0167 18.4259 19.0644C16.6972 20.4562 14.515 21.1599 12.2988 21.0402C10.0826 20.9206 7.98885 19.986 6.42 18.4161ZM19.5223 18.7862C19.6956 18.6128 19.8577 18.4395 20.0223 18.2436L20.4557 18.677C20.4401 18.6978 20.4236 18.7177 20.4071 18.7376C20.2676 18.9102 20.1195 19.0756 19.9634 19.2334C19.8091 19.3876 19.6436 19.5324 19.4694 19.6754L19.4061 19.7265L18.9728 19.2932C19.1687 19.125 19.3507 18.9578 19.5223 18.7862ZM23.0678 22.3525C22.7272 22.6931 22.4611 22.8682 22.3415 22.9262L19.9513 20.523C19.8615 20.4092 19.782 20.2877 19.7138 20.1598C19.7381 20.1408 19.758 20.1191 19.7814 20.0992C19.9743 19.9444 20.1592 19.7798 20.3352 19.606C20.5095 19.4294 20.6746 19.2439 20.8301 19.0505C20.8491 19.0271 20.8699 19.008 20.889 18.9846C21.016 19.0531 21.1372 19.1319 21.2513 19.2204L23.6407 21.6254C23.4864 21.8946 23.2934 22.1396 23.0678 22.3525Z" fill="#141428"/>
</svg>
