<svg xmlns="http://www.w3.org/2000/svg" width="23" height="22" viewBox="0 0 23 22" fill="none" id="assignments">
  <path d="M14.392 18.9163H4.63281V2.97656H14.392C14.9303 2.97656 15.3681 3.41436 15.3681 3.95263V17.9402C15.3681 18.4785 14.9303 18.9163 14.392 18.9163ZM5.28401 18.2658H14.392C14.5717 18.2658 14.7176 18.1199 14.7176 17.9402V3.95263C14.7176 3.77296 14.5717 3.62703 14.392 3.62703H5.28328V18.2658H5.28401Z" fill="#141428"/>
  <path d="M7.07261 18.9163H4.63281V2.97656H7.07261V18.9163ZM5.28328 18.2658H6.42215V3.62703H5.28328V18.2658Z" fill="#141428"/>
  <path d="M5.9061 4.48438H4.0625V5.13484H5.9061V4.48438Z" fill="#141428"/>
  <path d="M5.9061 5.85156H4.0625V6.50203H5.9061V5.85156Z" fill="#141428"/>
  <path d="M5.9061 7.21094H4.0625V7.8614H5.9061V7.21094Z" fill="#141428"/>
  <path d="M5.9061 8.57812H4.0625V9.22859H5.9061V8.57812Z" fill="#141428"/>
  <path d="M5.9061 9.9375H4.0625V10.588H5.9061V9.9375Z" fill="#141428"/>
  <path d="M5.9061 11.3047H4.0625V11.9552H5.9061V11.3047Z" fill="#141428"/>
  <path d="M5.9061 12.6719H4.0625V13.3223H5.9061V12.6719Z" fill="#141428"/>
  <path d="M5.9061 14.0312H4.0625V14.6817H5.9061V14.0312Z" fill="#141428"/>
  <path d="M5.9061 15.3984H4.0625V16.0489H5.9061V15.3984Z" fill="#141428"/>
  <path d="M5.9061 16.7656H4.0625V17.4161H5.9061V16.7656Z" fill="#141428"/>
  <path d="M13.3607 5.9375H8.15625V9.1363H13.3607V5.9375Z" fill="#34CA9D"/>
  <path d="M12.6029 7.21094H8.9707V7.8614H12.6029V7.21094Z" fill="#141428"/>
  <path d="M17.2715 17.9219V18.5511C17.2715 18.6288 17.3353 18.6911 17.4145 18.6911H18.4294C18.5094 18.6911 18.5732 18.6288 18.5732 18.5511V17.9219" fill="#141428"/>
  <path d="M18.4301 19.016H17.4151C17.157 19.016 16.9473 18.807 16.9473 18.5511V17.9219H17.5977V18.3655H18.2482V17.9219H18.8987V18.5511C18.8987 18.8077 18.6882 19.016 18.4301 19.016Z" fill="#141428"/>
  <path d="M18.8972 5.91594H18.2467V5.71354L17.9219 4.99781L17.5977 5.71354V5.91594H16.9473V5.57274L17.9219 3.42188L18.8972 5.57274V5.91594Z" fill="#141428"/>
  <path d="M18.6123 6.01562H17.2344V15.6648H18.6123V6.01562Z" fill="#141428"/>
  <path d="M18.2869 6.33797V15.3367H17.5594V6.33797H18.2869ZM18.9373 5.6875H16.9082V15.9872H18.9373V5.6875Z" fill="#141428"/>
  <path d="M18.9373 16.4844H16.9082V17.9254H18.9373V16.4844Z" fill="#FF6B45"/>
</svg>
