<svg xmlns="http://www.w3.org/2000/svg" width="25" height="24" viewBox="0 0 25 24" fill="none"
id="challenge"
>
  <path d="M22.2759 13.3674C22.2551 13.0906 22.1159 12.841 21.9783 12.605C21.5631 11.9026 21.0495 11.1842 20.2943 10.9434C19.2199 10.6018 18.1127 11.357 17.3343 12.2042C16.5559 13.0514 15.8607 14.0682 14.8039 14.4794C13.5839 14.9546 12.0687 14.5274 11.0367 15.3594C10.3503 15.9114 10.0903 16.913 10.2367 17.805C10.3831 18.697 10.8855 19.485 11.4823 20.1442C12.0007 20.7162 12.6503 21.2282 13.4023 21.2874C14.3863 21.3674 15.3303 20.6474 16.3063 20.8074C17.2823 20.9674 17.9407 21.9114 18.8423 22.3042C20.8423 23.1738 23.1623 21.5562 21.9535 19.4978C21.4927 18.7154 21.0351 18.365 21.0327 17.3658C21.0287 15.9706 22.3735 14.669 22.2759 13.3674Z" fill="#58D8A5"/>
  <path d="M10.6408 12.0837C8.6496 10.8037 8.596 8.95334 8.4904 5.26214L8.4816 4.95094C8.47777 4.88661 8.44974 4.82611 8.40315 4.78159C8.35655 4.73707 8.29484 4.71183 8.2304 4.71094C8.19826 4.71144 8.16654 4.71839 8.13714 4.73139C8.10773 4.74438 8.08124 4.76315 8.05923 4.78658C8.03721 4.81001 8.02013 4.83762 8.009 4.86778C7.99786 4.89794 7.9929 4.93002 7.9944 4.96214L8.0032 5.27654C8.1104 9.01734 8.1704 11.0789 10.3784 12.4941C10.4175 12.5194 10.4631 12.5327 10.5096 12.5325C10.5635 12.5352 10.6167 12.5197 10.6606 12.4885C10.7046 12.4572 10.7368 12.4121 10.7519 12.3603C10.7671 12.3085 10.7644 12.2532 10.7442 12.2031C10.724 12.1531 10.6876 12.1113 10.6408 12.0845V12.0837Z" fill="#141428" stroke="white" stroke-width="0.12" stroke-miterlimit="10"/>
  <path d="M22.1282 3.51369C22.1052 3.48797 22.0769 3.46751 22.0453 3.45371C22.0137 3.4399 21.9795 3.43307 21.945 3.43369H19.2866C19.2229 3.43369 19.1619 3.45897 19.1169 3.50398C19.0719 3.54899 19.0466 3.61004 19.0466 3.67369C19.0466 4.21529 18.6466 4.50809 18.2026 4.59209L18.2826 3.69529C18.2857 3.66165 18.2817 3.62772 18.2708 3.59574C18.2599 3.56376 18.2424 3.53443 18.2194 3.50969C18.1968 3.48448 18.1692 3.46432 18.1383 3.45053C18.1074 3.43675 18.074 3.42964 18.0402 3.42969H6.86177C6.82795 3.42964 6.7945 3.43675 6.76362 3.45053C6.73274 3.46432 6.70512 3.48448 6.68257 3.50969C6.65957 3.53443 6.64204 3.56376 6.63115 3.59574C6.62026 3.62772 6.61625 3.66165 6.61937 3.69529L6.69937 4.59209C6.25937 4.50889 5.85937 4.21609 5.85937 3.67449C5.85814 3.61122 5.83246 3.55089 5.78772 3.50614C5.74297 3.4614 5.68264 3.43572 5.61937 3.43449H2.95537C2.92074 3.43413 2.88644 3.44127 2.85483 3.45542C2.82322 3.46958 2.79504 3.4904 2.77224 3.51647C2.74944 3.54254 2.73255 3.57324 2.72273 3.60645C2.71292 3.63967 2.7104 3.67461 2.71537 3.70889L3.29057 8.23049C3.29728 8.28932 3.3255 8.34359 3.3698 8.38287C3.4141 8.42215 3.47136 8.44367 3.53057 8.44329C3.74657 8.44329 3.95537 8.45129 4.15937 8.46569L4.23057 8.47129C4.42737 8.48649 4.61937 8.50729 4.80177 8.53609H4.81217C6.62177 8.82009 7.10417 9.70009 7.21937 10.2649C7.33457 10.8297 6.95377 11.4969 6.94977 11.5041C6.9337 11.5317 6.92322 11.5622 6.91895 11.5939C6.91467 11.6256 6.91667 11.6578 6.92485 11.6887C6.93302 11.7196 6.9472 11.7486 6.96657 11.774C6.98595 11.7995 7.01014 11.8208 7.03777 11.8369C7.0654 11.853 7.09593 11.8634 7.1276 11.8677C7.15928 11.872 7.19149 11.87 7.2224 11.8618C7.2533 11.8536 7.28229 11.8395 7.30771 11.8201C7.33314 11.8007 7.3545 11.7765 7.37057 11.7489C7.44235 11.6167 7.50464 11.4795 7.55697 11.3385C8.02524 12.4137 8.89937 13.2217 10.1794 13.7625H10.0994C10.6826 13.8809 11.2458 14.0777 11.8378 14.1697C11.8532 14.1723 11.8684 14.1758 11.8834 14.1801C12.4026 14.1553 12.9234 14.1169 13.4314 14.1409C13.6283 14.0798 13.8305 14.0372 14.0354 14.0137C15.6858 13.4937 16.7946 12.5977 17.3458 11.3337C17.3982 11.4753 17.4607 11.613 17.533 11.7457C17.549 11.7733 17.5704 11.7975 17.5958 11.8169C17.6213 11.8363 17.6502 11.8504 17.6811 11.8586C17.712 11.8668 17.7443 11.8688 17.7759 11.8645C17.8076 11.8602 17.8381 11.8498 17.8658 11.8337C17.8934 11.8176 17.9176 11.7963 17.937 11.7708C17.9563 11.7454 17.9705 11.7164 17.9787 11.6855C17.9869 11.6546 17.9889 11.6224 17.9846 11.5907C17.9803 11.559 17.9698 11.5285 17.9538 11.5009C17.8458 11.3161 17.5874 10.7353 17.6842 10.2617C17.7994 9.69689 18.281 8.81689 20.0914 8.53289H20.0994C20.2818 8.50409 20.473 8.48329 20.6698 8.46809L20.7426 8.46249C20.9466 8.44809 21.1554 8.44009 21.3714 8.44009C21.4303 8.4396 21.4871 8.41779 21.5312 8.37866C21.5754 8.33954 21.6038 8.28577 21.6114 8.22729L22.1866 3.70569C22.191 3.67138 22.188 3.63652 22.1779 3.60343C22.1679 3.57033 22.1509 3.53975 22.1282 3.51369ZM4.52337 8.00249C4.28337 7.97609 4.02577 7.95689 3.74577 7.95129L3.23137 3.91769H4.03777L4.55777 8.00729L4.52337 8.00249ZM5.05937 8.08249L4.52977 3.92249H5.38977C5.49697 4.56249 6.02577 5.01689 6.74977 5.09689L7.10977 9.05689C6.71297 8.64249 6.07697 8.26889 5.05937 8.08249ZM17.2298 9.88169C16.9962 11.9089 15.6058 13.2145 13.0978 13.7625H11.8034C9.29537 13.2145 7.90497 11.9089 7.67137 9.88729L7.12897 3.91769H17.769L17.2298 9.88169ZM19.841 8.08249C18.8226 8.27049 18.1866 8.64249 17.7938 9.05289L18.1538 5.09289C18.8738 5.01289 19.4034 4.55609 19.5098 3.91849H20.3714L19.841 8.08249ZM21.1546 7.95529C20.8746 7.96089 20.6194 7.98009 20.377 8.00649H20.3418L20.8618 3.91689H21.669L21.1546 7.95529Z" fill="#151428" stroke="white" stroke-width="0.12" stroke-miterlimit="10"/>
  <path d="M18.0395 22.4188H13.4675L13.1691 14.0268C13.0091 14.0436 12.9715 14.014 12.8091 14.0268L12.9747 22.4188H11.9267L12.2467 14.1292C12.1187 14.134 11.9907 14.138 11.8635 14.1404C11.8267 14.1404 11.5491 21.9404 11.5115 21.9412L11.4315 22.4212H6.86274C6.79813 22.4212 6.73617 22.4468 6.69049 22.4925C6.64481 22.5382 6.61914 22.6001 6.61914 22.6648C6.61914 22.7294 6.64481 22.7913 6.69049 22.837C6.73617 22.8827 6.79813 22.9084 6.86274 22.9084H18.0395C18.1041 22.9084 18.1661 22.8827 18.2118 22.837C18.2575 22.7913 18.2831 22.7294 18.2831 22.6648C18.2831 22.6001 18.2575 22.5382 18.2118 22.4925C18.1661 22.4468 18.1041 22.4212 18.0395 22.4212V22.4188Z" fill="#151428" stroke="white" stroke-width="0.12" stroke-miterlimit="10"/>
  <path d="M17.5114 15.7337H19.5914C19.6763 15.7337 19.7577 15.7 19.8177 15.64C19.8777 15.58 19.9114 15.4986 19.9114 15.4137C19.9114 15.3289 19.8777 15.2475 19.8177 15.1875C19.7577 15.1275 19.6763 15.0938 19.5914 15.0938H17.5114C17.4265 15.0938 17.3451 15.1275 17.2851 15.1875C17.2251 15.2475 17.1914 15.3289 17.1914 15.4137C17.1914 15.4986 17.2251 15.58 17.2851 15.64C17.3451 15.7 17.4265 15.7337 17.5114 15.7337Z" fill="#151428"/>
  <path d="M19.592 16.1328H16.072C15.9871 16.1328 15.9057 16.1665 15.8457 16.2265C15.7857 16.2865 15.752 16.3679 15.752 16.4528C15.752 16.5377 15.7857 16.6191 15.8457 16.6791C15.9057 16.7391 15.9871 16.7728 16.072 16.7728H19.592C19.6768 16.7728 19.7582 16.7391 19.8182 16.6791C19.8782 16.6191 19.912 16.5377 19.912 16.4528C19.912 16.3679 19.8782 16.2865 19.8182 16.2265C19.7582 16.1665 19.6768 16.1328 19.592 16.1328Z" fill="white"/>
  <path d="M19.592 16.1328H16.072C15.9871 16.1328 15.9057 16.1665 15.8457 16.2265C15.7857 16.2865 15.752 16.3679 15.752 16.4528C15.752 16.5377 15.7857 16.6191 15.8457 16.6791C15.9057 16.7391 15.9871 16.7728 16.072 16.7728H19.592C19.6768 16.7728 19.7582 16.7391 19.8182 16.6791C19.8782 16.6191 19.912 16.5377 19.912 16.4528C19.912 16.3679 19.8782 16.2865 19.8182 16.2265C19.7582 16.1665 19.6768 16.1328 19.592 16.1328Z" fill="#151428"/>
  <path d="M13.9919 2.21375H14.1519V2.37375C14.1519 2.45862 14.1856 2.54001 14.2456 2.60002C14.3056 2.66004 14.387 2.69375 14.4719 2.69375C14.5567 2.69375 14.6381 2.66004 14.6981 2.60002C14.7582 2.54001 14.7919 2.45862 14.7919 2.37375V2.21375H14.9519C15.0367 2.21375 15.1181 2.18004 15.1781 2.12002C15.2382 2.06001 15.2719 1.97862 15.2719 1.89375C15.2719 1.80888 15.2382 1.72749 15.1781 1.66748C15.1181 1.60746 15.0367 1.57375 14.9519 1.57375H14.7919V1.41375C14.7919 1.32888 14.7582 1.24749 14.6981 1.18748C14.6381 1.12746 14.5567 1.09375 14.4719 1.09375C14.387 1.09375 14.3056 1.12746 14.2456 1.18748C14.1856 1.24749 14.1519 1.32888 14.1519 1.41375V1.57375H13.9919C13.907 1.57375 13.8256 1.60746 13.7656 1.66748C13.7056 1.72749 13.6719 1.80888 13.6719 1.89375C13.6719 1.97862 13.7056 2.06001 13.7656 2.12002C13.8256 2.18004 13.907 2.21375 13.9919 2.21375Z" fill="#151428"/>
</svg>
