<svg width="25" height="24" viewBox="0 0 25 24" fill="none" xmlns="http://www.w3.org/2000/svg"
id="course"
>
<path d="M11.8881 2.19008C11.2809 1.89568 10.6641 1.43968 10.0041 1.58128C9.76401 1.64322 9.53984 1.75558 9.34652 1.91088C8.05772 2.86608 7.47692 4.79968 8.31132 6.17168C8.63132 6.69968 9.12252 7.10448 9.63372 7.45168C10.7617 8.21728 12.1417 8.76208 13.4737 8.48608C14.8057 8.21008 15.9681 6.87168 15.6633 5.54368C15.5033 4.85568 15.3577 3.75168 14.8097 3.15008C13.8369 2.07968 13.0185 2.73648 11.8881 2.19008Z" fill="#66D099"/>
<path d="M13.6864 12.2969C13.6087 12.2969 13.5342 12.3277 13.4793 12.3826C13.4244 12.4375 13.3936 12.512 13.3936 12.5897C13.3936 12.6673 13.4244 12.7418 13.4793 12.7967C13.5342 12.8516 13.6087 12.8825 13.6864 12.8825H16.5624C16.64 12.8825 16.7145 12.8516 16.7694 12.7967C16.8243 12.7418 16.8552 12.6673 16.8552 12.5897C16.8552 12.512 16.8243 12.4375 16.7694 12.3826C16.7145 12.3277 16.64 12.2969 16.5624 12.2969H13.6864Z" fill="#141428"/>
<path d="M7.50081 12.2969C7.42315 12.2969 7.34868 12.3277 7.29377 12.3826C7.23886 12.4375 7.20801 12.512 7.20801 12.5897C7.20801 12.6673 7.23886 12.7418 7.29377 12.7967C7.34868 12.8516 7.42315 12.8825 7.50081 12.8825H10.6208C10.6985 12.8825 10.7729 12.8516 10.8278 12.7967C10.8828 12.7418 10.9136 12.6673 10.9136 12.5897C10.9136 12.512 10.8828 12.4375 10.8278 12.3826C10.7729 12.3277 10.6985 12.2969 10.6208 12.2969H7.50081Z" fill="#141428"/>
<path d="M20.8918 16.1244H16.7758C15.8958 16.1244 15.1494 16.4828 14.6278 17.1644C14.2278 17.6812 14.0022 18.3548 13.9502 19.0804H9.19177C9.07546 19.0791 8.96059 19.0545 8.85392 19.0081C8.74725 18.9617 8.65094 18.8945 8.57065 18.8103C8.49036 18.7262 8.42773 18.6268 8.38643 18.5181C8.34512 18.4093 8.326 18.2934 8.33017 18.1772C8.33038 17.9487 8.42122 17.7297 8.58276 17.5682C8.74429 17.4066 8.96332 17.3158 9.19177 17.3156H10.8766C11.2604 17.3152 11.6284 17.1624 11.8997 16.8909C12.171 16.6195 12.3236 16.2514 12.3238 15.8676V14.9436C12.6569 14.904 12.9669 14.7532 13.2038 14.5156C13.3296 14.3862 13.4312 14.2352 13.5038 14.07H22.511C22.5886 14.07 22.6631 14.0391 22.718 13.9842C22.7729 13.9293 22.8038 13.8548 22.8038 13.7772C22.8038 13.6995 22.7729 13.625 22.718 13.5701C22.6631 13.5152 22.5886 13.4844 22.511 13.4844H13.2998C13.2371 13.4844 13.176 13.5045 13.1256 13.5418C13.0752 13.5791 13.0381 13.6316 13.0198 13.6916C12.9754 13.8464 12.8948 13.9885 12.7846 14.106C12.6046 14.2892 12.351 14.3828 12.0318 14.3828C11.7126 14.3828 11.459 14.2892 11.279 14.106C11.1661 13.9897 11.0837 13.8473 11.039 13.6916C11.0206 13.6316 10.9835 13.5791 10.9331 13.5418C10.8827 13.5045 10.8217 13.4844 10.759 13.4844H1.55257C1.47491 13.4844 1.40044 13.5152 1.34552 13.5701C1.29061 13.625 1.25977 13.6995 1.25977 13.7772C1.25977 13.8548 1.29061 13.9293 1.34552 13.9842C1.40044 14.0391 1.47491 14.07 1.55257 14.07H10.5606C10.6332 14.2354 10.7348 14.3866 10.8606 14.5164C11.0977 14.7535 11.4076 14.9039 11.7406 14.9436V15.8676C11.7401 16.0962 11.6491 16.3153 11.4875 16.4769C11.3259 16.6386 11.1068 16.7296 10.8782 16.73H9.19177C8.80889 16.7389 8.4447 16.8973 8.17707 17.1713C7.90945 17.4452 7.75961 17.813 7.75961 18.196C7.75961 18.579 7.90945 18.9467 8.17707 19.2207C8.4447 19.4947 8.80889 19.653 9.19177 19.662H13.9398C14.0502 21.174 15.0198 22.6148 16.7758 22.6148H20.8918C21.7718 22.6148 22.5182 22.2564 23.0406 21.5748C23.491 20.9884 23.7398 20.2044 23.7398 19.3668C23.7398 17.7612 22.7614 16.1244 20.8918 16.1244ZM16.2478 19.1108H17.4774C17.5461 19.1108 17.612 19.1381 17.6606 19.1867C17.7093 19.2353 17.7366 19.3012 17.7366 19.37C17.7366 19.4387 17.7093 19.5046 17.6606 19.5533C17.612 19.6019 17.5461 19.6292 17.4774 19.6292H16.2478C16.179 19.6292 16.1131 19.6019 16.0645 19.5533C16.0159 19.5046 15.9886 19.4387 15.9886 19.37C15.9886 19.3012 16.0159 19.2353 16.0645 19.1867C16.1131 19.1381 16.179 19.1108 16.2478 19.1108ZM15.0918 17.5212C15.2878 17.2631 15.5424 17.0553 15.8345 16.9149C16.1265 16.7744 16.4478 16.7053 16.7718 16.7132H17.7318V18.5732C17.6483 18.5447 17.5608 18.5296 17.4726 18.5284H16.2478C16.0757 18.5289 15.9078 18.5821 15.7668 18.6807C15.6258 18.7794 15.5184 18.9189 15.459 19.0804H14.535C14.5846 18.4812 14.7718 17.9348 15.0918 17.5212ZM14.5318 19.6652H15.4598C15.5191 19.8268 15.6265 19.9663 15.7675 20.065C15.9086 20.1637 16.0764 20.2168 16.2486 20.2172H17.479C17.567 20.2163 17.6542 20.2012 17.7374 20.1724V22.0332H16.7774C15.3398 22.03 14.6342 20.8516 14.5342 19.662L14.5318 19.6652ZM22.5798 21.2212C22.3839 21.4795 22.1294 21.6875 21.8373 21.8281C21.5452 21.9687 21.2238 22.0379 20.8998 22.03H18.3222V16.71H20.8918C22.4462 16.71 23.1542 18.0884 23.1542 19.37C23.1542 20.0812 22.9486 20.7364 22.5798 21.2212Z" fill="#141428"/>
<path d="M11.127 7.08265C11.178 7.08262 11.2282 7.06939 11.2726 7.04425L14.3662 5.28425C14.4111 5.25867 14.4484 5.22166 14.4744 5.17697C14.5003 5.13229 14.514 5.08153 14.514 5.02985C14.514 4.97818 14.5003 4.92742 14.4744 4.88273C14.4484 4.83805 14.4111 4.80104 14.3662 4.77545L11.2726 3.01545C11.2281 2.98986 11.1776 2.97645 11.1263 2.97656C11.075 2.97668 11.0246 2.99032 10.9802 3.01612C10.9358 3.04192 10.899 3.07896 10.8735 3.1235C10.848 3.16805 10.8347 3.21853 10.835 3.26985V6.78985C10.8353 6.84045 10.8489 6.89008 10.8743 6.93385C10.8997 6.97762 10.936 7.01402 10.9798 7.03945C11.024 7.06694 11.0749 7.08187 11.127 7.08265ZM11.4198 3.76905L13.6302 5.02745L11.4198 6.28665V3.76905Z" fill="#141428"/>
<path d="M12.032 8.66761C12.7524 8.66761 13.4567 8.45399 14.0557 8.05376C14.6546 7.65353 15.1215 7.08466 15.3972 6.4191C15.6729 5.75354 15.745 5.02117 15.6045 4.31462C15.4639 3.60806 15.117 2.95905 14.6076 2.44965C14.0982 1.94025 13.4492 1.59334 12.7426 1.4528C12.0361 1.31226 11.3037 1.38439 10.6382 1.66008C9.9726 1.93576 9.40374 2.40262 9.0035 3.00161C8.60327 3.60059 8.38965 4.30482 8.38965 5.02521C8.3905 5.99098 8.77452 6.91695 9.45742 7.59984C10.1403 8.28274 11.0663 8.66677 12.032 8.66761ZM12.032 1.96841C12.6366 1.96841 13.2276 2.14769 13.7303 2.48358C14.233 2.81946 14.6248 3.29687 14.8562 3.85543C15.0875 4.41398 15.1481 5.0286 15.0301 5.62157C14.9122 6.21453 14.621 6.7592 14.1935 7.1867C13.766 7.6142 13.2214 7.90533 12.6284 8.02328C12.0354 8.14123 11.4208 8.08069 10.8623 7.84933C10.3037 7.61797 9.8263 7.22617 9.49041 6.72348C9.15453 6.22079 8.97525 5.62979 8.97525 5.02521C8.97588 4.2147 9.29814 3.43756 9.87127 2.86443C10.4444 2.29131 11.2215 1.96905 12.032 1.96841Z" fill="#141428"/>
<path d="M19.6243 9.48118H8.73386C8.67102 9.25097 8.53424 9.0478 8.34457 8.90297C8.15491 8.75814 7.9229 8.67969 7.68426 8.67969C7.44563 8.67969 7.21361 8.75814 7.02395 8.90297C6.83429 9.0478 6.6975 9.25097 6.63466 9.48118H4.44026C4.36261 9.48118 4.28813 9.51203 4.23322 9.56694C4.17831 9.62185 4.14746 9.69633 4.14746 9.77399C4.14746 9.85164 4.17831 9.92612 4.23322 9.98103C4.28813 10.0359 4.36261 10.0668 4.44026 10.0668H6.63466C6.6975 10.297 6.83429 10.5002 7.02395 10.645C7.21361 10.7898 7.44563 10.8683 7.68426 10.8683C7.9229 10.8683 8.15491 10.7898 8.34457 10.645C8.53424 10.5002 8.67102 10.297 8.73386 10.0668H19.6243C19.7019 10.0668 19.7764 10.0359 19.8313 9.98103C19.8862 9.92612 19.9171 9.85164 19.9171 9.77399C19.9171 9.69633 19.8862 9.62185 19.8313 9.56694C19.7764 9.51203 19.7019 9.48118 19.6243 9.48118ZM7.68426 10.2812C7.58363 10.2812 7.48526 10.2513 7.40159 10.1954C7.31791 10.1395 7.2527 10.0601 7.21419 9.96709C7.17568 9.87412 7.1656 9.77182 7.18524 9.67312C7.20487 9.57443 7.25333 9.48377 7.32449 9.41261C7.39564 9.34145 7.4863 9.29299 7.585 9.27336C7.6837 9.25373 7.786 9.26381 7.87897 9.30232C7.97194 9.34082 8.05141 9.40604 8.10731 9.48971C8.16322 9.57338 8.19306 9.67175 8.19306 9.77239C8.19327 9.83934 8.18027 9.90567 8.15479 9.96759C8.12932 10.0295 8.09187 10.0858 8.0446 10.1332C7.99734 10.1806 7.94118 10.2182 7.87934 10.2439C7.81751 10.2696 7.75121 10.2828 7.68426 10.2828V10.2812Z" fill="#141428"/>
</svg>
