<svg width="23" height="22" viewBox="0 0 23 22" fill="none" xmlns="http://www.w3.org/2000/svg"
id="dashboard"
>
<path d="M11.5407 7.42188C9.85401 8.13028 8.02874 9.35788 7.90994 11.2645C7.83148 12.5207 8.58021 13.7161 9.57461 14.4179C10.569 15.1197 11.7746 15.3925 12.9611 15.5465C13.7106 15.6433 14.4894 15.6931 15.2037 15.4365C15.9179 15.1798 16.5596 14.5455 16.6381 13.7549C16.7165 12.9644 16.0595 12.1174 15.3115 12.2267C16.3829 11.365 16.1431 9.44001 15.1142 8.51968C14.0853 7.59934 12.5996 7.50548 11.2693 7.74308" fill="#58D8A5"/>
<path d="M11.8868 14.5197C11.2142 14.5197 10.5568 14.3203 9.9976 13.9466C9.43839 13.573 9.00255 13.0419 8.74517 12.4205C8.4878 11.7992 8.42046 11.1154 8.55167 10.4558C8.68288 9.79619 9.00674 9.19029 9.4823 8.71473C9.95787 8.23916 10.5638 7.9153 11.2234 7.78409C11.883 7.65288 12.5667 7.72022 13.1881 7.9776C13.8095 8.23497 14.3405 8.67082 14.7142 9.23002C15.0878 9.78922 15.2873 10.4467 15.2873 11.1192C15.2863 12.0208 14.9277 12.8851 14.2902 13.5226C13.6527 14.1601 12.7884 14.5187 11.8868 14.5197ZM11.8868 9.12968C11.4933 9.12954 11.1085 9.2461 10.7813 9.46463C10.454 9.68315 10.1989 9.99382 10.0482 10.3573C9.89749 10.7209 9.85798 11.1209 9.93467 11.5069C10.0114 11.8929 10.2008 12.2475 10.479 12.5258C10.7572 12.8041 11.1117 12.9936 11.4977 13.0705C11.8836 13.1473 12.2837 13.1079 12.6473 12.9574C13.0108 12.8068 13.3216 12.5518 13.5402 12.2246C13.7589 11.8974 13.8756 11.5127 13.8756 11.1192C13.8746 10.5921 13.6648 10.0869 13.292 9.71425C12.9192 9.34161 12.4139 9.13193 11.8868 9.13115V9.12968Z" fill="#141428"/>
<path d="M11.8812 4.13535C12.0833 4.13535 12.2771 4.05507 12.42 3.91218C12.5629 3.76929 12.6431 3.57549 12.6431 3.37341V1.84881C12.6463 1.74672 12.6289 1.64503 12.592 1.54977C12.5552 1.45452 12.4995 1.36764 12.4284 1.29431C12.3573 1.22097 12.2722 1.16266 12.1781 1.12284C12.0841 1.08302 11.983 1.0625 11.8808 1.0625C11.7787 1.0625 11.6776 1.08302 11.5835 1.12284C11.4895 1.16266 11.4043 1.22097 11.3332 1.29431C11.2621 1.36764 11.2065 1.45452 11.1696 1.54977C11.1327 1.64503 11.1154 1.74672 11.1185 1.84881V3.37341C11.1187 3.57556 11.1992 3.76936 11.3422 3.91223C11.4852 4.05509 11.6791 4.13535 11.8812 4.13535Z" fill="#141428"/>
<path d="M11.8812 20.911C12.0833 20.9108 12.2771 20.8304 12.42 20.6874C12.5629 20.5443 12.6431 20.3505 12.6431 20.1483V19.0051C12.6463 18.903 12.6289 18.8013 12.592 18.706C12.5552 18.6108 12.4995 18.5239 12.4284 18.4506C12.3573 18.3772 12.2722 18.3189 12.1781 18.2791C12.0841 18.2393 11.983 18.2188 11.8808 18.2188C11.7787 18.2188 11.6776 18.2393 11.5835 18.2791C11.4895 18.3189 11.4043 18.3772 11.3332 18.4506C11.2621 18.5239 11.2065 18.6108 11.1696 18.706C11.1327 18.8013 11.1154 18.903 11.1185 19.0051V20.1483C11.1185 20.2485 11.1383 20.3477 11.1766 20.4402C11.2149 20.5327 11.2711 20.6168 11.3419 20.6876C11.4127 20.7584 11.4968 20.8146 11.5893 20.8529C11.6819 20.8913 11.781 20.911 11.8812 20.911Z" fill="#141428"/>
<path d="M2.35251 11.7597H3.87711C4.07938 11.7597 4.27337 11.6794 4.4164 11.5363C4.55943 11.3933 4.63978 11.1993 4.63978 10.997C4.63978 10.7948 4.55943 10.6008 4.4164 10.4578C4.27337 10.3147 4.07938 10.2344 3.87711 10.2344H2.35251C2.15024 10.2344 1.95625 10.3147 1.81322 10.4578C1.6702 10.6008 1.58984 10.7948 1.58984 10.997C1.58984 11.1993 1.6702 11.3933 1.81322 11.5363C1.95625 11.6794 2.15024 11.7597 2.35251 11.7597Z" fill="#141428"/>
<path d="M18.7412 10.997C18.7412 11.1993 18.8216 11.3933 18.9646 11.5363C19.1076 11.6794 19.3016 11.7597 19.5039 11.7597H20.6471C20.8494 11.7597 21.0434 11.6794 21.1864 11.5363C21.3295 11.3933 21.4098 11.1993 21.4098 10.997C21.4098 10.7948 21.3295 10.6008 21.1864 10.4578C21.0434 10.3147 20.8494 10.2344 20.6471 10.2344H19.5039C19.3016 10.2344 19.1076 10.3147 18.9646 10.4578C18.8216 10.6008 18.7412 10.7948 18.7412 10.997Z" fill="#141428"/>
<path d="M17.5129 6.66004C17.6987 6.66 17.8769 6.58644 18.0087 6.45544L19.0229 5.44051C19.1555 5.30835 19.2302 5.12891 19.2306 4.94167C19.2309 4.75443 19.1569 4.57472 19.0247 4.44208C18.8925 4.30943 18.7131 4.23472 18.5259 4.23438C18.3386 4.23403 18.1589 4.30808 18.0263 4.44024L17.0099 5.45518C16.9111 5.5542 16.844 5.68031 16.817 5.81753C16.79 5.95475 16.8044 6.09689 16.8582 6.22594C16.9121 6.35499 17.0031 6.46514 17.1197 6.54242C17.2362 6.6197 17.3731 6.66064 17.5129 6.66004Z" fill="#141428"/>
<path d="M6.18639 16.278L5.17145 17.29C5.04428 17.4235 4.97435 17.6014 4.97662 17.7858C4.97888 17.9702 5.05316 18.1463 5.18359 18.2767C5.31401 18.407 5.49023 18.4811 5.6746 18.4833C5.85896 18.4854 6.03685 18.4154 6.17025 18.2881L7.18445 17.2731C7.25489 17.2088 7.31153 17.1308 7.35097 17.0439C7.3904 16.9571 7.41181 16.8631 7.41388 16.7677C7.41596 16.6723 7.39867 16.5775 7.36306 16.489C7.32745 16.4005 7.27425 16.3201 7.20669 16.2528C7.13913 16.1854 7.05861 16.1324 6.96999 16.0971C6.88138 16.0617 6.78652 16.0447 6.69114 16.0471C6.59576 16.0495 6.50186 16.0711 6.4151 16.1108C6.32834 16.1505 6.25054 16.2074 6.18639 16.278Z" fill="#141428"/>
<path d="M5.84859 6.45628C5.98124 6.58863 6.16102 6.66287 6.3484 6.66267C6.53578 6.66246 6.71541 6.58783 6.84776 6.45518C6.98011 6.32254 7.05435 6.14275 7.05414 5.95537C7.05394 5.76799 6.9793 5.58837 6.84666 5.45601L5.83173 4.44108C5.76619 4.37555 5.68839 4.32356 5.60277 4.2881C5.51714 4.25263 5.42537 4.23438 5.33269 4.23438C5.14552 4.23438 4.96601 4.30873 4.83366 4.44108C4.76813 4.50662 4.71614 4.58442 4.68067 4.67004C4.64521 4.75566 4.62695 4.84744 4.62695 4.94011C4.62695 5.12729 4.70131 5.3068 4.83366 5.43915L5.84859 6.45628Z" fill="#141428"/>
<path d="M17.6875 18.2871C17.753 18.3527 17.8308 18.4048 17.9165 18.4404C18.0021 18.4759 18.094 18.4942 18.1867 18.4943C18.2795 18.4944 18.3713 18.4762 18.457 18.4407C18.5427 18.4053 18.6206 18.3534 18.6863 18.2878C18.7519 18.2223 18.804 18.1445 18.8395 18.0588C18.8751 17.9731 18.8934 17.8813 18.8935 17.7886C18.8936 17.6958 18.8754 17.604 18.8399 17.5183C18.8045 17.4325 18.7525 17.3546 18.687 17.289L17.6706 16.277C17.5382 16.1447 17.3587 16.0703 17.1716 16.0703C16.9844 16.0703 16.8049 16.1447 16.6725 16.277C16.5402 16.4094 16.4658 16.5889 16.4658 16.7761C16.4658 16.9632 16.5402 17.1427 16.6725 17.2751L17.6875 18.2871Z" fill="#141428"/>
</svg>
