<svg width="17" height="17" viewBox="0 0 17 17" fill="none" xmlns="http://www.w3.org/2000/svg" id="heart">
<path d="M8.61125 14.9331C8.40458 14.9331 8.20458 14.9064 8.03791 14.8464C5.49125 13.9731 1.44458 10.8731 1.44458 6.29307C1.44458 3.95974 3.33125 2.06641 5.65125 2.06641C6.77791 2.06641 7.83125 2.50641 8.61125 3.29307C9.39125 2.50641 10.4446 2.06641 11.5712 2.06641C13.8912 2.06641 15.7779 3.96641 15.7779 6.29307C15.7779 10.8797 11.7312 13.9731 9.18458 14.8464C9.01791 14.9064 8.81791 14.9331 8.61125 14.9331ZM5.65125 3.06641C3.88458 3.06641 2.44458 4.51307 2.44458 6.29307C2.44458 10.8464 6.82458 13.3797 8.36458 13.9064C8.48458 13.9464 8.74458 13.9464 8.86458 13.9064C10.3979 13.3797 14.7846 10.8531 14.7846 6.29307C14.7846 4.51307 13.3446 3.06641 11.5779 3.06641C10.5646 3.06641 9.62458 3.53974 9.01791 4.35974C8.83125 4.61307 8.40458 4.61307 8.21791 4.35974C7.59791 3.53307 6.66458 3.06641 5.65125 3.06641Z" fill="currentColor"/>
</svg>
