<svg xmlns="http://www.w3.org/2000/svg" width="25" height="24" viewBox="0 0 25 24" fill="none"
id="live-event"
>
  <path d="M21.5148 7.91853C21.4244 7.82573 21.2548 7.90893 21.206 8.02893C21.1572 8.14893 21.182 8.28493 21.1748 8.41453C21.1612 8.68253 21.0132 8.95692 21.114 9.20492C21.1628 9.32412 21.2628 9.41532 21.3732 9.48172C21.6956 9.67692 22.1252 9.67932 22.45 9.48732C22.7748 9.29532 22.9796 8.91773 22.9636 8.54093C22.958 8.40093 22.9188 8.25453 22.8172 8.15853C22.7092 8.05613 22.5516 8.02893 22.4044 8.00653C22.0156 7.94733 21.6268 7.88733 21.238 7.82812" fill="#00D99E"/>
  <path d="M15.2801 2.64435C15.2209 3.02835 15.3785 3.43875 15.6801 3.68355C15.7713 3.75795 15.8769 3.81875 15.9921 3.83955C16.1953 3.87635 16.4161 3.77475 16.5217 3.59715C16.6273 3.41955 16.6081 3.17635 16.4777 3.01635C16.3929 2.91235 16.2673 2.84275 16.1937 2.72995C16.1321 2.63475 16.1129 2.51795 16.0609 2.41715C15.9345 2.17075 15.5961 2.05955 15.3489 2.18435C15.2137 2.51155 15.1985 2.88675 15.3073 3.22355" fill="#8000FF"/>
  <path d="M16.2127 2.35394C16.4967 1.86514 16.8255 1.58594 17.1759 1.58594C18.2559 1.58594 19.1311 4.23874 19.1311 7.51154C19.1311 10.7843 18.2559 13.4371 17.1759 13.4371C16.0959 13.4371 15.2207 10.7843 15.2207 7.51154C15.2207 6.06594 15.3911 4.74114 15.6751 3.71314" stroke="#151428" stroke-width="0.64" stroke-miterlimit="10"/>
  <path d="M22.1758 9.35278C22.4142 9.80398 22.4718 10.1936 22.3078 10.4776C21.7678 11.4128 19.0326 10.8448 16.199 9.20798C13.3654 7.57198 11.5054 5.48718 12.0454 4.55198C12.5846 3.61678 15.3198 4.18478 18.1542 5.82158C19.467 6.57918 20.5702 7.43358 21.323 8.22478" stroke="#151428" stroke-width="0.64" stroke-miterlimit="10"/>
  <path d="M14.266 10.7936C15.3668 10.5608 16.7484 10.0112 18.1532 9.19999C20.9876 7.56399 22.8468 5.47919 22.3068 4.54399C21.7668 3.60879 19.0316 4.17759 16.198 5.81359C13.3644 7.45039 11.5044 9.53439 12.0444 10.4696C12.178 10.7016 12.4468 10.8408 12.8188 10.8944" stroke="#141428" stroke-width="0.64" stroke-miterlimit="10"/>
  <path d="M21.7782 9.46664C22.1768 9.46664 22.4998 9.14357 22.4998 8.74504C22.4998 8.34651 22.1768 8.02344 21.7782 8.02344C21.3797 8.02344 21.0566 8.34651 21.0566 8.74504C21.0566 9.14357 21.3797 9.46664 21.7782 9.46664Z" stroke="#151428" stroke-width="0.64" stroke-miterlimit="10"/>
  <path d="M15.9423 3.74789C16.3408 3.74789 16.6639 3.42482 16.6639 3.02629C16.6639 2.62776 16.3408 2.30469 15.9423 2.30469C15.5438 2.30469 15.2207 2.62776 15.2207 3.02629C15.2207 3.42482 15.5438 3.74789 15.9423 3.74789Z" stroke="#151428" stroke-width="0.64" stroke-miterlimit="10"/>
  <path d="M13.5966 11.6307C13.9951 11.6307 14.3182 11.3076 14.3182 10.9091C14.3182 10.5106 13.9951 10.1875 13.5966 10.1875C13.1981 10.1875 12.875 10.5106 12.875 10.9091C12.875 11.3076 13.1981 11.6307 13.5966 11.6307Z" stroke="#151428" stroke-width="0.64" stroke-miterlimit="10"/>
  <path d="M18.0975 7.51263C18.0975 7.99423 17.7071 8.38463 17.2255 8.38463C16.7439 8.38463 16.3535 7.99423 16.3535 7.51263C16.3535 7.03103 16.7439 6.64062 17.2255 6.64062C17.7071 6.64062 18.0975 7.03103 18.0975 7.51263Z" stroke="#151428" stroke-width="0.64" stroke-miterlimit="10"/>
  <path d="M20.7188 17.7614V11.4766" stroke="white" stroke-width="0.64" stroke-miterlimit="10"/>
  <path d="M11.5898 6.32812H2.561C2.2786 6.32812 2.0498 6.55772 2.0498 6.83932V17.7601" stroke="#141428" stroke-width="0.64" stroke-miterlimit="10"/>
  <path d="M11.6862 7.41406H3.16699V16.6677H19.6006V11.4301" stroke="#141428" stroke-width="0.64" stroke-miterlimit="10"/>
  <path d="M2.03516 17.75V19.3252C2.03516 19.6276 2.34476 19.9636 2.64716 19.9636H20.2512C20.5528 19.9636 20.7344 19.6532 20.7344 19.3516V17.7508H2.03516V17.75Z" stroke="#141428" stroke-width="0.64" stroke-miterlimit="10"/>
  <path d="M14.3139 22.4078C14.1475 22.3358 13.9475 22.2454 13.8299 22.1806C13.6235 22.0662 13.5827 22.0534 13.5059 21.6638C13.4219 21.2382 13.4907 20.3894 13.4587 19.9974L9.31633 19.9766C9.28353 20.3678 9.35393 21.239 9.26913 21.6638C9.19233 22.0534 9.13793 22.0662 8.93153 22.1806C8.81473 22.2454 8.61792 22.3342 8.45312 22.4054" stroke="#141428" stroke-width="0.64" stroke-miterlimit="10"/>
  <path d="M7.93066 22.4062H14.8379" stroke="#141428" stroke-width="0.64" stroke-miterlimit="10"/>
  <path d="M6.89129 14.2109C6.18649 14.2701 5.46249 14.3717 4.69449 14.5165C4.32489 14.5877 4.02649 14.8485 4.02729 15.0853C3.99129 15.3037 4.02089 16.6837 4.02729 16.8645" stroke="#141428" stroke-width="0.64" stroke-miterlimit="10"/>
  <path d="M12.6159 16.8641C12.6223 16.7153 12.6519 15.3033 12.6159 15.0849C12.6159 14.8481 12.3183 14.5873 11.9487 14.5161C11.1079 14.3577 10.3207 14.2505 9.55273 14.1953" stroke="#141428" stroke-width="0.64" stroke-miterlimit="10"/>
  <path d="M9.50031 15.2279C9.53711 14.9663 9.57471 14.1735 9.61231 13.9119C9.85711 13.7551 10.0331 13.5239 10.0483 13.3311C10.0771 13.0887 10.1059 12.8463 10.1339 12.6023C10.1683 12.6383 10.2139 12.6639 10.2659 12.6695C10.3827 12.6807 10.4867 12.5959 10.4979 12.4799L10.6139 11.3583C10.6259 11.2423 10.5411 11.1383 10.4251 11.1271C10.3811 11.1223 10.3387 11.1319 10.3019 11.1519C10.3267 10.9375 10.3515 10.7255 10.3755 10.5119C10.3955 10.2191 10.5395 9.43914 9.97631 8.93594C9.16111 8.13594 7.36831 8.13594 6.55311 8.93594C5.98991 9.43914 6.13471 10.2191 6.15391 10.5119C6.17871 10.7255 6.20351 10.9383 6.22751 11.1519C6.19231 11.1319 6.14831 11.1223 6.10431 11.1271C5.98911 11.1391 5.90351 11.2423 5.91631 11.3583L6.03231 12.4799C6.04351 12.5959 6.14751 12.6807 6.26431 12.6695C6.31631 12.6639 6.36191 12.6383 6.39551 12.6023C6.42351 12.8463 6.45151 13.0887 6.48031 13.3311C6.49711 13.5239 6.67311 13.7551 6.91871 13.9119C6.95551 14.1735 6.99311 14.9655 7.02911 15.2279L8.16111 16.2319L9.49791 15.2279H9.50031Z" stroke="#141428" stroke-width="0.64" stroke-miterlimit="10"/>
  <path d="M9.50031 15.2279C9.53711 14.9663 9.57471 14.1735 9.61231 13.9119C9.85711 13.7551 10.0331 13.5239 10.0483 13.3311C10.0771 13.0887 10.1059 12.8463 10.1339 12.6023C10.1683 12.6383 10.2139 12.6639 10.2659 12.6695C10.3827 12.6807 10.4867 12.5959 10.4979 12.4799L10.6139 11.3583C10.6259 11.2423 10.5411 11.1383 10.4251 11.1271C10.3811 11.1223 10.3387 11.1319 10.3019 11.1519C10.3267 10.9375 10.3515 10.7255 10.3755 10.5119C10.3955 10.2191 10.5395 9.43914 9.97631 8.93594C9.16111 8.13594 7.36831 8.13594 6.55311 8.93594C5.98991 9.43914 6.13471 10.2191 6.15391 10.5119C6.17871 10.7255 6.20351 10.9383 6.22751 11.1519C6.19231 11.1319 6.14831 11.1223 6.10431 11.1271C5.98911 11.1391 5.90351 11.2423 5.91631 11.3583L6.03231 12.4799C6.04351 12.5959 6.14751 12.6807 6.26431 12.6695C6.31631 12.6639 6.36191 12.6383 6.39551 12.6023C6.42351 12.8463 6.45151 13.0887 6.48031 13.3311C6.49711 13.5239 6.67311 13.7551 6.91871 13.9119C6.95551 14.1735 6.99311 14.9655 7.02911 15.2279L8.16111 16.2319L9.49791 15.2279H9.50031Z" stroke="#141428" stroke-width="0.64" stroke-miterlimit="10"/>
  <path d="M8.79765 14.337H7.78325L6.88965 13.8906" stroke="#141428" stroke-width="0.64" stroke-miterlimit="10"/>
  <path d="M8.97085 18.5105C8.91005 18.5049 8.84925 18.5025 8.78925 18.5025C8.50285 18.5025 8.22045 18.5601 7.93805 18.6065C7.22925 18.7233 6.51085 18.7769 5.79245 18.7657C5.54765 18.7617 5.29965 18.7505 5.06525 18.6777C4.89405 18.6249 4.73485 18.5401 4.57165 18.4665C3.96045 18.1921 3.29325 18.0729 2.62925 17.9817C2.52605 17.9673 2.41645 17.9553 2.32285 18.0009C2.13005 18.0953 2.24765 18.3585 2.26765 18.5177C2.30205 18.7889 2.33645 19.0609 2.37005 19.3321C2.38045 19.4161 2.39245 19.5017 2.43565 19.5745C2.57645 19.8097 3.27245 19.7329 3.50765 19.7281C4.10445 19.7161 4.70045 19.7041 5.29725 19.6921C6.63005 19.6649 7.95405 19.6177 9.28685 19.6305C9.52765 19.6329 10.002 19.6977 9.99485 19.3465C9.99005 19.1193 9.77805 18.8545 9.60205 18.7281C9.41885 18.5969 9.19645 18.5313 8.97005 18.5105H8.97085Z" fill="#00D99E"/>
  <path d="M19.2647 15.5738C19.2647 15.777 19.2567 15.9994 19.1207 16.1506C18.9807 16.305 18.7511 16.333 18.5431 16.341C17.9135 16.3666 17.2863 16.3218 16.6567 16.3802C16.4359 16.4002 16.2135 16.429 15.9919 16.4138C15.6695 16.3922 15.3615 16.2794 15.0591 16.1682C15.0247 16.1554 14.9879 16.141 14.9671 16.1114C14.9503 16.0866 14.9471 16.0562 14.9463 16.0258C14.9423 15.7058 15.2303 15.4618 15.5151 15.3146C15.9383 15.0962 16.4055 14.9842 16.8719 14.9034C17.2887 14.8322 17.6983 14.8202 18.0431 14.5434C18.2775 14.3554 18.9391 13.3322 19.2655 13.8162C19.3727 13.9746 19.2767 14.3514 19.2703 14.5242C19.2575 14.8738 19.2647 15.2242 19.2639 15.5738H19.2647Z" fill="#FF571E"/>
</svg>
