<svg id='noWishlist' xmlns="http://www.w3.org/2000/svg" width="40" height="50" viewBox="0 0 40 50" fill="none">
<path d="M15.7213 12.5234C15.7213 12.7555 15.6291 12.9781 15.465 13.1422C15.3009 13.3063 15.0783 13.3984 14.8463 13.3984H6.69129C6.45922 13.3984 6.23666 13.3063 6.07257 13.1422C5.90847 12.9781 5.81628 12.7555 5.81628 12.5234C5.81628 12.2914 5.90847 12.0688 6.07257 11.9047C6.23666 11.7406 6.45922 11.6484 6.69129 11.6484H14.8463C15.0783 11.6484 15.3009 11.7406 15.465 11.9047C15.6291 12.0688 15.7213 12.2914 15.7213 12.5234Z" fill="#352C88"/>
<path d="M26.8162 11.5688L23.2462 14.5001C23.0879 14.6289 22.8903 14.6999 22.6862 14.7013C22.4757 14.7032 22.2724 14.625 22.1175 14.4826L19.685 12.3651C19.5098 12.213 19.4023 11.9976 19.3859 11.7663C19.3695 11.535 19.4456 11.3066 19.5975 11.1313C19.7512 10.9559 19.968 10.8482 20.2007 10.8318C20.4334 10.8154 20.6632 10.8916 20.84 11.0438L22.7037 12.6801L25.7137 10.2126C25.8019 10.1395 25.9037 10.0847 26.0132 10.0513C26.1228 10.0179 26.2378 10.0066 26.3518 10.018C26.4657 10.0294 26.5763 10.0633 26.677 10.1177C26.7778 10.1721 26.8667 10.246 26.9387 10.3351C27.0119 10.424 27.0668 10.5266 27.1002 10.6368C27.1337 10.747 27.1451 10.8628 27.1337 10.9774C27.1223 11.092 27.0884 11.2033 27.0339 11.3048C26.9794 11.4062 26.9054 11.496 26.8162 11.5688Z" fill="#352C88"/>
<path d="M15.7213 20.6777C15.7213 20.9098 15.6291 21.1324 15.465 21.2965C15.3009 21.4605 15.0783 21.5527 14.8463 21.5527H6.69129C6.45922 21.5527 6.23666 21.4605 6.07257 21.2965C5.90847 21.1324 5.81628 20.9098 5.81628 20.6777C5.81628 20.4457 5.90847 20.2231 6.07257 20.059C6.23666 19.8949 6.45922 19.8027 6.69129 19.8027H14.8463C15.0783 19.8027 15.3009 19.8949 15.465 20.059C15.6291 20.2231 15.7213 20.4457 15.7213 20.6777Z" fill="#352C88"/>
<path d="M26.8162 19.7231L23.2462 22.6544C23.0899 22.7868 22.891 22.8583 22.6862 22.8556C22.4757 22.8575 22.2724 22.7793 22.1175 22.6369L19.685 20.5194C19.5098 20.3673 19.4023 20.1519 19.3859 19.9206C19.3695 19.6893 19.4456 19.4609 19.5975 19.2856C19.7512 19.1101 19.968 19.0025 20.2007 18.9861C20.4334 18.9697 20.6632 19.0459 20.84 19.1981L22.7037 20.8344L25.7137 18.3669C25.8019 18.2938 25.9037 18.239 26.0132 18.2056C26.1228 18.1722 26.2378 18.1609 26.3518 18.1723C26.4657 18.1837 26.5763 18.2176 26.677 18.272C26.7778 18.3264 26.8667 18.4003 26.9387 18.4894C27.0119 18.5783 27.0668 18.6809 27.1002 18.7911C27.1337 18.9013 27.1451 19.0171 27.1337 19.1317C27.1223 19.2463 27.0884 19.3576 27.0339 19.4591C26.9794 19.5605 26.9054 19.6503 26.8162 19.7231Z" fill="#352C88"/>
<path d="M15.7213 28.832C15.7213 29.0641 15.6291 29.2867 15.465 29.4508C15.3009 29.6148 15.0783 29.707 14.8463 29.707H6.69129C6.45922 29.707 6.23666 29.6148 6.07257 29.4508C5.90847 29.2867 5.81628 29.0641 5.81628 28.832C5.81628 28.6 5.90847 28.3774 6.07257 28.2133C6.23666 28.0492 6.45922 27.957 6.69129 27.957H14.8463C15.0783 27.957 15.3009 28.0492 15.465 28.2133C15.6291 28.3774 15.7213 28.6 15.7213 28.832Z" fill="#352C88"/>
<path d="M26.8162 27.8792L23.2462 30.8192C23.0871 30.9455 22.8894 31.0135 22.6862 31.0117C22.4775 31.0127 22.2754 30.9381 22.1175 30.8017L19.685 28.6754C19.5098 28.5234 19.4023 28.308 19.3859 28.0767C19.3695 27.8453 19.4456 27.6169 19.5975 27.4417C19.7523 27.2673 19.9697 27.1611 20.2025 27.1464C20.4352 27.1316 20.6644 27.2095 20.84 27.3629L22.7037 28.9904L25.7137 26.5229C25.8948 26.3902 26.1199 26.332 26.3426 26.3606C26.5653 26.3892 26.7685 26.5024 26.9101 26.6766C27.0518 26.8508 27.121 27.0728 27.1035 27.2967C27.086 27.5205 26.9832 27.7291 26.8162 27.8792Z" fill="#352C88"/>
<path d="M15.7213 36.9883C15.7213 37.2203 15.6291 37.4429 15.465 37.607C15.3009 37.7711 15.0783 37.8633 14.8463 37.8633H6.69129C6.45922 37.8633 6.23666 37.7711 6.07257 37.607C5.90847 37.4429 5.81628 37.2203 5.81628 36.9883C5.81628 36.7562 5.90847 36.5337 6.07257 36.3696C6.23666 36.2055 6.45922 36.1133 6.69129 36.1133H14.8463C15.0783 36.1133 15.3009 36.2055 15.465 36.3696C15.6291 36.5337 15.7213 36.7562 15.7213 36.9883Z" fill="#352C88"/>
<path d="M32.0313 30.6525V5.68875C32.0111 4.82833 31.6507 4.01098 31.0292 3.41567C30.4076 2.82036 29.5755 2.4956 28.715 2.5125H23.0625V1.8125C23.0611 1.3488 22.8763 0.904482 22.5484 0.576593C22.2205 0.248704 21.7762 0.0638849 21.3125 0.0625H11.6438C11.1801 0.0638849 10.7357 0.248704 10.4079 0.576593C10.08 0.904482 9.89515 1.3488 9.89376 1.8125V2.5125H4.24126C3.37987 2.49534 2.54668 2.81975 1.92368 3.41487C1.30069 4.01 0.938512 4.82747 0.91626 5.68875V42.675C0.936465 43.5377 1.29772 44.3573 1.92091 44.9543C2.5441 45.5512 3.37845 45.8769 4.24126 45.86H21.2688C22.1862 47.1282 23.3928 48.1592 24.7886 48.8676C26.1843 49.576 27.7289 49.9412 29.2941 49.9331C30.8592 49.925 32.3999 49.5436 33.7882 48.8208C35.1765 48.0979 36.3724 47.0544 37.2765 45.7768C38.1807 44.4991 38.7672 43.0243 38.9872 41.4746C39.2072 39.9249 39.0544 38.3451 38.5415 36.8664C38.0287 35.3876 37.1705 34.0524 36.0382 32.9717C34.906 31.891 33.5323 31.0959 32.0313 30.6525ZM11.6438 1.8125H21.3125V4.95375H11.6438V1.8125ZM4.24126 44.11C3.84391 44.1217 3.45755 43.9786 3.16371 43.7109C2.86986 43.4431 2.6915 43.0717 2.66626 42.675V5.68875C2.69345 5.29351 2.87269 4.92417 3.16635 4.65824C3.46001 4.39232 3.84527 4.25048 4.24126 4.2625H9.89376V4.95375C9.89376 5.41788 10.0781 5.863 10.4063 6.19119C10.7345 6.51938 11.1796 6.70375 11.6438 6.70375H21.3125C21.7766 6.70375 22.2218 6.51938 22.55 6.19119C22.8781 5.863 23.0625 5.41788 23.0625 4.95375V4.2625H28.715C29.1101 4.25058 29.4944 4.3927 29.7866 4.65883C30.0789 4.92496 30.2562 5.29427 30.2813 5.68875V30.3025C29.9325 30.2641 29.5821 30.2437 29.2313 30.2413C27.5882 30.2395 25.9708 30.6495 24.527 31.4338C23.0832 32.2181 21.8589 33.3517 20.9661 34.7311C20.0732 36.1104 19.5402 37.6915 19.4158 39.3298C19.2913 40.9682 19.5794 42.6117 20.2538 44.11H4.24126ZM29.2313 48.1875C27.6296 48.1866 26.0642 47.7108 24.7329 46.8203C23.4017 45.9297 22.3644 44.6644 21.7523 43.1844C21.1401 41.7043 20.9807 40.0759 21.294 38.5052C21.6073 36.9345 22.3793 35.492 23.5125 34.36C24.6456 33.2281 26.089 32.4576 27.6601 32.146C29.2311 31.8344 30.8593 31.9956 32.3387 32.6094C33.8181 33.2231 35.0823 34.2617 35.9714 35.5939C36.8605 36.9262 37.3346 38.4921 37.3338 40.0938C37.3312 42.2411 36.4765 44.2996 34.9572 45.8172C33.438 47.3347 31.3786 48.1873 29.2313 48.1875Z" fill="#352C88"/>
<path d="M35.3301 37.7842C35.3213 37.6879 35.3038 37.6004 35.2863 37.5042C35.1662 36.784 34.794 36.1299 34.2363 35.6587C33.6785 35.1875 32.9715 34.9298 32.2413 34.9317H32.2238C31.0992 34.9569 30.0275 35.4144 29.2313 36.2092C28.4371 35.4116 27.3642 34.9536 26.2388 34.9317H26.2301C25.9451 34.934 25.6621 34.9783 25.3901 35.0629C25.3422 35.0694 25.2953 35.0811 25.2501 35.0979C24.4879 35.3522 23.8563 35.8959 23.4913 36.6117C23.4826 36.6379 23.4738 36.6554 23.4651 36.6817C23.3312 36.9442 23.2341 37.2239 23.1763 37.5129C23.1588 37.6004 23.1501 37.6879 23.1326 37.7842C22.5638 42.0717 26.9563 45.2917 28.2863 46.1579L28.7326 46.4642C28.8759 46.5732 29.0513 46.6316 29.2313 46.6304C29.4141 46.6317 29.5923 46.5734 29.7388 46.4642L30.1501 46.1754C31.5063 45.2917 35.8988 42.0717 35.3301 37.7842ZM29.2313 44.6879C26.8951 43.1479 24.5238 40.6017 24.8738 38.0117L24.9001 37.8279C24.9457 37.5084 25.1056 37.2162 25.3502 37.0054C25.5947 36.7947 25.9073 36.6797 26.2301 36.6817C26.6885 36.6998 27.1345 36.8367 27.5241 37.0791C27.9137 37.3214 28.2336 37.6609 28.4526 38.0642C28.5334 38.1984 28.6476 38.3095 28.7841 38.3866C28.9205 38.4637 29.0746 38.5042 29.2313 38.5042C29.388 38.5042 29.5421 38.4637 29.6785 38.3866C29.815 38.3095 29.9292 38.1984 30.0101 38.0642C30.2298 37.6616 30.55 37.3228 30.9394 37.0805C31.3289 36.8383 31.7743 36.7009 32.2326 36.6817C32.5544 36.6779 32.8667 36.7912 33.1114 37.0004C33.356 37.2096 33.5163 37.5006 33.5626 37.8192L33.5976 38.0117C33.9388 40.5929 31.5938 43.1304 29.2313 44.6879Z" fill="#352C88"/>
</svg>
