<svg xmlns="http://www.w3.org/2000/svg" width="23" height="22" viewBox="0 0 23 22" fill="none"

id="playground">
  <path d="M11.1664 17.3934C11.6863 17.928 12.4504 18.1583 13.194 18.2192C15.0963 18.3754 17.0521 17.4858 18.1866 15.9524C21.9068 10.9218 16.453 9.01216 13.6619 6.33696C11.3688 4.13696 10.1705 3.03696 6.9409 5.05069C5.2513 6.10302 3.0733 8.27296 4.53263 10.2808C5.65537 11.8208 8.32103 11.0259 9.59263 12.5754C10.6978 13.9248 9.89183 16.0844 11.1664 17.3934Z" fill="#58D8A5"/>
  <path d="M3.64661 3.77457H3.80868V3.93664C3.80659 3.98045 3.81342 4.02423 3.82875 4.06533C3.84408 4.10643 3.86759 4.14399 3.89786 4.17573C3.92813 4.20748 3.96453 4.23275 4.00485 4.25001C4.04517 4.26728 4.08858 4.27618 4.13244 4.27618C4.17631 4.27618 4.21971 4.26728 4.26004 4.25001C4.30036 4.23275 4.33676 4.20748 4.36703 4.17573C4.3973 4.14399 4.42081 4.10643 4.43614 4.06533C4.45147 4.02423 4.4583 3.98045 4.45621 3.93664V3.77457H4.61828C4.66209 3.77666 4.70587 3.76983 4.74697 3.7545C4.78807 3.73917 4.82563 3.71566 4.85737 3.68539C4.88912 3.65512 4.91439 3.61872 4.93165 3.5784C4.94892 3.53807 4.95782 3.49467 4.95782 3.4508C4.95782 3.40694 4.94892 3.36353 4.93165 3.32321C4.91439 3.28289 4.88912 3.24649 4.85737 3.21622C4.82563 3.18595 4.78807 3.16244 4.74697 3.14711C4.70587 3.13178 4.66209 3.12495 4.61828 3.12704H4.45988V2.96497C4.45592 2.88177 4.42008 2.80328 4.35979 2.7458C4.29951 2.68832 4.21941 2.65625 4.13611 2.65625C4.05281 2.65625 3.97271 2.68832 3.91243 2.7458C3.85215 2.80328 3.8163 2.88177 3.81234 2.96497V3.12704H3.64661C3.56341 3.131 3.48492 3.16684 3.42744 3.22712C3.36996 3.28741 3.33789 3.36751 3.33789 3.4508C3.33789 3.5341 3.36996 3.6142 3.42744 3.67448C3.48492 3.73477 3.56341 3.77061 3.64661 3.77457Z" fill="#151428"/>
  <path d="M19.1911 8.57759H21.2958C21.3396 8.57967 21.3834 8.57285 21.4245 8.55752C21.4656 8.54219 21.5031 8.51867 21.5349 8.4884C21.5666 8.45813 21.5919 8.42174 21.6092 8.38141C21.6264 8.34109 21.6353 8.29768 21.6353 8.25382C21.6353 8.20996 21.6264 8.16655 21.6092 8.12623C21.5919 8.08591 21.5666 8.04951 21.5349 8.01924C21.5031 7.98897 21.4656 7.96546 21.4245 7.95013C21.3834 7.9348 21.3396 7.92797 21.2958 7.93005H19.1911C19.1473 7.92797 19.1035 7.9348 19.0624 7.95013C19.0213 7.96546 18.9838 7.98897 18.952 8.01924C18.9203 8.04951 18.895 8.08591 18.8777 8.12623C18.8605 8.16655 18.8516 8.20996 18.8516 8.25382C18.8516 8.29768 18.8605 8.34109 18.8777 8.38141C18.895 8.42174 18.9203 8.45813 18.952 8.4884C18.9838 8.51867 19.0213 8.54219 19.0624 8.55752C19.1035 8.57285 19.1473 8.57967 19.1911 8.57759Z" fill="#151428"/>
  <path d="M3.16181 11.062H4.61895C4.66276 11.064 4.70654 11.0572 4.74764 11.0419C4.78874 11.0266 4.82629 11.003 4.85804 10.9728C4.88978 10.9425 4.91506 10.9061 4.93232 10.8658C4.94959 10.8255 4.95849 10.7821 4.95849 10.7382C4.95849 10.6943 4.94959 10.6509 4.93232 10.6106C4.91506 10.5703 4.88978 10.5339 4.85804 10.5036C4.82629 10.4733 4.78874 10.4498 4.74764 10.4345C4.70654 10.4192 4.66276 10.4123 4.61895 10.4144H3.16181C3.118 10.4123 3.07422 10.4192 3.03312 10.4345C2.99202 10.4498 2.95446 10.4733 2.92272 10.5036C2.89097 10.5339 2.8657 10.5703 2.84844 10.6106C2.83117 10.6509 2.82227 10.6943 2.82227 10.7382C2.82227 10.7821 2.83117 10.8255 2.84844 10.8658C2.8657 10.9061 2.89097 10.9425 2.92272 10.9728C2.95446 11.003 2.99202 11.0266 3.03312 11.0419C3.07422 11.0572 3.118 11.064 3.16181 11.062Z" fill="#151428"/>
  <path d="M21.2966 8.95349H17.7341C17.6903 8.95141 17.6465 8.95823 17.6054 8.97356C17.5643 8.98889 17.5267 9.01241 17.495 9.04268C17.4632 9.07295 17.438 9.10934 17.4207 9.14967C17.4034 9.18999 17.3945 9.23339 17.3945 9.27726C17.3945 9.32112 17.4034 9.36453 17.4207 9.40485C17.438 9.44517 17.4632 9.48157 17.495 9.51184C17.5267 9.54211 17.5643 9.56562 17.6054 9.58095C17.6465 9.59628 17.6903 9.60311 17.7341 9.60103H21.2959C21.3397 9.60311 21.3835 9.59628 21.4246 9.58095C21.4657 9.56562 21.5032 9.54211 21.535 9.51184C21.5667 9.48157 21.592 9.44517 21.6093 9.40485C21.6265 9.36453 21.6354 9.32112 21.6354 9.27726C21.6354 9.23339 21.6265 9.18999 21.6093 9.14967C21.592 9.10934 21.5667 9.07295 21.535 9.04268C21.5032 9.01241 21.4657 8.98889 21.4246 8.97356C21.3835 8.95823 21.3397 8.95141 21.2959 8.95349H21.2966Z" fill="#151428"/>
  <path d="M21.2966 8.95349H17.7341C17.6903 8.95141 17.6465 8.95823 17.6054 8.97356C17.5643 8.98889 17.5267 9.01241 17.495 9.04268C17.4632 9.07295 17.438 9.10934 17.4207 9.14967C17.4034 9.18999 17.3945 9.23339 17.3945 9.27726C17.3945 9.32112 17.4034 9.36453 17.4207 9.40485C17.438 9.44517 17.4632 9.48157 17.495 9.51184C17.5267 9.54211 17.5643 9.56562 17.6054 9.58095C17.6465 9.59628 17.6903 9.60311 17.7341 9.60103H21.2959C21.3397 9.60311 21.3835 9.59628 21.4246 9.58095C21.4657 9.56562 21.5032 9.54211 21.535 9.51184C21.5667 9.48157 21.592 9.44517 21.6093 9.40485C21.6265 9.36453 21.6354 9.32112 21.6354 9.27726C21.6354 9.23339 21.6265 9.18999 21.6093 9.14967C21.592 9.10934 21.5667 9.07295 21.535 9.04268C21.5032 9.01241 21.4657 8.98889 21.4246 8.97356C21.3835 8.95823 21.3397 8.95141 21.2959 8.95349H21.2966Z" fill="#151428"/>
  <path d="M6.83497 6.04933C6.93446 6.20166 7.07506 6.32269 7.24051 6.3984C7.11234 6.3046 6.98989 6.20322 6.87384 6.0948C6.85655 6.07746 6.84062 6.05883 6.82617 6.03906L6.83497 6.04933Z" fill="#151428"/>
  <path d="M20.8582 19.9116H20.405L17.1644 13.7758C17.1461 13.7406 17.1212 13.7092 17.091 13.6834C17.0384 13.4742 16.9175 13.2885 16.7475 13.1557C16.5775 13.0229 16.3681 12.9505 16.1524 12.9501H16.0475V6.25399C16.0474 6.20034 16.0328 6.14771 16.0053 6.10164C15.9778 6.05557 15.9384 6.01776 15.8913 5.99219C15.8767 6.00538 15.8613 6.01763 15.8451 6.02885L15.0582 6.55392H15.4476V12.9523H13.8475V10.2045C13.8475 9.10445 12.6932 8.27945 11.6614 8.27945C10.6296 8.27945 9.47535 9.10299 9.47535 10.2045V12.9523H7.98962V6.80692C7.77956 6.73022 7.57961 6.62827 7.39415 6.50332V12.9523H7.28342C7.02656 12.9524 6.78027 13.0546 6.59864 13.2362C6.41701 13.4178 6.31488 13.6641 6.31469 13.921V14.0178C6.31499 14.1574 6.34551 14.2952 6.40415 14.4219C6.40339 14.4341 6.40339 14.4463 6.40415 14.4585V15.7543H5.42882C5.38629 15.7542 5.34416 15.7625 5.30483 15.7787C5.26551 15.7949 5.22978 15.8187 5.19967 15.8488C5.16956 15.8788 5.14567 15.9145 5.12937 15.9538C5.11308 15.9931 5.10469 16.0352 5.10469 16.0777V17.0494H3.80962C3.76674 17.0494 3.72429 17.0579 3.68473 17.0744C3.64516 17.0909 3.60926 17.1151 3.57912 17.1456C3.54897 17.1761 3.52517 17.2123 3.5091 17.252C3.49303 17.2918 3.485 17.3343 3.48549 17.3772V18.3481H2.35249C2.26652 18.3481 2.18408 18.3823 2.12329 18.4431C2.0625 18.5038 2.02835 18.5863 2.02835 18.6723C2.02835 18.7582 2.0625 18.8407 2.12329 18.9015C2.18408 18.9622 2.26652 18.9964 2.35249 18.9964H3.80962C3.89559 18.9964 3.97803 18.9622 4.03882 18.9015C4.0996 18.8407 4.13375 18.7582 4.13375 18.6723V17.6969H5.42882C5.51409 17.6971 5.59598 17.6636 5.65668 17.6038C5.71739 17.5439 5.75199 17.4624 5.75295 17.3772V16.4019H6.72389C6.80985 16.4019 6.8923 16.3677 6.95308 16.3069C7.01387 16.2461 7.04802 16.1637 7.04802 16.0777V14.9572C7.12494 14.9769 7.20401 14.987 7.28342 14.9873H7.78209V19.9123H2.30189C2.22234 19.9123 2.14605 19.9439 2.0898 20.0002C2.03355 20.0564 2.00195 20.1327 2.00195 20.2123C2.00195 20.2918 2.03355 20.3681 2.0898 20.4243C2.14605 20.4806 2.22234 20.5122 2.30189 20.5122H20.8552C20.9348 20.5122 21.0111 20.4806 21.0673 20.4243C21.1236 20.3681 21.1552 20.2918 21.1552 20.2123C21.1552 20.1327 21.1236 20.0564 21.0673 20.0002C21.0111 19.9439 20.9348 19.9123 20.8552 19.9123L20.8582 19.9116ZM10.1244 10.2045C10.1244 9.49679 10.9662 8.92699 11.6644 8.92699C12.3625 8.92699 13.2044 9.49679 13.2044 10.2045V12.8393H10.1244V10.2045ZM7.28342 14.3845C7.18617 14.3845 7.09291 14.3458 7.02415 14.2771C6.95538 14.2083 6.91675 14.115 6.91675 14.0178V13.921C6.91675 13.8237 6.95538 13.7305 7.02415 13.6617C7.09291 13.593 7.18617 13.5543 7.28342 13.5543H16.1502C16.2391 13.5534 16.3254 13.585 16.3928 13.643C16.4603 13.701 16.5044 13.7816 16.5168 13.8697C16.5044 13.9011 16.497 13.9342 16.4948 13.9679C16.4909 14.0378 16.4661 14.105 16.4238 14.1607C16.3815 14.2165 16.3235 14.2584 16.2572 14.2811C16.2036 14.3042 16.1572 14.3414 16.123 14.3889L7.28342 14.3845ZM9.15415 19.7972H8.38195V14.9865H9.15415V19.7972ZM13.6818 19.9116H9.75329V14.9865H13.681L13.6818 19.9116ZM15.0531 19.7972H14.2809V14.9865H15.0524L15.0531 19.7972ZM15.6522 19.9116V14.9865H16.1509C16.1773 14.9865 16.2037 14.9865 16.2294 14.9829L18.8298 19.9116H15.6522ZM19.5044 19.8023L16.8212 14.7159C16.8469 14.6928 16.8714 14.6684 16.8945 14.6426L19.6196 19.8023H19.5044Z" fill="#151428"/>
  <path d="M4.94318 11.8706C4.94299 11.7848 4.90875 11.7025 4.84799 11.6419C4.78722 11.5813 4.70489 11.5472 4.61905 11.5472H1.70478C1.66097 11.5452 1.61719 11.552 1.57609 11.5673C1.53499 11.5826 1.49743 11.6062 1.46569 11.6364C1.43394 11.6667 1.40867 11.7031 1.3914 11.7434C1.37414 11.7837 1.36523 11.8271 1.36523 11.871C1.36523 11.9149 1.37414 11.9583 1.3914 11.9986C1.40867 12.0389 1.43394 12.0753 1.46569 12.1056C1.49743 12.1359 1.53499 12.1594 1.57609 12.1747C1.61719 12.19 1.66097 12.1969 1.70478 12.1948H4.61905C4.70501 12.1948 4.78746 12.1606 4.84824 12.0998C4.90903 12.0391 4.94318 11.9566 4.94318 11.8706Z" fill="#151428"/>
  <path d="M14.9246 3.13824C14.5115 3.06499 14.0857 3.12643 13.7102 3.31351C13.5278 2.7829 13.1845 2.32234 12.7281 1.9959C12.2718 1.66947 11.725 1.4934 11.1639 1.49219C10.6028 1.49098 10.0553 1.66469 9.59756 1.98915C9.1398 2.31361 8.79455 2.77269 8.60985 3.30251C8.37077 3.25261 8.12411 3.25119 7.88448 3.29834C7.64485 3.3455 7.41711 3.44027 7.21477 3.57703C7.01243 3.7138 6.83959 3.88978 6.70649 4.09455C6.57339 4.29933 6.48274 4.52873 6.43991 4.76917C6.03731 7.06231 8.96991 7.07477 10.4732 7.11584C11.6803 7.14664 12.8874 7.13784 14.0944 7.08944C15.3279 7.04031 16.2834 6.79611 16.524 5.42624C16.5695 5.17096 16.5642 4.90922 16.5084 4.656C16.4526 4.40277 16.3474 4.16304 16.1988 3.95051C16.0503 3.73799 15.8613 3.55686 15.6426 3.41747C15.4239 3.27809 15.18 3.18321 14.9246 3.13824ZM14.5674 6.22411L14.4765 6.23217C12.5489 6.4026 10.6096 6.39597 8.68318 6.21237C8.32311 6.17791 7.95351 6.13464 7.63525 5.96451C6.51325 5.36391 7.27298 3.73737 8.43385 3.94051C8.5271 3.95769 8.61795 3.98601 8.70445 4.02484C8.74981 4.04492 8.79911 4.05455 8.84869 4.05304C8.89828 4.05153 8.94689 4.03891 8.99095 4.0161C9.035 3.9933 9.07338 3.9609 9.10325 3.92129C9.13311 3.88168 9.15371 3.83587 9.16351 3.78724C9.25732 3.31643 9.51468 2.89398 9.89002 2.59468C10.2654 2.29537 10.7345 2.13851 11.2144 2.15186C11.6943 2.16521 12.154 2.3479 12.5121 2.66761C12.8702 2.98731 13.1037 3.42341 13.1712 3.89871C13.1799 3.95786 13.2044 4.01358 13.2421 4.06002C13.2798 4.10646 13.3292 4.14193 13.3853 4.16271C13.4039 4.16938 13.4231 4.17453 13.4425 4.17811C13.4915 4.1865 13.5417 4.18388 13.5895 4.17043C13.6373 4.15699 13.6816 4.13305 13.719 4.10037C15.1123 2.86911 17.0776 5.23704 15.4379 6.02464C15.1666 6.15371 14.8666 6.19624 14.5674 6.22411Z" fill="#141428"/>
</svg>
