<svg xmlns="http://www.w3.org/2000/svg" width="23" height="22" viewBox="0 0 23 22" fill="none" id="reports">
  <path d="M17.0117 9.39844H13.8438V10.7998H17.0117V9.39844Z" fill="#74829C"/>
  <path d="M17.0117 6.59375H13.8438V7.99588H17.0117V6.59375Z" fill="#00DBA0"/>
  <path d="M17.0117 3.78906H13.8438V5.1912H17.0117V3.78906Z" fill="#00DBA0"/>
  <path d="M12.4422 6.59333H9.63867V3.78906C11.1809 3.78906 12.4422 5.0504 12.4422 6.5926V6.59333Z" fill="#8100FF"/>
  <path d="M8.57306 7.6551H11.3766C11.3766 9.1973 10.1153 10.4586 8.57306 10.4586C7.03086 10.4586 5.76953 9.1973 5.76953 7.6551C5.76953 6.1129 7.03086 4.85156 8.57306 4.85156V7.6551Z" fill="#FF6B45"/>
  <path d="M15.5813 19.575H4.36642C4.17062 19.575 4.00195 19.4064 4.00195 19.2106V2.3879C4.00195 2.19137 4.17062 2.02344 4.36642 2.02344H18.3856C18.5821 2.02344 18.75 2.19137 18.75 2.3879V16.4063C18.75 16.6028 18.5814 16.7708 18.3856 16.7708H15.9186V19.2377C15.9465 19.4056 15.7786 19.5743 15.582 19.5743L15.5813 19.575ZM4.73089 18.874H15.2454V16.4063C15.2454 16.2105 15.4134 16.0418 15.6099 16.0418H18.0768V2.75237H4.73089V18.874Z" fill="#141428"/>
  <path d="M15.5819 19.5722C15.4976 19.5722 15.414 19.5443 15.3297 19.46C15.1896 19.3199 15.1896 19.0955 15.3297 18.9555L18.1332 16.1519C18.2733 16.0119 18.4977 16.0119 18.6377 16.1519C18.7778 16.292 18.7778 16.5164 18.6377 16.6565L15.8342 19.46C15.7499 19.5165 15.6663 19.5722 15.5819 19.5722Z" fill="#141428"/>
  <path d="M8.5723 10.8003C6.8343 10.8003 5.4043 9.39892 5.4043 7.63232C5.4043 5.86572 6.8343 4.49219 8.5723 4.49219C8.76883 4.49219 8.93676 4.66012 8.93676 4.85665V7.29572H11.4037C11.6002 7.29572 11.7682 7.46365 11.7682 7.66019C11.7403 9.39892 10.3103 10.8003 8.57156 10.8003H8.5723ZM8.23643 5.22112C7.0587 5.38905 6.13396 6.42672 6.13396 7.66019C6.13396 9.00585 7.22736 10.1279 8.6009 10.1279C9.83436 10.1279 10.872 9.20239 11.04 8.02539H8.6009C8.40436 8.02539 8.23643 7.85745 8.23643 7.66092V5.22185V5.22112Z" fill="#141428"/>
  <path d="M12.4414 6.95507H9.6379C9.44137 6.95507 9.27344 6.78714 9.27344 6.59061V3.78634C9.27344 3.58981 9.4421 3.42188 9.6379 3.42188C11.3759 3.42188 12.8059 4.82401 12.8059 6.58987C12.778 6.78641 12.6094 6.95434 12.4414 6.95434V6.95507ZM9.97377 6.25401H12.0484C11.9083 5.18847 11.0393 4.31947 9.97377 4.17941V6.25401Z" fill="#141428"/>
  <path d="M16.9831 11.1616H13.843C13.6464 11.1616 13.4785 10.9929 13.4785 10.7971V9.39572C13.4785 9.19918 13.6472 9.03125 13.843 9.03125H17.011C17.2075 9.03125 17.3754 9.19918 17.3754 9.39572V10.7971C17.3476 10.9937 17.1789 11.1616 16.9831 11.1616ZM14.1796 10.4605H16.6472V9.75945H14.1796V10.4605Z" fill="#00DBA0"/>
  <path d="M6.47049 15.0019C6.38616 15.0019 6.30256 14.9741 6.21823 14.8897L5.51716 14.1887C5.37709 14.0486 5.37709 13.8242 5.51716 13.6841C5.65723 13.5441 5.88163 13.5441 6.02169 13.6841L6.47049 14.1329L8.68589 11.9175C8.82596 11.7775 9.05036 11.7775 9.19043 11.9175C9.33049 12.0576 9.33049 12.282 9.19043 12.4228L6.72349 14.8897C6.63916 14.9741 6.55556 15.0019 6.47123 15.0019H6.47049Z" fill="#141428"/>
  <path d="M6.47049 18.1731C6.38616 18.1731 6.30256 18.1452 6.21823 18.0609L5.51716 17.3598C5.37709 17.2198 5.37709 16.9954 5.51716 16.8553C5.65723 16.7152 5.88163 16.7152 6.02169 16.8553L6.47049 17.3041L8.68589 15.0894C8.82596 14.9494 9.05036 14.9494 9.19043 15.0894C9.33049 15.2295 9.33049 15.4539 9.19043 15.594L6.72349 18.0609C6.63916 18.1174 6.55556 18.1731 6.47123 18.1731H6.47049Z" fill="#141428"/>
  <path d="M16.983 12.5649H9.97384C9.77804 12.5649 9.60938 12.3962 9.60938 12.2004C9.60938 12.0046 9.77804 11.8359 9.97384 11.8359H16.983C17.1796 11.8359 17.3475 12.0046 17.3475 12.2004C17.3475 12.3962 17.1788 12.5649 16.983 12.5649Z" fill="#141428"/>
  <path d="M16.983 13.9711H9.97384C9.77804 13.9711 9.60938 13.8025 9.60938 13.6067C9.60938 13.4109 9.77804 13.2422 9.97384 13.2422H16.983C17.1796 13.2422 17.3475 13.4109 17.3475 13.6067C17.3475 13.8025 17.1788 13.9711 16.983 13.9711Z" fill="#141428"/>
  <path d="M16.983 15.3696H9.97384C9.77804 15.3696 9.60938 15.2009 9.60938 15.0051C9.60938 14.8093 9.77804 14.6406 9.97384 14.6406H16.983C17.1796 14.6406 17.3475 14.8093 17.3475 15.0051C17.3475 15.2009 17.1788 15.3696 16.983 15.3696Z" fill="#141428"/>
  <path d="M14.1795 16.768H9.97384C9.77804 16.768 9.60938 16.5993 9.60938 16.4035C9.60938 16.2077 9.77804 16.0391 9.97384 16.0391H14.1795C14.376 16.0391 14.544 16.2077 14.544 16.4035C14.544 16.5993 14.3753 16.768 14.1795 16.768Z" fill="#141428"/>
  <path d="M14.1795 18.1742H9.97384C9.77804 18.1742 9.60938 18.0056 9.60938 17.8098C9.60938 17.614 9.77804 17.4453 9.97384 17.4453H14.1795C14.376 17.4453 14.544 17.614 14.544 17.8098C14.544 18.0056 14.3753 18.1742 14.1795 18.1742Z" fill="#141428"/>
</svg>
