<svg xmlns="http://www.w3.org/2000/svg" width="21" height="20" viewBox="0 0 21 20" fill="none"

id="running-lab">
  <path d="M6.06778 17.8089C6.87911 17.9063 7.73444 17.9036 8.46777 17.5423C9.39511 17.0883 9.93444 16.0869 9.14577 15.2216C8.79177 14.8349 8.29178 14.6169 7.79311 14.4569C6.25978 13.9636 4.62378 13.9176 3.01311 13.8763C2.82578 13.8709 2.61311 13.8763 2.49178 14.0236C2.44597 14.0859 2.41393 14.1573 2.39778 14.2329C2.29706 14.613 2.28337 15.0109 2.3577 15.397C2.43203 15.7831 2.59248 16.1474 2.82711 16.4629C3.53911 17.4076 4.95711 17.6756 6.06778 17.8089Z" fill="#58D8A5"/>
  <path d="M19.2018 15.6201C18.7291 14.7187 15.2018 7.68006 14.6965 6.6714V3.72673C14.9654 3.72281 15.2224 3.61463 15.4132 3.42497C15.6039 3.23532 15.7136 2.97901 15.7191 2.71006V2.68206C15.7137 2.41042 15.6021 2.15171 15.4082 1.9614C15.2143 1.7711 14.9535 1.66436 14.6818 1.66406H10.8338C10.5622 1.66453 10.3015 1.77133 10.1076 1.96159C9.91372 2.15186 9.80204 2.41047 9.79647 2.68206V2.71006C9.80197 2.97901 9.91166 3.23532 10.1024 3.42497C10.2932 3.61463 10.5502 3.72281 10.8191 3.72673V6.6694C10.6611 6.98473 10.2078 7.8894 9.64447 9.01206C9.1782 8.67043 8.65753 8.41009 8.10447 8.24206C8.10447 8.2374 8.10447 8.23406 8.10447 8.2294V6.06206C8.30751 6.04641 8.49749 5.95589 8.63756 5.80807C8.77762 5.66024 8.85778 5.46565 8.86247 5.26206V5.23873C8.85811 5.02338 8.76953 4.81832 8.61574 4.66752C8.46195 4.51672 8.25519 4.43219 8.0398 4.43206H5.1938C4.97847 4.4322 4.77178 4.51675 4.6181 4.66757C4.46441 4.81838 4.37599 5.02344 4.3718 5.23873C4.37147 5.24139 4.37147 5.24407 4.3718 5.24673V5.25406C4.37147 5.25672 4.37147 5.25941 4.3718 5.26206C4.37632 5.46559 4.45633 5.66018 4.59629 5.80802C4.73624 5.95586 4.92616 6.0464 5.12913 6.06206V8.2314C5.12882 8.23561 5.12882 8.23985 5.12913 8.24406C3.9434 8.60077 2.92556 9.37212 2.26152 10.4172C1.59747 11.4623 1.33154 12.7114 1.5123 13.9364C1.69306 15.1613 2.30844 16.2804 3.24605 17.0891C4.18366 17.8979 5.38091 18.3424 6.61913 18.3414C6.77247 18.3414 6.9238 18.3314 7.07447 18.3181C7.16522 18.3334 7.25709 18.3412 7.34913 18.3414H18.1671C18.8638 18.3414 19.1958 17.9647 19.3325 17.7414C19.6525 17.2127 19.6005 16.3807 19.2018 15.6201ZM10.2151 2.69606C10.2169 2.53283 10.2827 2.37683 10.3985 2.26171C10.5142 2.1466 10.6706 2.08159 10.8338 2.08073H14.6798C14.843 2.08073 14.9995 2.14556 15.1149 2.26096C15.2303 2.37635 15.2951 2.53287 15.2951 2.69606C15.2951 2.85926 15.2303 3.01577 15.1149 3.13117C14.9995 3.24657 14.843 3.3114 14.6798 3.3114H10.8338C10.6706 3.31053 10.5142 3.24553 10.3985 3.13041C10.2827 3.0153 10.2169 2.85929 10.2151 2.69606ZM11.2151 6.81406C11.2297 6.78511 11.2372 6.75314 11.2371 6.72073V3.72806H14.2791V6.72073C14.279 6.75314 14.2866 6.78511 14.3011 6.81406C14.5805 7.37206 16.3365 10.8754 17.5911 13.3674H11.7778V12.2081H12.8445C12.8719 12.2081 12.899 12.2027 12.9243 12.1922C12.9496 12.1817 12.9726 12.1663 12.992 12.1469C13.0114 12.1276 13.0268 12.1046 13.0372 12.0792C13.0477 12.0539 13.0531 12.0268 13.0531 11.9994C13.0531 11.972 13.0477 11.9449 13.0372 11.9195C13.0268 11.8942 13.0114 11.8712 12.992 11.8518C12.9726 11.8325 12.9496 11.8171 12.9243 11.8066C12.899 11.7961 12.8719 11.7907 12.8445 11.7907H11.7778V10.6321H13.0338C13.0612 10.6321 13.0883 10.6267 13.1137 10.6162C13.139 10.6057 13.162 10.5903 13.1813 10.5709C13.2007 10.5516 13.2161 10.5286 13.2266 10.5032C13.2371 10.4779 13.2425 10.4508 13.2425 10.4234C13.2425 10.396 13.2371 10.3689 13.2266 10.3435C13.2161 10.3182 13.2007 10.2952 13.1813 10.2758C13.162 10.2565 13.139 10.2411 13.1137 10.2306C13.0883 10.2201 13.0612 10.2147 13.0338 10.2147H11.5671C11.5118 10.2147 11.4587 10.2367 11.4196 10.2758C11.3805 10.315 11.3585 10.3681 11.3585 10.4234V11.1534C11.0469 10.4314 10.575 9.7898 9.97847 9.2774C10.5911 8.0614 11.0798 7.08606 11.2158 6.81406H11.2151ZM7.10047 17.9001C6.98597 17.8815 6.87688 17.8382 6.78075 17.7733C6.68463 17.7084 6.60378 17.6233 6.5438 17.5241C6.30313 17.1241 6.3618 16.4381 6.68913 15.8141C6.82247 15.5521 7.21846 14.7774 7.71913 13.7841H11.3191C11.1826 14.8451 10.6916 15.8289 9.92591 16.576C9.16018 17.3231 8.16456 17.7897 7.10047 17.9001ZM11.3671 13.1821C11.3671 13.2447 11.3605 13.3054 11.3578 13.3674H7.9258C8.50513 12.2181 9.19247 10.8554 9.78713 9.6634C10.2819 10.1065 10.6777 10.6488 10.9489 11.2551C11.2201 11.8613 11.3606 12.5179 11.3611 13.1821H11.3671ZM4.78847 5.2494C4.79004 5.14288 4.83342 5.04124 4.90924 4.96642C4.98507 4.89159 5.08727 4.84956 5.1938 4.8494H8.0438C8.14989 4.8494 8.25163 4.89154 8.32664 4.96655C8.40166 5.04157 8.4438 5.14331 8.4438 5.2494C8.4438 5.35548 8.40166 5.45722 8.32664 5.53224C8.25163 5.60725 8.14989 5.6494 8.0438 5.6494H5.1938C5.08727 5.64923 4.98507 5.60721 4.90924 5.53238C4.83342 5.45755 4.79004 5.35592 4.78847 5.2494ZM5.5458 6.0694H7.6918V8.13606C6.98445 7.98487 6.25314 7.98487 5.5458 8.13606V6.0694ZM6.61913 8.4414C7.64344 8.44197 8.63969 8.77616 9.45713 9.3934C8.81647 10.6694 8.0698 12.1567 7.45713 13.3687H1.8858C1.8858 13.3067 1.87646 13.2461 1.87646 13.1834C1.8777 11.9259 2.37775 10.7202 3.26688 9.83095C4.15602 8.94169 5.36162 8.44147 6.61913 8.44006V8.4414ZM1.91913 13.7854H7.25247C6.79847 14.6847 6.44713 15.3781 6.31913 15.6214C5.91913 16.3821 5.8678 17.2141 6.1858 17.7407C6.2226 17.8007 6.26453 17.8574 6.31113 17.9101C5.21443 17.8376 4.17693 17.3865 3.37588 16.634C2.57482 15.8814 2.05992 14.8741 1.91913 13.7841V13.7854ZM18.9771 17.5254C18.8165 17.7921 18.5445 17.9254 18.1691 17.9254H8.6478C9.8657 17.4008 10.8366 16.43 11.3611 15.2121V16.7287C11.3615 16.7834 11.3832 16.8357 11.4218 16.8745C11.4603 16.9133 11.5125 16.9354 11.5671 16.9361H13.0338C13.0621 16.9377 13.0905 16.9335 13.1172 16.9237C13.1439 16.914 13.1683 16.8989 13.1889 16.8794C13.2095 16.8599 13.226 16.8364 13.2372 16.8103C13.2485 16.7842 13.2543 16.7561 13.2543 16.7277C13.2543 16.6993 13.2485 16.6712 13.2372 16.6452C13.226 16.6191 13.2095 16.5956 13.1889 16.5761C13.1683 16.5566 13.1439 16.5415 13.1172 16.5317C13.0905 16.522 13.0621 16.5178 13.0338 16.5194H11.7785V15.3607H12.8451C12.9005 15.3607 12.9535 15.3387 12.9927 15.2996C13.0318 15.2605 13.0538 15.2074 13.0538 15.1521C13.0538 15.0967 13.0318 15.0436 12.9927 15.0045C12.9535 14.9654 12.9005 14.9434 12.8451 14.9434H11.7785V13.7841H17.8018C18.3031 14.7774 18.6951 15.5521 18.8325 15.8141C19.1598 16.4381 19.2178 17.1254 18.9771 17.5241V17.5254Z" fill="#141428" stroke="white" stroke-width="0.107333" stroke-miterlimit="10"/>
  <path d="M10.8868 9.13212C10.9159 9.14626 10.9478 9.15355 10.9802 9.15346C11.0188 9.15363 11.0567 9.14298 11.0896 9.12271C11.1224 9.10245 11.149 9.07337 11.1662 9.03879L12.0015 7.37212C12.016 7.34317 12.0236 7.31119 12.0235 7.27879V4.34546C12.0251 4.31711 12.0209 4.28873 12.0112 4.26206C12.0014 4.23539 11.9863 4.21098 11.9668 4.19035C11.9473 4.16971 11.9238 4.15327 11.8977 4.14203C11.8717 4.1308 11.8436 4.125 11.8152 4.125C11.7868 4.125 11.7587 4.1308 11.7326 4.14203C11.7065 4.15327 11.683 4.16971 11.6635 4.19035C11.644 4.21098 11.6289 4.23539 11.6192 4.26206C11.6094 4.28873 11.6052 4.31711 11.6068 4.34546V7.22946L10.7942 8.85146C10.7817 8.87594 10.7742 8.90266 10.7721 8.93006C10.77 8.95747 10.7734 8.98501 10.782 9.01111C10.7906 9.03721 10.8043 9.06134 10.8223 9.08211C10.8403 9.10288 10.8622 9.11988 10.8868 9.13212Z" fill="#141428" stroke="white" stroke-width="0.107333" stroke-miterlimit="10"/>
  <path d="M2.61689 12.5994C2.63312 12.6028 2.64965 12.6046 2.66623 12.6048C2.71251 12.6041 2.75729 12.5882 2.79349 12.5593C2.8297 12.5305 2.85529 12.4904 2.86623 12.4454C3.0093 11.8655 3.28045 11.3249 3.65976 10.8635C4.03908 10.402 4.51693 10.0314 5.05823 9.77875C5.08488 9.76864 5.10918 9.75317 5.12962 9.7333C5.15006 9.71343 5.16622 9.68958 5.17709 9.66323C5.18796 9.63687 5.19331 9.60857 5.19282 9.58006C5.19233 9.55156 5.186 9.52346 5.17423 9.4975C5.16245 9.47153 5.14548 9.44826 5.12437 9.4291C5.10325 9.40995 5.07843 9.39533 5.05145 9.38614C5.02446 9.37695 4.99588 9.37339 4.96746 9.37567C4.93905 9.37796 4.9114 9.38604 4.88623 9.39942C4.28814 9.67836 3.76011 10.0877 3.34089 10.5974C2.92166 11.107 2.62189 11.7041 2.46356 12.3448C2.45669 12.3715 2.45523 12.3994 2.45924 12.4268C2.46325 12.4542 2.47267 12.4805 2.48693 12.5042C2.5012 12.5279 2.52004 12.5485 2.54235 12.5648C2.56466 12.5812 2.59 12.593 2.61689 12.5994Z" fill="#141428" stroke="white" stroke-width="0.107333" stroke-miterlimit="10"/>
</svg>
