<svg xmlns="http://www.w3.org/2000/svg" width="23" height="22" viewBox="0 0 23 22" fill="none" id="teams">
  <path d="M3.88324 17.4586C3.70431 17.3992 3.53197 17.3237 3.36624 17.2298C3.16971 17.1184 2.98271 16.9783 2.86317 16.7869C2.74364 16.5955 2.70111 16.3454 2.79644 16.1408C2.89031 15.9399 3.09931 15.8094 3.18731 15.6062C3.41684 15.079 2.62484 14.3962 3.04357 13.9174C3.39557 13.5148 4.81531 13.7641 5.30004 13.7612C7.10184 13.7487 8.90291 13.7216 10.7047 13.7216V17.5371C9.78071 17.5371 8.85671 17.5371 7.93271 17.5371C6.66551 17.5371 5.13504 17.8788 3.88251 17.4601L3.88324 17.4586Z" fill="#00DBA0"/>
  <path d="M4.59914 3.25619C4.69887 2.90786 4.83821 2.70766 5.02814 2.72819C5.26501 2.75386 5.40507 3.02226 5.63241 3.09412C5.89494 3.17772 6.16334 2.97166 6.31734 2.74286C6.47134 2.51406 6.57841 2.24199 6.79914 2.07772C7.02061 1.91346 7.41734 1.94792 7.48481 2.21559C7.72607 2.09826 7.72534 1.63626 7.99374 1.64066C8.20274 1.64432 8.25187 1.93326 8.23354 2.14226C8.17121 2.85872 8.42934 10.3754 8.32007 10.3754H4.50454C4.50454 9.64646 4.13567 4.86806 4.59841 3.25692L4.59914 3.25619Z" fill="#00DBA0"/>
  <path d="M4.74229 17.2949H5.21896C5.21896 17.5582 5.43236 17.7709 5.69563 17.7709H6.17229C6.17229 18.0349 6.38569 18.2483 6.64896 18.2483C6.91223 18.2483 7.12563 18.0349 7.12563 17.7716C7.12563 18.0613 7.38376 18.2908 7.68296 18.2417C7.91762 18.2035 8.07969 17.9835 8.07969 17.7459V13.4794H9.51043V12.9617C9.51043 12.8355 9.45982 12.7138 9.37109 12.6243L8.07969 11.3329V10.6172H4.74229L4.26562 13.717V16.8168C4.26562 17.0801 4.47902 17.2935 4.74229 17.2935V17.2949Z" fill="#151428"/>
  <path d="M6.65128 18.4814C6.25675 18.4814 5.93555 18.1602 5.93555 17.7656H6.41221C6.41221 17.8969 6.51928 18.004 6.65055 18.004C6.78181 18.004 6.88888 17.8969 6.88888 17.7656H7.36555C7.36555 18.1602 7.04435 18.4814 6.64981 18.4814H6.65128Z" fill="#151428"/>
  <path d="M6.17287 18.009H5.6962C5.30167 18.009 4.98047 17.6885 4.98047 17.294V16.1016H5.45714V17.294C5.45714 17.4252 5.5642 17.5316 5.69547 17.5316H6.17214V18.0082L6.17287 18.009Z" fill="#151428"/>
  <path d="M6.41221 16.5781H5.93555V17.7705H6.41221V16.5781Z" fill="#151428"/>
  <path d="M7.60381 18.4842C7.56494 18.4842 7.52534 18.4813 7.48648 18.4747C7.14621 18.4189 6.88954 18.1051 6.88954 17.7435V16.5768H7.36621V17.7435C7.36621 17.8719 7.45274 17.9863 7.56274 18.0039C7.63534 18.0149 7.70501 17.9965 7.75928 17.9503C7.81281 17.9049 7.84361 17.8389 7.84361 17.7685V13.2379H9.27434V12.9585C9.27434 12.8947 9.24941 12.8346 9.20468 12.7899L7.84361 11.4288V10.8531H4.94768L4.50474 13.7329V16.8144C4.50474 16.9457 4.61181 17.0527 4.74308 17.0527H5.21974V17.5294H4.74308C4.34854 17.5294 4.02734 17.2082 4.02734 16.8137L4.03028 13.6772L4.53848 10.375H8.31954V11.2301L9.54054 12.4511C9.67548 12.586 9.75028 12.7657 9.75028 12.9571V13.7131H8.31954V17.767C8.31954 17.9775 8.22788 18.1755 8.06728 18.3119C7.93674 18.4226 7.77248 18.482 7.60308 18.482L7.60381 18.4842Z" fill="#151428"/>
  <path d="M18.8104 4.32415C18.9923 4.32709 19.1749 4.32929 19.3567 4.32929C19.5701 4.32929 19.7931 4.32195 19.9837 4.41582C20.1751 4.50969 20.3167 4.74509 20.2287 4.93869C20.1392 5.13595 19.884 5.18069 19.6691 5.20635C19.4535 5.23202 19.1976 5.29875 19.1345 5.50629C19.0245 5.87075 19.6376 6.14722 19.5533 6.51829C19.5056 6.72875 19.2621 6.82115 19.0517 6.86955C18.8412 6.91795 18.597 6.98249 18.5149 7.18195C18.4503 7.33962 18.5156 7.52515 18.465 7.68795C18.3814 7.95635 18.0426 8.03482 17.7617 8.04289C17.2755 8.05755 11.6582 7.93802 11.6582 7.99522V4.17969H14.472C15.9211 4.17969 17.3672 4.29775 18.8097 4.32342L18.8104 4.32415Z" fill="#00DBA0"/>
  <path d="M4.74245 4.42198V4.89865C4.47918 4.89865 4.26652 5.11205 4.26652 5.37531V5.85198C4.00252 5.85198 3.78912 6.06538 3.78912 6.32865C3.78912 6.59191 4.00252 6.80531 4.26578 6.80531C3.97612 6.80531 3.74658 7.06345 3.79572 7.36265C3.83385 7.59731 4.05385 7.75938 4.29145 7.75938H8.55798V9.19011H9.07572C9.20185 9.19011 9.32358 9.13951 9.41305 9.05078L10.7045 7.75938H11.4202V4.42198L8.32038 3.94531H5.22058C4.95732 3.94531 4.74392 4.15871 4.74392 4.42198H4.74245Z" fill="#151428"/>
  <path d="M4.26651 7.04084C3.87198 7.04084 3.55078 6.71964 3.55078 6.32511C3.55078 5.93057 3.87198 5.60938 4.26651 5.60938V6.08604C4.13525 6.08604 4.02818 6.19311 4.02818 6.32438C4.02818 6.45564 4.13525 6.56271 4.26651 6.56271V7.03938V7.04084Z" fill="#151428"/>
  <path d="M4.50596 5.84865H4.0293V5.37198C4.0293 4.97745 4.34976 4.65625 4.7443 4.65625H5.9367V5.13292H4.7443C4.61303 5.13292 4.5067 5.23998 4.5067 5.37125V5.84792L4.50596 5.84865Z" fill="#151428"/>
  <path d="M5.45802 5.60938H4.26562V6.08604H5.45802V5.60938Z" fill="#151428"/>
  <path d="M9.07585 9.42606H8.31978V7.99532H4.26591C4.05545 7.99532 3.85745 7.90366 3.72105 7.74306C3.58465 7.58319 3.52598 7.37126 3.56045 7.16152C3.61618 6.82126 3.93005 6.56459 4.29158 6.56459H5.45831V7.04126H4.29158C4.16325 7.04126 4.04885 7.12779 4.03125 7.23779C4.01951 7.31039 4.03858 7.38006 4.08478 7.43432C4.13025 7.48786 4.19625 7.51866 4.26665 7.51866H8.79718V8.94939H9.07658C9.14038 8.94939 9.20051 8.92446 9.24525 8.87972L10.6063 7.51866H11.182V4.62346L8.30218 4.18052H5.22071C5.08945 4.18052 4.98238 4.28759 4.98238 4.41886V4.89553H4.50571V4.41886C4.50571 4.02432 4.82691 3.70312 5.22145 3.70312L8.35791 3.70606L11.6601 4.21426V7.99532H10.805L9.58405 9.21632C9.44911 9.35126 9.26945 9.42606 9.07805 9.42606H9.07585Z" fill="#151428"/>
  <path d="M17.6991 18.307C17.3288 18.6663 16.6835 18.4793 16.2273 18.7257C15.9641 18.8673 15.7969 19.1364 15.6583 19.4004C15.5189 19.6651 15.3906 19.9453 15.1677 20.1447C14.9455 20.3442 14.5957 20.4403 14.3449 20.2782C14.0471 20.0861 14.0339 19.6629 14.0545 19.3087C14.2048 16.6827 14.0449 13.9796 14.0449 11.3359H17.8605C17.7974 11.3359 17.9177 16.998 17.9411 17.4798C17.9551 17.7731 17.914 18.0936 17.7065 18.3011C17.7043 18.3033 17.7021 18.3055 17.6999 18.3077L17.6991 18.307Z" fill="#00DBA0"/>
  <path d="M17.6197 4.42214H17.143C17.143 4.15887 16.9296 3.94621 16.6664 3.94621H16.1897C16.1897 3.68221 15.9763 3.46881 15.713 3.46881C15.4498 3.46881 15.2364 3.68221 15.2364 3.94547C15.2364 3.65581 14.9782 3.42627 14.679 3.47541C14.4444 3.51354 14.2823 3.73354 14.2823 3.97114V8.23767H12.8516V8.7554C12.8516 8.88154 12.9022 9.00327 12.9909 9.09274L14.2823 10.3841V11.0999H17.6204L18.0971 8.00007V4.90027C18.0971 4.63701 17.8837 4.42361 17.6204 4.42361L17.6197 4.42214Z" fill="#151428"/>
  <path d="M16.428 3.9423H15.9514C15.9514 3.81103 15.8443 3.70396 15.713 3.70396C15.5818 3.70396 15.4747 3.81103 15.4747 3.9423H14.998C14.998 3.54776 15.3192 3.22656 15.7138 3.22656C16.1083 3.22656 16.4295 3.54776 16.4295 3.9423H16.428Z" fill="#151428"/>
  <path d="M17.3811 5.60979H16.9045V4.41739C16.9045 4.28613 16.7974 4.17979 16.6661 4.17979H16.1895V3.70312H16.6661C17.0607 3.70312 17.3819 4.02359 17.3819 4.41812V5.61052L17.3811 5.60979Z" fill="#151428"/>
  <path d="M16.4278 3.94531H15.9512V5.13771H16.4278V3.94531Z" fill="#151428"/>
  <path d="M17.8251 11.3342H14.044V10.4791L12.823 9.25809C12.6881 9.12316 12.6133 8.94349 12.6133 8.75209V7.99602H14.044V3.94142C14.044 3.73096 14.1357 3.53296 14.2963 3.39656C14.4561 3.26016 14.6681 3.20222 14.8778 3.23596C15.2181 3.29169 15.4747 3.60556 15.4747 3.96709V5.13382H14.9981V3.96709C14.9981 3.83876 14.9115 3.72436 14.8015 3.70676C14.7289 3.69502 14.6593 3.71409 14.605 3.76029C14.5515 3.80576 14.5207 3.87176 14.5207 3.94216V8.47269H13.0899V8.75209C13.0899 8.81589 13.1149 8.87602 13.1596 8.92076L14.5207 10.2818V10.8575H17.4159L17.8588 7.97769V4.89622C17.8588 4.76496 17.7517 4.65789 17.6205 4.65789H17.1438V4.18122H17.6205C18.015 4.18122 18.3362 4.50242 18.3362 4.89696L18.3333 8.03342L17.8251 11.3356V11.3342Z" fill="#151428"/>
  <path d="M17.6211 17.2994V16.8227C17.8844 16.8227 18.097 16.6093 18.097 16.3461V15.8694C18.361 15.8694 18.5744 15.656 18.5744 15.3927C18.5744 15.1295 18.361 14.9161 18.0978 14.9161C18.3874 14.9161 18.617 14.6579 18.5678 14.3587C18.5297 14.124 18.3097 13.962 18.0721 13.962H13.8056V12.5312H13.2878C13.1617 12.5312 13.04 12.5818 12.9505 12.6706L11.6591 13.962H10.9434V17.3001L14.0432 17.7768H17.143C17.4062 17.7768 17.6196 17.5634 17.6196 17.3001L17.6211 17.2994Z" fill="#151428"/>
  <path d="M18.0977 16.1019V15.6252C18.2289 15.6252 18.336 15.5181 18.336 15.3869C18.336 15.2556 18.2289 15.1485 18.0977 15.1485V14.6719C18.4922 14.6719 18.8134 14.9931 18.8134 15.3876C18.8134 15.7821 18.4922 16.1033 18.0977 16.1033V16.1019Z" fill="#151428"/>
  <path d="M17.6201 17.0589H16.4277V16.5822H17.6201C17.7514 16.5822 17.8577 16.4751 17.8577 16.3439V15.8672H18.3344V16.3439C18.3344 16.7384 18.0139 17.0596 17.6194 17.0596L17.6201 17.0589Z" fill="#151428"/>
  <path d="M18.0986 15.625H16.9062V16.1017H18.0986V15.625Z" fill="#151428"/>
  <path d="M17.1437 18.012L14.0073 18.0091L10.7051 17.5009V13.7198H11.5601L12.7811 12.4988C12.9161 12.3639 13.0957 12.2891 13.2871 12.2891H14.0432V13.7198H18.0971C18.3075 13.7198 18.5055 13.8115 18.6419 13.9721C18.7783 14.1319 18.837 14.3439 18.8025 14.5536C18.7468 14.8939 18.4329 15.1505 18.0714 15.1505H16.9047V14.6739H18.0714C18.1997 14.6739 18.3141 14.5873 18.3317 14.4773C18.3435 14.4047 18.3244 14.3351 18.2782 14.2808C18.2327 14.2273 18.1667 14.1965 18.0963 14.1965H13.5658V12.7657H13.2864C13.2226 12.7657 13.1625 12.7907 13.1177 12.8354L11.7567 14.1965H11.181V17.0917L14.0608 17.5346H17.1423C17.2735 17.5346 17.3806 17.4275 17.3806 17.2963V16.8196H17.8573V17.2963C17.8573 17.6908 17.5361 18.012 17.1415 18.012H17.1437Z" fill="#151428"/>
  <path d="M14.9982 11.8125H14.5215V12.2892H14.9982V11.8125Z" fill="#151428"/>
  <path d="M10.2286 14.1953H9.75195V14.672H10.2286V14.1953Z" fill="#151428"/>
  <path d="M7.84385 9.42188H7.36719V9.89854H7.84385V9.42188Z" fill="#151428"/>
  <path d="M12.6134 7.03906H12.1367V7.51573H12.6134V7.03906Z" fill="#151428"/>
</svg>
