<svg xmlns="http://www.w3.org/2000/svg" width="21" height="20" viewBox="0 0 21 20" fill="none" id="users">
  <path d="M9.08464 8.28906H5.16797V8.7244H9.08464V8.28906Z" fill="#151428"/>
  <path d="M9.08534 14.8213C8.23 14.8213 7.328 14.7326 6.47934 14.8213C5.25067 14.9486 4.094 15.1286 2.83267 14.9993C2.45534 14.9606 1.99667 14.8326 1.91734 14.4619C1.82867 14.0459 2.28934 13.7406 2.67734 13.5666C3.27667 13.2986 3.876 13.0299 4.47467 12.7619C4.826 12.6046 5.216 12.4033 5.31667 12.0319C5.43667 11.5886 5.07667 11.1666 4.71934 10.8779C4.362 10.5893 3.94467 10.2819 3.888 9.82594C3.81934 9.27127 4.35533 8.80194 4.902 8.6846C5.714 8.50994 6.62867 8.72994 7.456 8.72927C7.99934 8.72927 8.542 8.72927 9.08534 8.72927V14.8219V14.8213Z" fill="#58D8A5"/>
  <path d="M16.2655 8.94098C16.2655 9.42165 16.0935 9.81165 15.6129 9.81165C15.1322 9.81165 14.7422 9.42165 14.7422 8.94098C14.7422 8.46031 15.1322 8.07031 15.6129 8.07031C16.0935 8.07031 16.2655 8.46031 16.2655 8.94098Z" fill="#151428"/>
  <path d="M15.83 10.6832C15.83 11.1638 15.658 11.5538 15.1773 11.5538C14.6966 11.5538 14.3066 11.1638 14.3066 10.6832C14.3066 10.2025 14.6966 9.8125 15.1773 9.8125C15.658 9.8125 15.83 10.2025 15.83 10.6832Z" fill="#151428"/>
  <path d="M16.0487 12.4254C16.0487 12.906 15.8767 13.296 15.3961 13.296C14.9154 13.296 14.5254 12.906 14.5254 12.4254C14.5254 11.9447 14.9154 11.5547 15.3961 11.5547C15.8767 11.5547 16.0487 11.9447 16.0487 12.4254Z" fill="#151428"/>
  <path d="M16.4843 14.1675C16.4843 14.6482 16.3123 15.0382 15.8316 15.0382C15.3509 15.0382 14.9609 14.6482 14.9609 14.1675C14.9609 13.6869 15.3509 13.2969 15.8316 13.2969C16.3123 13.2969 16.4843 13.6869 16.4843 14.1675Z" fill="#151428"/>
  <path d="M9.51997 15.2574H5.16797V14.822H9.08464V8.29404H5.16797V7.85938H9.51997V15.2574Z" fill="#151428"/>
  <path d="M17.1374 15.2543H11.4287L10.558 14.819H9.95669V14.3836H10.6607L11.5314 14.819H17.1374C17.4974 14.819 17.79 14.5263 17.79 14.1663C17.79 13.8063 17.4974 13.5136 17.1374 13.5136V13.0783H17.5727C17.9327 13.0783 18.2254 12.7856 18.2254 12.4256C18.2254 12.0656 17.9327 11.773 17.5727 11.773V11.3376H18.008C18.368 11.3376 18.6607 11.045 18.6607 10.685C18.6607 10.325 18.368 10.0323 18.008 10.0323H17.5727V9.59698C17.9327 9.59698 18.2254 9.30431 18.2254 8.94431C18.2254 8.58431 17.9327 8.29165 17.5727 8.29165H14.0014L13.6134 7.90365L14.764 5.37298C14.764 5.37298 14.962 4.80698 14.962 4.37498C14.962 4.09831 14.8467 3.59565 14.428 3.51565L12.9327 6.05965L10.4767 8.29231H9.30469V7.85698H10.3087L12.6154 5.76031L14.1847 3.07031H14.3094C15.0234 3.07031 15.3974 3.72698 15.3974 4.37565C15.3974 4.88831 15.1767 5.51098 15.1667 5.53698L14.134 7.80965L14.1814 7.85698H17.5727C18.1727 7.85698 18.6607 8.34498 18.6607 8.94498C18.6607 9.22098 18.5574 9.47364 18.3867 9.66565C18.8 9.81964 19.0954 10.219 19.0954 10.6856C19.0954 11.1523 18.8 11.5516 18.3867 11.7056C18.5567 11.8976 18.6607 12.1503 18.6607 12.4263C18.6607 12.893 18.3654 13.2923 17.952 13.4463C18.122 13.6383 18.226 13.891 18.226 14.167C18.226 14.767 17.738 15.255 17.138 15.255L17.1374 15.2543Z" fill="#151428"/>
  <path d="M8.65018 13.5156H8.21484V13.951H8.65018V13.5156Z" fill="#151428"/>
  <path d="M7.77908 13.5156H7.34375V13.951H7.77908V13.5156Z" fill="#151428"/>
  <path d="M6.4744 8.28906H6.03906V15.0344H6.4744V8.28906Z" fill="#151428"/>
  <path d="M17.5711 9.59375H15.1777V10.0291H17.5711V9.59375Z" fill="#151428"/>
  <path d="M17.5711 11.3359H15.1777V11.7713H17.5711V11.3359Z" fill="#151428"/>
  <path d="M17.1372 13.0781H15.3965V13.5135H17.1372V13.0781Z" fill="#151428"/>
  <path d="M15.6134 10.0354C15.0134 10.0354 14.5254 9.54738 14.5254 8.94738C14.5254 8.34738 15.0134 7.85938 15.6134 7.85938V8.29471C15.2534 8.29471 14.9607 8.58738 14.9607 8.94738C14.9607 9.30738 15.2534 9.60004 15.6134 9.60004V10.0354Z" fill="#151428"/>
  <path d="M15.1778 11.7697C14.5778 11.7697 14.0898 11.2818 14.0898 10.6818C14.0898 10.0818 14.5778 9.59375 15.1778 9.59375V10.0291C14.8178 10.0291 14.5252 10.3218 14.5252 10.6818C14.5252 11.0418 14.8178 11.3344 15.1778 11.3344V11.7697Z" fill="#151428"/>
  <path d="M15.3966 13.5119C14.7966 13.5119 14.3086 13.0239 14.3086 12.4239C14.3086 11.8239 14.7966 11.3359 15.3966 11.3359V11.7713C15.0366 11.7713 14.7439 12.0639 14.7439 12.4239C14.7439 12.7839 15.0366 13.0766 15.3966 13.0766V13.5119Z" fill="#151428"/>
  <path d="M15.8302 15.2541C15.2302 15.2541 14.7422 14.7661 14.7422 14.1661C14.7422 13.5661 15.2302 13.0781 15.8302 13.0781V13.5135C15.4702 13.5135 15.1775 13.8061 15.1775 14.1661C15.1775 14.5261 15.4702 14.8188 15.8302 14.8188V15.2541Z" fill="#151428"/>
  <path d="M15.7723 17.1045H15.929V17.2611C15.929 17.4345 16.069 17.5745 16.2423 17.5745C16.4157 17.5745 16.5557 17.4345 16.5557 17.2611V17.1045H16.7123C16.8857 17.1045 17.0257 16.9645 17.0257 16.7911C17.0257 16.6178 16.8857 16.4778 16.7123 16.4778H16.5557V16.3211C16.5557 16.1478 16.4157 16.0078 16.2423 16.0078C16.069 16.0078 15.929 16.1478 15.929 16.3211V16.4778H15.7723C15.599 16.4778 15.459 16.6178 15.459 16.7911C15.459 16.9645 15.599 17.1045 15.7723 17.1045Z" fill="#141428"/>
  <path d="M9.61997 3.04854H11.656C11.8293 3.04854 11.9693 2.90854 11.9693 2.73521C11.9693 2.56188 11.8293 2.42188 11.656 2.42188H9.61997C9.44664 2.42188 9.30664 2.56188 9.30664 2.73521C9.30664 2.90854 9.44664 3.04854 9.61997 3.04854Z" fill="#151428"/>
  <path d="M11.6558 3.53125H8.20982C8.03648 3.53125 7.89648 3.67125 7.89648 3.84458C7.89648 4.01792 8.03648 4.15792 8.20982 4.15792H11.6558C11.8292 4.15792 11.9692 4.01792 11.9692 3.84458C11.9692 3.67125 11.8292 3.53125 11.6558 3.53125Z" fill="#151428"/>
</svg>
