<svg id="Layer_1" data-name="Layer 1" xmlns="http://www.w3.org/2000/svg" viewBox="0 0 100 100"><defs><style>.cls-1{fill:#58d8a5;}.cls-2{fill:#08008c;}</style></defs><path class="cls-1" d="M47.47,9.42C45,8.2,42.4,6.31,39.67,6.9A7.41,7.41,0,0,0,37,8.26c-5.33,4-7.73,12-4.28,17.63a18.2,18.2,0,0,0,5.47,5.3c4.67,3.17,10.38,5.42,15.9,4.28s10.32-6.68,9.06-12.18c-.65-2.84-1.26-7.41-3.53-9.9C55.53,9,52.14,11.68,47.47,9.42Z"/><path class="cls-2" d="M54.91,51.24a1.21,1.21,0,0,0,0,2.42h11.9a1.21,1.21,0,0,0,0-2.42Z"/><path class="cls-2" d="M29.32,51.24a1.21,1.21,0,0,0,0,2.42H42.24a1.21,1.21,0,1,0,0-2.42Z"/><path class="cls-2" d="M84.72,67.06h-17a10.81,10.81,0,0,0-8.89,4.29A14.68,14.68,0,0,0,56,79.27H36.32a3.65,3.65,0,0,1,0-7.29h7a6,6,0,0,0,6-6V62.17a6.19,6.19,0,0,0,3.64-1.77,6.27,6.27,0,0,0,1.24-1.84H91.41a1.21,1.21,0,1,0,0-2.42H53.31a1.21,1.21,0,0,0-1.16.85,4.12,4.12,0,0,1-1,1.72,4.83,4.83,0,0,1-6.23,0A4.14,4.14,0,0,1,44,57a1.19,1.19,0,0,0-1.15-.85H4.71a1.21,1.21,0,1,0,0,2.42H42a6.08,6.08,0,0,0,1.24,1.84,6.16,6.16,0,0,0,3.63,1.77V66a3.57,3.57,0,0,1-3.57,3.56h-7a6.07,6.07,0,0,0,0,12.13H56c.46,6.26,4.46,12.22,11.73,12.22h17a10.81,10.81,0,0,0,8.89-4.29,15.05,15.05,0,0,0,2.89-9.14C96.5,73.81,92.45,67.06,84.72,67.06ZM65.51,79.41h5.08a1.08,1.08,0,1,1,0,2.15H65.51a1.08,1.08,0,1,1,0-2.15Zm-4.79-6.59a8.51,8.51,0,0,1,7-3.34h4v7.7A3.5,3.5,0,0,0,70.59,77H65.51a3.5,3.5,0,0,0-3.27,2.28H58.42A12.25,12.25,0,0,1,60.72,72.82Zm-2.3,8.87h3.82A3.51,3.51,0,0,0,65.51,84h5.08a3.5,3.5,0,0,0,1.08-.19v7.7h-4C61.75,91.49,58.83,86.62,58.42,81.69Zm33.27,6.45a8.49,8.49,0,0,1-7,3.35H74.09v-22H84.72c6.43,0,9.36,5.7,9.36,11A12.57,12.57,0,0,1,91.69,88.14Z"/><path class="cls-2" d="M44.32,29.66a1.15,1.15,0,0,0,.6-.16l12.8-7.29a1.21,1.21,0,0,0,0-2.1l-12.8-7.29a1.19,1.19,0,0,0-1.21,0,1.23,1.23,0,0,0-.6,1V28.45a1.2,1.2,0,0,0,.6,1A1.22,1.22,0,0,0,44.32,29.66ZM45.53,16l9.15,5.21-9.15,5.2Z"/><path class="cls-2" d="M48.06,36.23A15.07,15.07,0,1,0,33,21.16,15.09,15.09,0,0,0,48.06,36.23Zm0-27.72A12.65,12.65,0,1,1,35.42,21.16,12.66,12.66,0,0,1,48.06,8.51Z"/><path class="cls-2" d="M79.47,39.58h-45a4.5,4.5,0,0,0-8.69,0H16.66a1.21,1.21,0,1,0,0,2.42h9.07a4.5,4.5,0,0,0,8.69,0H79.47a1.21,1.21,0,1,0,0-2.42ZM30.07,42.9a2.11,2.11,0,1,1,2.11-2.11A2.11,2.11,0,0,1,30.07,42.9Z"/></svg>