<svg id="Layer_1" data-name="Layer 1" xmlns="http://www.w3.org/2000/svg" viewBox="0 0 100 100"><defs><style>.cls-1{fill:#58d8a5;}.cls-2{fill:#08008c;}</style></defs><path class="cls-1" d="M48.17,4.39C43.54,4,38.6,5.22,35.3,8.48,31,12.72,30.36,19.62,32.09,25.39s5.45,10.71,9.06,15.54a12.27,12.27,0,0,1,2.49,4.61c.63,3.09-1.17,6.08-2.3,9-3.13,8.17-.89,17.95,5,24.43s15,9.69,23.68,9a20.4,20.4,0,0,0,10.34-3.33,23.25,23.25,0,0,0,6-6.9c5-8,7.72-17.61,6.63-27C90.78,32,67.76,5.86,48.17,4.39Z"/><rect class="cls-2" x="54.41" y="51.47" width="17.65" height="2.94"/><path class="cls-2" d="M54.41,17.64H51.47V11.75a1.47,1.47,0,0,1,1.47-1.47h2.94V5.87H44.12v4.41h2.94a1.47,1.47,0,0,1,1.47,1.47v5.89H45.59V13.23H42.65a1.48,1.48,0,0,1-1.48-1.48V4.4a1.47,1.47,0,0,1,1.48-1.47h14.7A1.47,1.47,0,0,1,58.83,4.4v7.35a1.48,1.48,0,0,1-1.48,1.48H54.41Z"/><path class="cls-2" d="M50,97.07A44.14,44.14,0,0,1,37.83,10.51l.81,2.83a41.19,41.19,0,1,0,22.72,0l.81-2.83A44.14,44.14,0,0,1,50,97.07Z"/><path class="cls-2" d="M50,89.72A36.78,36.78,0,1,1,86.77,52.94,36.81,36.81,0,0,1,50,89.72Zm0-70.61A33.83,33.83,0,1,0,83.83,52.94,33.87,33.87,0,0,0,50,19.11Z"/><rect class="cls-2" x="78.51" y="18.37" width="6.24" height="2.94" transform="translate(9.88 63.53) rotate(-45)"/><path class="cls-2" d="M86.77,22.05a1.47,1.47,0,0,1-1-.43l-5.88-5.88a1.48,1.48,0,0,1,0-2.08l4.41-4.42a1.48,1.48,0,0,1,2.08,0l5.89,5.89a1.48,1.48,0,0,1,0,2.08l-4.42,4.41A1.44,1.44,0,0,1,86.77,22.05ZM83,14.7l3.8,3.8,2.34-2.33L85.3,12.36Z"/><rect class="cls-2" x="16.9" y="16.72" width="2.94" height="6.24" transform="translate(-8.65 18.8) rotate(-45)"/><path class="cls-2" d="M13.23,22.05a1.44,1.44,0,0,1-1-.43L7.77,17.21a1.48,1.48,0,0,1,0-2.08l5.89-5.89a1.48,1.48,0,0,1,2.08,0l4.41,4.42a1.48,1.48,0,0,1,0,2.08l-5.88,5.88A1.47,1.47,0,0,1,13.23,22.05Zm-2.34-5.88,2.34,2.33L17,14.7,14.7,12.36Z"/><path class="cls-2" d="M50,58.83a5.89,5.89,0,1,1,5.88-5.89A5.89,5.89,0,0,1,50,58.83ZM50,50a2.94,2.94,0,1,0,2.94,2.94A2.94,2.94,0,0,0,50,50Z"/><rect class="cls-2" x="77.95" y="51.47" width="2.94" height="2.94"/><rect class="cls-2" x="19.11" y="51.47" width="2.94" height="2.94"/><rect class="cls-2" x="27.94" y="30.88" width="2.94" height="2.94"/><rect class="cls-2" x="69.12" y="72.06" width="2.94" height="2.94"/><rect class="cls-2" x="69.12" y="30.88" width="2.94" height="2.94"/><rect class="cls-2" x="27.94" y="72.06" width="2.94" height="2.94"/><rect class="cls-2" x="48.53" y="80.89" width="2.94" height="2.94"/><rect class="cls-2" x="48.53" y="22.05" width="2.94" height="2.94"/></svg>